<svg width="20" height="20" viewBox="0 0 20 20" fill="none" xmlns="http://www.w3.org/2000/svg">
<path d="M12.8568 15.0817C14.7514 14.857 16.5783 14.4116 18.3111 13.7719C16.8743 12.177 15.9998 10.0656 15.9998 7.75V7.04919C15.9999 7.03281 16 7.01641 16 7C16 3.68629 13.3137 1 9.99995 1C6.68624 1 3.99995 3.68629 3.99995 7L3.99975 7.75C3.99975 10.0656 3.12523 12.177 1.68843 13.7719C3.42136 14.4116 5.24839 14.857 7.14309 15.0818M12.8568 15.0817C11.9199 15.1928 10.9665 15.25 9.99975 15.25C9.03312 15.25 8.07983 15.1929 7.14309 15.0818M12.8568 15.0817C12.9498 15.3711 13 15.6797 13 16C13 17.6569 11.6568 19 9.99995 19C8.3431 19 6.99995 17.6569 6.99995 16C6.99995 15.6797 7.05014 15.3712 7.14309 15.0818M1.12439 5.5C1.41167 3.78764 2.18248 2.23924 3.29163 1M16.7083 1C17.8174 2.23924 18.5882 3.78764 18.8755 5.5" stroke="#3B8AFF" stroke-width="1.5" stroke-linecap="round" stroke-linejoin="round"/>
</svg>
