<svg width="25" height="24" viewBox="0 0 25 24" fill="none" xmlns="http://www.w3.org/2000/svg">
<path d="M6.72498 13.0227C6.72498 13.0227 7.82498 13.0227 9.29164 15.6C9.29164 15.6 13.0014 8.85 16.625 7.5" stroke="#3B8AFF" stroke-width="1.5" stroke-linecap="round" stroke-linejoin="round"/>
<path d="M12.125 3C13.3069 3 14.4772 3.23279 15.5692 3.68508C16.6611 4.13738 17.6532 4.80031 18.489 5.63604C19.3247 6.47177 19.9876 7.46392 20.4399 8.55585C20.8922 9.64778 21.125 10.8181 21.125 12C21.125 13.1819 20.8922 14.3522 20.4399 15.4442C19.9876 16.5361 19.3247 17.5282 18.489 18.364C17.6532 19.1997 16.6611 19.8626 15.5692 20.3149C14.4772 20.7672 13.3069 21 12.125 21" stroke="#3B8AFF" stroke-width="1.5"/>
<path d="M12.125 3C10.9431 3 9.77278 3.23279 8.68085 3.68508C7.58892 4.13738 6.59677 4.80031 5.76104 5.63604C4.92531 6.47177 4.26238 7.46392 3.81008 8.55585C3.35779 9.64778 3.125 10.8181 3.125 12C3.125 13.1819 3.35779 14.3522 3.81008 15.4442C4.26238 16.5361 4.92531 17.5282 5.76104 18.364C6.59677 19.1997 7.58892 19.8626 8.68085 20.3149C9.77278 20.7672 10.9431 21 12.125 21" stroke="#3B8AFF" stroke-width="1.5" stroke-dasharray="3 3"/>
</svg>
