<svg width="25" height="24" viewBox="0 0 25 24" fill="none" xmlns="http://www.w3.org/2000/svg">
<path d="M12.375 22C6.85217 22 2.37506 17.5228 2.37506 12C2.37506 6.47715 6.85221 2 12.375 2C16.8527 2 20.6007 4.94289 21.875 9H19.375" stroke="#F59E0B" stroke-width="1.5" stroke-linecap="round" stroke-linejoin="round"/>
<path d="M12.375 8V12L14.375 14" stroke="#F59E0B" stroke-width="1.5" stroke-linecap="round" stroke-linejoin="round"/>
<path d="M22.3301 13C22.3598 12.6709 22.375 12.3373 22.375 12M15.375 22C15.7166 21.8876 16.0503 21.7564 16.375 21.6078M21.1656 17C21.3585 16.6284 21.5305 16.2433 21.68 15.8462M18.5675 20.2292C18.9119 19.9441 19.2381 19.6358 19.5438 19.3065" stroke="#F59E0B" stroke-width="1.5" stroke-linecap="round" stroke-linejoin="round"/>
</svg>
