<svg width="75" height="74" viewBox="0 0 75 74" fill="none" xmlns="http://www.w3.org/2000/svg">
<circle cx="37.4998" cy="36.9998" r="31.5667" fill="#FEF2F2" stroke="#EF4444"/>
<path d="M40.7404 34L40.3942 43M35.6058 43L35.2596 34M45.2276 30.7906C45.5696 30.8422 45.9104 30.8975 46.25 30.9563M45.2276 30.7906L44.1598 44.6726C44.0696 45.8448 43.0921 46.75 41.9164 46.75H34.0836C32.9079 46.75 31.9304 45.8448 31.8402 44.6726L30.7724 30.7906M45.2276 30.7906C44.0812 30.6174 42.9215 30.4849 41.75 30.3943M29.75 30.9563C30.0896 30.8975 30.4304 30.8422 30.7724 30.7906M30.7724 30.7906C31.9188 30.6174 33.0785 30.4849 34.25 30.3943M41.75 30.3943V29.4782C41.75 28.2988 40.8393 27.3142 39.6606 27.2765C39.1092 27.2589 38.5556 27.25 38 27.25C37.4444 27.25 36.8908 27.2589 36.3394 27.2765C35.1607 27.3142 34.25 28.2988 34.25 29.4782V30.3943M41.75 30.3943C40.5126 30.2987 39.262 30.25 38 30.25C36.738 30.25 35.4874 30.2987 34.25 30.3943" stroke="#EF4444" stroke-width="1.5" stroke-linecap="round" stroke-linejoin="round"/>
</svg>
