<svg width="69" height="79" viewBox="0 0 69 79" fill="none" xmlns="http://www.w3.org/2000/svg">
<path d="M34.4996 0L-0.00683594 31.4622L34.4996 76.6555L69.0071 31.4622L34.4996 0Z" fill="#7CB1FF"/>
<path d="M55.9678 63.2261H13.7417C11.9578 63.2261 10.4983 61.9237 10.4983 60.3319V12.8327C10.4983 11.2409 11.9578 9.93848 13.7417 9.93848H55.9678C57.7517 9.93848 59.2113 11.2409 59.2113 12.8327V60.3319C59.2113 61.9237 57.7517 63.2261 55.9678 63.2261ZM34.3738 23.551C27.4869 23.551 21.9028 29.2333 21.9028 36.2445C21.9028 43.2534 27.4869 48.9357 34.3738 48.9357C41.2607 48.9357 46.8448 43.2534 46.8448 36.2445C46.8448 29.2333 41.2607 23.551 34.3738 23.551ZM32.0845 42.7613L26.5949 37.1755L28.4248 35.3111L32.0845 39.0374L40.3228 30.6563L42.1527 32.5182L32.0845 42.7613Z" fill="#FBFBFC"/>
<path d="M55.9678 63.2261H13.7417C11.9578 63.2261 10.4983 61.9237 10.4983 60.3319V12.8327C10.4983 11.2409 11.9578 9.93848 13.7417 9.93848H55.9678C57.7517 9.93848 59.2113 11.2409 59.2113 12.8327V60.3319C59.2113 61.9237 57.7517 63.2261 55.9678 63.2261ZM34.3738 23.551C27.4869 23.551 21.9028 29.2333 21.9028 36.2445C21.9028 43.2534 27.4869 48.9357 34.3738 48.9357C41.2607 48.9357 46.8448 43.2534 46.8448 36.2445C46.8448 29.2333 41.2607 23.551 34.3738 23.551ZM32.0845 42.7613L26.5949 37.1755L28.4248 35.3111L32.0845 39.0374L40.3228 30.6563L42.1527 32.5182L32.0845 42.7613Z" stroke="#E5E7EB" stroke-width="3.77853" stroke-miterlimit="10"/>
<path d="M34.3727 23.5518C27.4852 23.5518 21.9011 29.2342 21.9011 36.2434C21.9011 43.2524 27.4852 48.9346 34.3727 48.9346C41.2612 48.9346 46.8445 43.2524 46.8445 36.2434C46.8445 29.2342 41.261 23.5518 34.3727 23.5518ZM32.085 42.7623L26.5936 37.1747L28.4237 35.3121L32.085 39.0373L40.3217 30.6553L42.1521 32.5179L32.085 42.7623Z" fill="#3B8AFF"/>
<path d="M-0.00683594 31.4622L34.1223 68.7325L69.0071 31.4622V78.1488H-0.00683594V31.4622Z" fill="#3B8AFF"/>
<path d="M40.2908 54.7933C40.2908 54.7933 37.0568 53.2529 34.1955 53.2529C31.3345 53.2529 28.7087 54.7933 28.7087 54.7933L-0.00683594 78.2085H69.0071L40.2908 54.7933Z" fill="#367EE8"/>
</svg>
