<svg width="18" height="18" viewBox="0 0 18 18" fill="none" xmlns="http://www.w3.org/2000/svg">
<path d="M9.00005 1.5C11.2956 1.5 13.546 1.69337 15.7359 2.06472C16.1799 2.14002 16.5 2.52796 16.5 2.97835V3.84835C16.5 4.34563 16.3025 4.82254 15.9508 5.17417L11.4242 9.70083C11.0725 10.0525 10.875 10.5294 10.875 11.0267V13.4662C10.875 14.1764 10.4737 14.8256 9.83853 15.1432L7.125 16.5V11.0267C7.125 10.5294 6.92746 10.0525 6.57583 9.70083L2.04917 5.17417C1.69754 4.82254 1.5 4.34563 1.5 3.84835V2.97837C1.5 2.52798 1.82006 2.14004 2.26412 2.06474C4.45399 1.69338 6.70444 1.5 9.00005 1.5Z" stroke="#4B5563" stroke-width="1.5" stroke-linecap="round" stroke-linejoin="round"/>
</svg>
