<svg width="708" height="1024" viewBox="0 0 708 1024" fill="none" xmlns="http://www.w3.org/2000/svg">
<g clip-path="url(#clip0_2020_1138)">
<rect width="708" height="1024" fill="#3B8AFF"/>
<path fill-rule="evenodd" clip-rule="evenodd" d="M644.884 -337.924C730.741 -336.585 828.159 -324.753 878.449 -255.153C925.861 -189.536 878.764 -102.368 873.453 -21.5885C868.768 49.6868 888.602 123.298 849.635 183.162C802.053 256.262 730.835 344.396 644.884 329.563C558.776 314.703 560.694 186.141 500.401 122.894C443.279 62.9729 330.238 58.72 310.136 -21.5885C288.379 -108.508 338.795 -201.014 403.918 -262.555C467.506 -322.645 557.405 -339.288 644.884 -337.924Z" fill="#62A1FF"/>
<g clip-path="url(#clip1_2020_1138)">
<g opacity="0.5">
<path d="M49.437 588.461C57.0848 594.409 66.2534 598.084 75.8927 599.063C85.532 600.042 95.2521 598.286 103.94 593.997C112.627 589.707 119.931 583.057 125.014 574.809C130.098 566.561 132.755 557.047 132.682 547.359C132.609 537.67 129.808 528.198 124.601 520.027C119.394 511.856 111.991 505.318 103.24 501.16C94.4883 497.002 84.7428 495.393 75.1194 496.517C65.4959 497.641 56.3838 501.453 48.8266 507.517L37.5342 498.797L20.7264 504.05L22.6448 487.243L8.47483 476.233L-8.31116 481.466L-6.39278 464.658L-18.579 455.196L-28.825 458.379L-27.6478 448.133L-34.82 442.552L-50.9084 444.122L-53.0884 468.843L31.1904 534.353C28.5715 544.166 28.9058 554.535 32.1514 564.159C35.3971 573.784 41.4099 582.237 49.437 588.461ZM110.848 570.868C109.054 573.175 106.617 574.899 103.844 575.822C101.071 576.744 98.087 576.824 95.2686 576.051C92.4503 575.278 89.9244 573.687 88.0101 571.479C86.0958 569.271 84.879 566.545 84.5135 563.646C84.1481 560.746 84.6503 557.804 85.9568 555.189C87.2633 552.575 89.3154 550.407 91.8537 548.959C94.392 547.511 97.3027 546.848 100.218 547.053C103.133 547.259 105.922 548.324 108.232 550.114C111.323 552.525 113.334 556.062 113.824 559.951C114.315 563.84 113.244 567.766 110.848 570.868Z" fill="#EBEBEB"/>
<path d="M117.366 391.431C120.652 387.415 122.74 382.555 123.391 377.408C124.043 372.26 123.231 367.033 121.05 362.326C118.868 357.618 115.405 353.62 111.056 350.79C106.707 347.96 101.649 346.411 96.4617 346.323C91.2739 346.234 86.166 347.608 81.7231 350.288C77.2803 352.968 73.6821 356.845 71.3408 361.476C68.9994 366.106 68.0097 371.302 68.4848 376.469C68.96 381.636 70.8808 386.564 74.0273 390.69L69.166 396.619L71.7602 405.688L62.7786 404.446L56.74 411.901L59.3342 420.97L50.3744 419.706L45.1423 426.115L46.7119 431.63L41.2402 430.867L38.21 434.595L38.8421 443.315L52.053 444.798L88.1973 400.522C93.4145 402.041 98.9638 401.989 104.152 400.372C109.339 398.755 113.936 395.645 117.366 391.431ZM108.646 358.338C109.856 359.33 110.746 360.658 111.202 362.155C111.657 363.652 111.659 365.251 111.207 366.749C110.754 368.247 109.867 369.577 108.659 370.571C107.451 371.566 105.974 372.179 104.417 372.335C102.86 372.49 101.292 372.18 99.9107 371.444C98.5296 370.709 97.3976 369.58 96.6579 368.201C95.9182 366.822 95.6039 365.254 95.7549 363.697C95.9058 362.139 96.5152 360.661 97.506 359.45C98.1633 358.63 98.9777 357.95 99.9015 357.449C100.825 356.948 101.84 356.636 102.886 356.533C103.931 356.429 104.987 356.536 105.991 356.846C106.996 357.156 107.928 357.663 108.733 358.338H108.646Z" fill="#EBEBEB"/>
</g>
<path d="M604.378 192.722H154.317V875.918H604.378V192.722Z" fill="white"/>
<path d="M603.593 227.516H153.401V521.534H603.593V227.516Z" fill="#7CB1FF"/>
<path d="M263.382 563.064V569.604H272.996V571.958H263.382V579.719H260.635V560.535H274.195V563.064H263.382Z" fill="#263238"/>
<path d="M275.852 572.525C275.826 571.024 276.247 569.549 277.062 568.288C277.878 567.026 279.05 566.037 280.43 565.444C281.809 564.851 283.334 564.683 284.81 564.96C286.286 565.237 287.646 565.946 288.717 566.999C289.788 568.052 290.522 569.399 290.825 570.87C291.127 572.341 290.985 573.868 290.417 575.258C289.848 576.648 288.879 577.837 287.632 578.675C286.386 579.512 284.918 579.959 283.416 579.959C282.422 580.005 281.429 579.844 280.499 579.488C279.57 579.133 278.723 578.589 278.014 577.891C277.304 577.194 276.745 576.357 276.373 575.434C276.001 574.51 275.824 573.52 275.852 572.525ZM288.3 572.525C288.257 571.565 287.933 570.638 287.367 569.86C286.802 569.082 286.021 568.487 285.12 568.15C284.22 567.813 283.24 567.747 282.303 567.962C281.366 568.177 280.512 568.663 279.849 569.359C279.185 570.055 278.741 570.931 278.571 571.877C278.402 572.824 278.514 573.799 278.894 574.682C279.274 575.566 279.905 576.318 280.709 576.845C281.513 577.372 282.455 577.652 283.416 577.648C284.083 577.665 284.746 577.543 285.362 577.288C285.978 577.033 286.534 576.652 286.994 576.17C287.454 575.687 287.808 575.113 288.033 574.486C288.258 573.858 288.348 573.19 288.3 572.525Z" fill="#263238"/>
<path d="M302.426 565.113V567.663H301.815C301.176 567.626 300.536 567.73 299.942 567.969C299.347 568.207 298.812 568.573 298.375 569.041C297.938 569.509 297.609 570.068 297.413 570.678C297.216 571.288 297.156 571.933 297.237 572.568V579.806H294.6V565.244H297.128V567.663C297.688 566.789 298.48 566.088 299.416 565.637C300.351 565.187 301.393 565.005 302.426 565.113Z" fill="#263238"/>
<path d="M319.408 565.244V577.779C319.408 582.924 316.814 585.234 311.887 585.234C309.392 585.344 306.938 584.572 304.955 583.054L306.197 581.027C307.794 582.28 309.771 582.949 311.8 582.924C315.223 582.924 316.792 581.332 316.792 578.04V576.885C316.134 577.61 315.324 578.181 314.419 578.558C313.515 578.935 312.539 579.108 311.56 579.065C310.604 579.118 309.647 578.976 308.748 578.647C307.848 578.317 307.026 577.808 306.33 577.15C305.634 576.492 305.08 575.699 304.701 574.819C304.323 573.94 304.127 572.992 304.127 572.034C304.127 571.077 304.323 570.129 304.701 569.249C305.08 568.37 305.634 567.577 306.33 566.919C307.026 566.261 307.848 565.751 308.748 565.422C309.647 565.093 310.604 564.951 311.56 565.004C312.579 564.958 313.595 565.15 314.526 565.567C315.457 565.983 316.278 566.612 316.923 567.402V565.222L319.408 565.244ZM316.836 572.111C316.752 570.841 316.188 569.65 315.259 568.781C314.33 567.911 313.105 567.427 311.833 567.427C310.56 567.427 309.335 567.911 308.406 568.781C307.477 569.65 306.914 570.841 306.83 572.111C306.914 573.38 307.477 574.571 308.406 575.441C309.335 576.31 310.56 576.794 311.833 576.794C313.105 576.794 314.33 576.31 315.259 575.441C316.188 574.571 316.752 573.38 316.836 572.111Z" fill="#263238"/>
<path d="M323.092 572.525C323.066 571.024 323.488 569.549 324.303 568.288C325.118 567.026 326.29 566.037 327.67 565.444C329.05 564.851 330.575 564.683 332.051 564.96C333.527 565.237 334.887 565.946 335.958 566.999C337.029 568.052 337.762 569.399 338.065 570.87C338.368 572.341 338.226 573.868 337.657 575.258C337.089 576.648 336.119 577.837 334.873 578.675C333.626 579.512 332.158 579.959 330.657 579.959C329.662 580.005 328.669 579.844 327.74 579.488C326.81 579.133 325.964 578.589 325.254 577.891C324.544 577.194 323.986 576.357 323.614 575.434C323.242 574.51 323.064 573.52 323.092 572.525ZM335.54 572.525C335.497 571.565 335.173 570.638 334.608 569.86C334.043 569.082 333.261 568.487 332.361 568.15C331.46 567.813 330.481 567.747 329.543 567.962C328.606 568.177 327.753 568.663 327.089 569.359C326.426 570.055 325.982 570.931 325.812 571.877C325.642 572.824 325.754 573.799 326.134 574.682C326.515 575.566 327.146 576.318 327.95 576.845C328.754 577.372 329.695 577.652 330.657 577.648C331.323 577.665 331.986 577.543 332.602 577.288C333.218 577.033 333.774 576.652 334.235 576.17C334.695 575.687 335.048 575.113 335.273 574.486C335.498 573.858 335.589 573.19 335.54 572.525Z" fill="#263238"/>
<path d="M350.015 578.934C349.101 579.627 347.979 579.988 346.833 579.959C346.215 580.031 345.589 579.963 345.001 579.761C344.413 579.558 343.878 579.225 343.436 578.788C342.994 578.35 342.657 577.818 342.448 577.232C342.24 576.646 342.166 576.021 342.233 575.403V567.424H339.748V565.244H342.32V562.061H344.936V565.244H349.1V567.424H344.936V575.294C344.899 575.601 344.928 575.913 345.02 576.208C345.113 576.504 345.268 576.776 345.474 577.007C345.68 577.238 345.933 577.423 346.217 577.548C346.5 577.674 346.806 577.737 347.116 577.735C347.858 577.739 348.579 577.493 349.165 577.038L350.015 578.934Z" fill="#263238"/>
<path d="M375.608 572.525C375.661 573.508 375.507 574.49 375.158 575.41C374.809 576.33 374.271 577.167 373.579 577.867C372.887 578.566 372.057 579.114 371.141 579.474C370.226 579.835 369.245 580 368.262 579.959C367.291 579.989 366.327 579.789 365.449 579.376C364.57 578.963 363.801 578.349 363.204 577.583V585.104H360.566V565.244H363.095V567.533C363.696 566.739 364.479 566.103 365.379 565.678C366.278 565.252 367.268 565.051 368.262 565.091C369.245 565.05 370.226 565.215 371.141 565.575C372.057 565.936 372.887 566.483 373.579 567.183C374.271 567.883 374.809 568.72 375.158 569.64C375.507 570.56 375.661 571.542 375.608 572.525ZM372.949 572.525C372.906 571.565 372.583 570.639 372.018 569.862C371.454 569.084 370.674 568.49 369.775 568.152C368.876 567.814 367.897 567.747 366.96 567.96C366.024 568.173 365.17 568.657 364.506 569.351C363.841 570.045 363.395 570.918 363.223 571.863C363.051 572.808 363.16 573.783 363.537 574.667C363.914 575.551 364.542 576.304 365.343 576.834C366.144 577.364 367.083 577.647 368.044 577.648C368.711 577.665 369.375 577.542 369.992 577.287C370.609 577.033 371.167 576.652 371.628 576.17C372.09 575.688 372.446 575.115 372.673 574.487C372.901 573.859 372.995 573.191 372.949 572.525Z" fill="#263238"/>
<path d="M390.629 571.021V579.741H388.1V577.822C387.553 578.56 386.829 579.147 385.994 579.528C385.159 579.909 384.241 580.072 383.326 580.002C380.034 580.002 377.963 578.237 377.963 575.642C377.963 573.048 379.467 571.391 383.783 571.391H388.1V570.89C388.1 568.71 386.792 567.38 384.198 567.38C382.533 567.357 380.91 567.903 379.598 568.928L378.508 566.966C380.238 565.683 382.35 565.022 384.503 565.091C388.383 565.113 390.629 567.031 390.629 571.021ZM388.013 575.381V573.353H383.958C381.342 573.353 380.601 574.378 380.601 575.533C380.601 576.689 381.8 577.888 383.805 577.888C384.699 577.974 385.597 577.773 386.369 577.314C387.141 576.856 387.748 576.163 388.1 575.337L388.013 575.381Z" fill="#263238"/>
<path d="M393.681 578.324L394.771 576.144C396.291 577.126 398.062 577.648 399.872 577.648C402.313 577.648 403.316 576.907 403.316 575.686C403.316 572.416 394.138 575.25 394.138 569.451C394.138 566.857 396.471 565.091 400.199 565.091C402.051 565.061 403.878 565.519 405.496 566.421L404.363 568.492C403.11 567.706 401.655 567.304 400.177 567.336C397.866 567.336 396.754 568.187 396.754 569.342C396.754 572.765 405.954 569.974 405.954 575.621C405.954 578.258 403.556 579.981 399.676 579.981C397.556 580.047 395.465 579.47 393.681 578.324Z" fill="#263238"/>
<path d="M407.415 578.324L408.505 576.144C410.025 577.126 411.796 577.648 413.606 577.648C416.048 577.648 417.05 576.907 417.05 575.686C417.05 572.416 407.873 575.25 407.873 569.451C407.873 566.857 410.205 565.091 413.933 565.091C415.785 565.061 417.612 565.519 419.23 566.421L418.097 568.492C416.845 567.706 415.389 567.304 413.911 567.336C411.6 567.336 410.489 568.187 410.489 569.342C410.489 572.765 419.688 569.974 419.688 575.621C419.688 578.258 417.29 579.981 413.41 579.981C411.29 580.047 409.2 579.47 407.415 578.324Z" fill="#263238"/>
<path d="M444.78 565.244L439.352 579.763H436.823L432.637 568.862L428.386 579.763H425.858L420.386 565.244H422.98L427.209 576.798L431.569 565.244H433.749L438.109 576.863L442.469 565.244H444.78Z" fill="#263238"/>
<path d="M445.608 572.525C445.587 571.03 446.01 569.561 446.825 568.307C447.639 567.053 448.808 566.069 450.183 565.481C451.558 564.893 453.077 564.727 454.547 565.003C456.016 565.28 457.371 565.988 458.437 567.036C459.504 568.084 460.235 569.426 460.537 570.89C460.84 572.355 460.7 573.877 460.136 575.262C459.572 576.647 458.608 577.833 457.369 578.669C456.129 579.505 454.668 579.954 453.173 579.959C452.179 580.004 451.186 579.844 450.256 579.488C449.326 579.132 448.48 578.589 447.77 577.891C447.06 577.193 446.502 576.357 446.13 575.433C445.758 574.51 445.58 573.52 445.608 572.525ZM458.034 572.525C457.987 571.57 457.661 570.649 457.096 569.878C456.53 569.107 455.751 568.518 454.855 568.186C453.958 567.854 452.983 567.792 452.052 568.008C451.12 568.225 450.273 568.71 449.615 569.403C448.957 570.097 448.517 570.969 448.349 571.91C448.182 572.852 448.295 573.822 448.674 574.7C449.052 575.578 449.681 576.325 450.481 576.849C451.281 577.373 452.217 577.651 453.173 577.648C453.839 577.665 454.5 577.542 455.116 577.288C455.731 577.033 456.285 576.651 456.744 576.168C457.202 575.685 457.554 575.111 457.776 574.484C457.999 573.856 458.086 573.189 458.034 572.525Z" fill="#263238"/>
<path d="M472.161 565.113V567.663H471.55C470.911 567.626 470.271 567.73 469.676 567.969C469.082 568.207 468.547 568.573 468.11 569.041C467.673 569.51 467.344 570.068 467.148 570.678C466.951 571.288 466.891 571.933 466.972 572.569V579.806H464.4V565.244H466.907V567.663C467.463 566.796 468.248 566.099 469.175 565.649C470.102 565.199 471.135 565.014 472.161 565.113Z" fill="#263238"/>
<path d="M488.969 559.445V579.784H486.44V577.474C485.844 578.281 485.06 578.93 484.155 579.363C483.251 579.796 482.254 580.001 481.251 579.959C479.352 579.856 477.565 579.029 476.257 577.648C474.949 576.267 474.22 574.438 474.22 572.536C474.22 570.634 474.949 568.804 476.257 567.424C477.565 566.043 479.352 565.216 481.251 565.113C482.221 565.078 483.186 565.271 484.068 565.676C484.95 566.081 485.725 566.687 486.331 567.445V559.445H488.969ZM486.353 572.525C486.31 571.564 485.986 570.637 485.42 569.86C484.855 569.082 484.074 568.487 483.173 568.15C482.273 567.812 481.293 567.747 480.356 567.962C479.419 568.177 478.565 568.663 477.902 569.359C477.238 570.055 476.794 570.93 476.624 571.877C476.455 572.823 476.567 573.799 476.947 574.682C477.327 575.565 477.958 576.317 478.762 576.845C479.566 577.372 480.508 577.651 481.469 577.648C482.136 577.665 482.799 577.542 483.415 577.288C484.031 577.033 484.587 576.652 485.047 576.169C485.507 575.687 485.861 575.113 486.086 574.485C486.311 573.858 486.401 573.19 486.353 572.525Z" fill="#263238"/>
<path d="M502.528 565.658C502.528 563.914 501.089 562.715 498.604 562.715C497.672 562.663 496.742 562.834 495.889 563.213C495.036 563.592 494.285 564.169 493.699 564.895L491.715 563.478C492.567 562.44 493.655 561.62 494.887 561.085C496.119 560.551 497.46 560.317 498.8 560.404C502.746 560.404 505.34 562.235 505.34 565.287C505.34 569.865 500.501 570.149 500.501 573.746H497.754C497.71 569.429 502.528 568.819 502.528 565.658ZM497.318 578.193C497.366 577.756 497.575 577.352 497.902 577.058C498.23 576.765 498.655 576.602 499.095 576.602C499.535 576.602 499.959 576.765 500.287 577.058C500.615 577.352 500.823 577.756 500.871 578.193C500.823 578.63 500.615 579.034 500.287 579.328C499.959 579.621 499.535 579.783 499.095 579.783C498.655 579.783 498.23 579.621 497.902 579.328C497.575 579.034 497.366 578.63 497.318 578.193Z" fill="#263238"/>
<path d="M557.29 619.155C557.29 619.482 480.161 619.722 385.07 619.722C289.978 619.722 212.85 619.482 212.85 619.155C212.85 618.828 289.956 618.589 385.07 618.589C480.183 618.589 557.29 618.85 557.29 619.155Z" fill="black"/>
<path d="M483.758 637.577C483.758 637.882 439.57 638.143 385.048 638.143C330.526 638.143 286.316 637.882 286.316 637.577C286.316 637.271 330.526 637.01 385.048 637.01C439.57 637.01 483.758 637.184 483.758 637.577Z" fill="black"/>
<path d="M452.628 404.119C459.838 397.393 465.009 388.772 467.547 379.244C470.085 369.716 469.888 359.666 466.979 350.244C464.07 340.823 458.566 332.411 451.098 325.972C443.63 319.534 434.499 315.329 424.752 313.839C415.005 312.35 405.035 313.635 395.985 317.549C386.935 321.463 379.17 327.847 373.579 335.969C367.989 344.091 364.799 353.624 364.375 363.475C363.952 373.327 366.311 383.098 371.183 391.671L360.501 401.633L363.074 419.357L346.484 414.823L333.12 427.292L335.78 444.907L319.212 440.263L307.723 450.967L309.293 461.867L299.178 459.033L292.507 465.268L291.504 481.684L315.986 487.853L395.447 413.733C404.869 417.921 415.316 419.242 425.484 417.533C435.653 415.823 445.093 411.158 452.628 404.119ZM444.78 339.568C446.814 341.746 448.156 344.479 448.637 347.42C449.118 350.361 448.715 353.379 447.48 356.091C446.246 358.804 444.234 361.089 441.7 362.658C439.167 364.226 436.224 365.008 433.246 364.905C430.268 364.801 427.387 363.816 424.969 362.075C422.55 360.333 420.702 357.914 419.659 355.122C418.616 352.33 418.425 349.292 419.109 346.391C419.793 343.491 421.322 340.858 423.503 338.827C426.424 336.106 430.305 334.656 434.295 334.795C438.284 334.934 442.055 336.651 444.78 339.568Z" fill="#263238"/>
<path d="M444.78 339.568C444.78 339.568 443.799 338.653 441.793 337.388C438.942 335.684 435.612 334.957 432.31 335.317C429.634 335.606 427.091 336.635 424.966 338.287C422.84 339.94 421.218 342.152 420.279 344.675C419.34 347.198 419.122 349.933 419.65 352.573C420.178 355.212 421.43 357.653 423.267 359.621C425.103 361.59 427.452 363.008 430.049 363.716C432.646 364.425 435.389 364.397 437.971 363.634C440.553 362.872 442.871 361.406 444.667 359.4C446.462 357.394 447.664 354.928 448.137 352.278C448.743 349.012 448.245 345.637 446.72 342.686C445.63 340.506 444.671 339.634 444.78 339.547C444.889 339.459 445.063 339.743 445.499 340.201C446.14 340.861 446.703 341.592 447.178 342.381C448.95 345.387 449.614 348.92 449.053 352.365C448.727 354.415 447.994 356.378 446.895 358.138C445.797 359.899 444.356 361.421 442.659 362.615C440.961 363.808 439.041 364.649 437.013 365.086C434.984 365.524 432.888 365.549 430.85 365.162C427.565 364.56 424.562 362.916 422.285 360.473C420.007 358.031 418.577 354.921 418.206 351.602C417.961 349.543 418.133 347.455 418.709 345.463C419.286 343.471 420.257 341.616 421.564 340.006C422.871 338.396 424.488 337.064 426.319 336.091C428.15 335.117 430.157 334.52 432.223 334.336C435.707 334.015 439.194 334.925 442.077 336.909C442.874 337.421 443.606 338.028 444.257 338.718C444.78 339.285 444.911 339.547 444.78 339.568Z" fill="#263238"/>
<path d="M452.628 404.119C452.628 404.119 452.388 404.38 451.865 404.838L449.554 407.018C446.422 409.569 443.014 411.763 439.395 413.558C432.507 416.858 424.985 418.623 417.349 418.732C409.712 418.841 402.143 417.292 395.163 414.19H395.599L316.269 488.442L316.051 488.681H315.724L291.243 482.534L290.741 482.425V481.902C291.046 476.779 291.373 471.176 291.722 465.486V464.963L291.897 464.788L298.72 458.423L298.96 458.183H299.309L309.424 461.017L308.617 461.715C308.116 458.336 307.593 454.63 307.048 450.815V450.488L307.287 450.27L318.776 439.544L319.038 439.282H319.386L335.954 443.926L335.148 444.645C334.341 439.021 333.469 433.004 332.597 426.922V426.573L332.859 426.355L336.39 423.041L346.222 413.885L346.484 413.623H346.833L363.422 418.267L362.594 418.986C361.737 413.013 360.886 407.105 360.043 401.263V400.936L360.283 400.696L370.965 390.733L370.856 391.518C366.723 384.175 364.384 375.958 364.033 367.538C363.829 363.47 364.122 359.392 364.905 355.395C365.619 351.465 366.79 347.631 368.393 343.972C372.436 334.718 379.041 326.812 387.429 321.187C395.816 315.561 405.637 312.451 415.733 312.222C425.83 311.993 435.782 314.655 444.416 319.894C453.05 325.133 460.006 332.731 464.465 341.792C468.648 350.341 470.433 359.864 469.632 369.347C469.079 376.416 467.076 383.296 463.746 389.556C463.419 390.21 463.092 390.821 462.765 391.431L461.697 393.088C460.977 394.156 460.389 395.268 459.691 396.074C458.274 397.775 457.184 399.301 456.116 400.434L453.5 403.334L452.65 404.119C452.65 404.119 452.89 403.813 453.413 403.247L455.767 400.74C456.792 399.65 457.947 398.102 459.233 396.38C459.887 395.486 460.454 394.439 461.152 393.393C461.501 392.848 461.849 392.303 462.198 391.714L463.157 389.861C466.378 383.666 468.318 376.885 468.863 369.924C469.408 362.962 468.546 355.962 466.329 349.341C464.112 342.719 460.585 336.612 455.958 331.382C451.331 326.152 445.699 321.907 439.398 318.9C433.096 315.892 426.253 314.184 419.277 313.876C412.301 313.569 405.335 314.668 398.793 317.109C392.251 319.551 386.267 323.284 381.198 328.086C376.129 332.888 372.078 338.661 369.287 345.062C367.732 348.641 366.591 352.386 365.886 356.224C365.14 360.13 364.862 364.111 365.057 368.083C365.429 376.275 367.722 384.266 371.75 391.409L371.99 391.845L371.619 392.194L360.959 402.157L361.155 401.59C361.998 407.403 362.848 413.318 363.706 419.335L363.858 420.316L362.877 420.055L346.309 415.411L346.942 415.258L337.11 424.415L333.6 427.663L333.796 427.074C334.668 433.156 335.54 439.195 336.347 444.798L336.499 445.801L335.518 445.539L318.95 440.874L319.561 440.721C315.615 444.427 311.691 448.068 308.072 451.447L308.29 450.88C308.813 454.608 309.337 458.314 309.838 461.78L309.969 462.739L309.031 462.478L298.938 459.644L299.527 459.491L292.834 465.726L293.03 465.312C292.681 471.002 292.333 476.604 292.027 481.727L291.57 481.095L316.051 487.264L315.506 487.417L395.076 413.427L395.272 413.253H395.512C402.394 416.35 409.864 417.926 417.411 417.873C424.958 417.821 432.404 416.14 439.243 412.948C442.851 411.229 446.27 409.139 449.445 406.713L451.821 404.729L452.628 404.119Z" fill="#263238"/>
<path d="M450.862 398.167C458.069 391.445 463.237 382.83 465.775 373.307C468.313 363.784 468.118 353.739 465.212 344.322C462.306 334.905 456.807 326.497 449.344 320.06C441.882 313.623 432.757 309.418 423.016 307.926C413.274 306.434 403.309 307.716 394.262 311.624C385.215 315.532 377.452 321.91 371.861 330.025C366.27 338.141 363.078 347.668 362.649 357.513C362.221 367.359 364.574 377.127 369.439 385.697L358.779 395.638L361.329 413.384L344.761 408.718L331.42 421.21L333.97 438.933L317.402 434.29L305.914 445.016L307.462 455.916L297.368 453.104L290.676 459.338L289.673 475.754L314.154 481.902L393.615 407.781C403.044 411.992 413.506 413.326 423.69 411.615C433.874 409.905 443.326 405.227 450.862 398.167ZM443.101 333.617C445.135 335.795 446.478 338.527 446.958 341.469C447.439 344.41 447.037 347.427 445.802 350.14C444.567 352.852 442.555 355.137 440.022 356.706C437.488 358.275 434.546 359.057 431.567 358.953C428.589 358.849 425.708 357.865 423.29 356.123C420.871 354.382 419.024 351.962 417.981 349.171C416.938 346.379 416.746 343.341 417.43 340.44C418.115 337.539 419.644 334.907 421.824 332.876C423.269 331.526 424.966 330.474 426.818 329.781C428.67 329.087 430.64 328.766 432.617 328.835C434.593 328.903 436.536 329.361 438.335 330.182C440.134 331.002 441.754 332.17 443.101 333.617Z" fill="#3B8AFF"/>
<path d="M443.101 333.617C443.101 333.617 442.12 332.701 440.115 331.437C437.292 329.677 433.962 328.909 430.654 329.257C427.984 329.55 425.449 330.581 423.332 332.233C421.214 333.885 419.598 336.093 418.664 338.611C417.73 341.129 417.515 343.857 418.043 346.49C418.57 349.123 419.82 351.558 421.652 353.521C423.485 355.485 425.827 356.9 428.417 357.608C431.008 358.317 433.744 358.29 436.321 357.532C438.897 356.775 441.212 355.315 443.006 353.317C444.8 351.318 446.003 348.86 446.48 346.217C447.081 342.949 446.575 339.574 445.042 336.625C443.952 334.445 443.014 333.573 443.101 333.486C443.189 333.399 443.385 333.682 443.843 334.14C444.476 334.802 445.032 335.533 445.499 336.32C447.279 339.332 447.943 342.874 447.374 346.327C447.046 348.372 446.311 350.332 445.213 352.089C444.116 353.847 442.677 355.367 440.983 356.559C439.288 357.752 437.372 358.593 435.347 359.034C433.322 359.474 431.23 359.504 429.193 359.123C425.91 358.553 422.897 356.942 420.6 354.528C418.304 352.113 416.845 349.024 416.44 345.716C416.202 343.658 416.377 341.573 416.957 339.583C417.536 337.594 418.507 335.74 419.813 334.132C421.119 332.523 422.734 331.192 424.562 330.216C426.39 329.24 428.394 328.64 430.457 328.45C433.945 328.133 437.432 329.051 440.311 331.045C441.113 331.55 441.846 332.159 442.491 332.854C442.949 333.334 443.145 333.595 443.101 333.617Z" fill="#263238"/>
<path d="M450.862 398.167C450.862 398.167 450.622 398.429 450.121 398.887L447.81 400.936C444.673 403.48 441.266 405.673 437.651 407.476C430.759 410.775 423.234 412.539 415.594 412.648C407.954 412.758 400.381 411.209 393.397 408.108H393.833L314.525 482.36L314.285 482.578H313.98L289.477 476.43L288.997 476.299V475.798C289.302 470.675 289.651 465.072 289.978 459.382V459.121L290.152 458.968L296.845 452.711L297.107 452.472H297.455L307.549 455.284L306.742 456.003C306.263 452.624 305.718 448.918 305.173 445.103V444.776L305.434 444.536L316.901 433.832L317.163 433.571L317.533 433.68L334.101 438.323L333.273 439.043L330.722 421.363V421.014L330.962 420.774L334.515 417.482L344.325 408.326L344.587 408.065L344.958 408.174L361.526 412.817L360.697 413.536C359.84 407.563 358.99 401.655 358.147 395.813V395.464L358.408 395.246L369.09 385.283L368.959 386.068C364.826 378.725 362.488 370.508 362.136 362.088C361.943 358.02 362.236 353.944 363.008 349.945C363.726 346.016 364.897 342.183 366.496 338.522C371.456 326.99 380.358 317.6 391.609 312.031C402.859 306.463 415.724 305.08 427.902 308.129C440.079 311.179 450.773 318.462 458.072 328.676C465.37 338.89 468.795 351.367 467.735 363.876C467.179 370.944 465.176 377.823 461.849 384.084L460.868 385.959L459.8 387.616C459.081 388.684 458.492 389.796 457.816 390.603C456.399 392.303 455.309 393.829 454.241 394.963L451.712 397.382C451.167 397.927 450.862 398.189 450.862 398.189C450.862 398.189 451.124 397.862 451.647 397.295L453.979 394.81C455.004 393.72 456.159 392.172 457.446 390.45C458.1 389.578 458.688 388.532 459.386 387.463L460.432 385.807L461.37 383.932C464.592 377.706 466.513 370.89 467.016 363.897C467.942 351.654 464.508 339.478 457.321 329.524C450.133 319.57 439.656 312.479 427.744 309.506C415.831 306.533 403.251 307.87 392.23 313.28C381.208 318.69 372.455 327.824 367.521 339.067C365.973 342.647 364.839 346.392 364.142 350.229C363.385 354.133 363.106 358.116 363.313 362.088C363.679 370.279 365.964 378.269 369.984 385.414L370.246 385.85L369.875 386.199L359.193 396.162L359.389 395.595C360.247 401.408 361.097 407.316 361.94 413.318L362.092 414.321L361.133 414.038L344.5 409.373L345.11 409.22L335.3 418.398L331.747 421.69L331.943 421.123C332.837 427.205 333.687 433.222 334.494 438.846L334.646 439.849L333.687 439.566L317.097 434.922L317.729 434.77L306.241 445.474L306.437 444.929C306.96 448.656 307.505 452.341 307.985 455.72L308.116 456.701L307.178 456.439L297.085 453.605L297.673 453.453L291.003 459.687L291.199 459.251C290.85 464.941 290.501 470.566 290.174 475.667L289.716 475.035L314.198 481.226L313.653 481.379L393.223 407.389L393.419 407.214L393.659 407.323C400.545 410.405 408.013 411.972 415.557 411.92C423.102 411.867 430.547 410.196 437.39 407.018C441.002 405.295 444.428 403.206 447.614 400.783L449.968 398.799L450.862 398.167Z" fill="#263238"/>
<path d="M446.044 394.069C448.633 391.298 450.995 388.323 453.108 385.174C455.499 381.442 457.314 377.37 458.492 373.097C460.103 367.433 460.614 361.513 459.996 355.657C459.28 348.58 456.913 341.77 453.086 335.775C448.677 328.912 442.523 323.344 435.253 319.643C431.36 317.616 427.175 316.204 422.849 315.457C420.624 315.042 418.374 314.779 416.113 314.672C413.804 314.637 411.496 314.754 409.202 315.021C399.571 316.126 390.548 320.29 383.458 326.901C376.367 333.513 371.584 342.224 369.81 351.755C369.382 354.023 369.106 356.317 368.981 358.622C368.936 360.886 369.046 363.152 369.308 365.401C369.748 369.77 370.866 374.043 372.622 378.067C375.805 385.58 380.938 392.105 387.49 396.968C393.193 401.214 399.818 404.053 406.826 405.252C412.604 406.276 418.525 406.18 424.266 404.969C428.612 404.077 432.8 402.541 436.692 400.413C439.979 398.534 443.107 396.391 446.044 394.003C446.044 394.003 445.892 394.2 445.521 394.527L443.886 396.009C443.011 396.812 442.07 397.541 441.074 398.189C439.764 399.181 438.379 400.07 436.932 400.849C433.031 403.083 428.811 404.708 424.419 405.666C413.818 408.034 402.723 406.616 393.059 401.658C383.395 396.701 375.771 388.516 371.51 378.525C369.691 374.37 368.529 369.957 368.066 365.445C367.441 360.839 367.581 356.162 368.48 351.602C370.29 341.795 375.204 332.829 382.497 326.027C389.79 319.225 399.075 314.946 408.984 313.822C413.652 313.222 418.386 313.384 423.002 314.302C427.442 315.1 431.736 316.57 435.733 318.662C443.177 322.481 449.463 328.225 453.936 335.295C457.468 340.91 459.764 347.211 460.674 353.781C461.584 360.351 461.085 367.04 459.212 373.402C457.955 377.726 456.035 381.83 453.522 385.567C452.658 386.953 451.681 388.265 450.601 389.491C449.875 390.441 449.073 391.33 448.203 392.15L446.611 393.676C446.262 393.916 446.066 394.09 446.044 394.069Z" fill="#263238"/>
<path d="M443.93 356.812C443.821 356.812 445.02 355.679 446.48 353.346C448.535 350.017 449.41 346.093 448.966 342.206C448.664 339.359 447.648 336.633 446.014 334.282C444.379 331.931 442.178 330.03 439.613 328.755C436.617 327.222 433.231 326.622 429.891 327.033C427.268 327.349 424.754 328.27 422.547 329.723C420.341 331.176 418.501 333.121 417.174 335.406C415.847 337.69 415.069 340.251 414.899 342.888C414.73 345.524 415.176 348.164 416.2 350.599C417.4 353.401 419.308 355.843 421.737 357.684C423.876 359.278 426.352 360.359 428.975 360.845C432.826 361.555 436.803 360.949 440.267 359.123C442.709 357.837 443.821 356.703 443.93 356.812C444.039 356.921 443.69 357.139 443.145 357.641C442.35 358.395 441.464 359.047 440.507 359.581C437.522 361.31 434.099 362.133 430.654 361.951C427.209 361.769 423.892 360.59 421.105 358.556C418.317 356.54 416.161 353.772 414.887 350.576C413.613 347.38 413.275 343.887 413.911 340.506C414.614 336.674 416.533 333.171 419.384 330.517C422.235 327.862 425.866 326.197 429.738 325.769C433.33 325.335 436.97 325.996 440.18 327.665C443.076 329.176 445.515 331.434 447.243 334.205C449.065 337.131 450.002 340.52 449.944 343.966C449.886 347.411 448.835 350.767 446.916 353.629C446.292 354.543 445.56 355.377 444.736 356.115C444.257 356.616 443.951 356.856 443.93 356.812Z" fill="#263238"/>
<path d="M307.702 478.893C307.462 478.632 325.338 461.453 347.661 440.721C369.984 419.989 388.274 403.247 388.514 403.508C388.754 403.77 370.878 420.948 348.555 441.68C326.232 462.412 307.941 479.155 307.702 478.893Z" fill="#263238"/>
<path d="M317.555 374.863L318.296 373.25L319.256 374.732C320.039 375.916 321.143 376.854 322.438 377.435L324.073 378.155L322.591 379.136C321.396 379.913 320.45 381.018 319.866 382.318L319.147 383.932L318.166 382.449C317.386 381.262 316.281 380.323 314.983 379.746L313.37 379.027L314.852 378.046C316.046 377.273 316.986 376.166 317.555 374.863Z" fill="#3B8AFF"/>
<path d="M268.919 362.742L269.334 361.804L269.9 362.655C270.349 363.349 270.994 363.896 271.753 364.224L272.691 364.66L271.819 365.227C271.134 365.678 270.59 366.312 270.249 367.058L269.835 368.017L269.268 367.145C268.819 366.451 268.174 365.904 267.415 365.576L266.478 365.14L267.328 364.595C268.019 364.135 268.569 363.494 268.919 362.742Z" fill="#3B8AFF"/>
<path d="M422.108 445.648L422.522 444.711L423.089 445.583C423.556 446.262 424.195 446.804 424.942 447.152L425.879 447.567L425.029 448.133C424.334 448.582 423.788 449.227 423.459 449.986L423.023 450.924L422.457 450.074C422.009 449.38 421.374 448.829 420.625 448.482L419.666 448.068L420.538 447.501C421.233 447.052 421.779 446.407 422.108 445.648Z" fill="#3B8AFF"/>
<path d="M497.1 403.138L497.819 401.524L498.8 403.007C499.579 404.195 500.684 405.134 501.983 405.71L503.596 406.429L502.114 407.41C500.925 408.189 499.986 409.294 499.411 410.593L498.67 412.207L497.71 410.724C496.921 409.545 495.819 408.609 494.528 408.021L492.893 407.301L494.375 406.32C495.57 405.543 496.516 404.438 497.1 403.138Z" fill="#3B8AFF"/>
<path d="M487.355 343.58L488.576 340.854L490.211 343.362C491.525 345.355 493.377 346.935 495.552 347.918L498.277 349.117L495.77 350.752C493.78 352.078 492.202 353.936 491.214 356.115L489.993 358.84L488.358 356.333C487.045 354.339 485.193 352.759 483.017 351.776L480.292 350.556L482.799 348.921C484.792 347.607 486.372 345.755 487.355 343.58Z" fill="#3B8AFF"/>
<path d="M302.448 325.224L303.668 322.499L305.303 324.984C306.611 326.983 308.464 328.564 310.644 329.54L313.369 330.761L310.884 332.396C308.88 333.697 307.296 335.552 306.328 337.737L305.107 340.462L303.472 337.977C302.162 335.972 300.299 334.39 298.109 333.421L295.406 332.2L297.891 330.565C299.89 329.258 301.472 327.404 302.448 325.224Z" fill="#3B8AFF"/>
<path d="M533.898 740.321C533.898 740.321 534.596 740.321 535.947 740.146C536.798 740.133 537.644 740.038 538.476 739.863L540.068 739.601L541.877 739.122C545.043 738.305 548.049 736.964 550.771 735.154C556.755 731.238 561.217 725.391 563.415 718.586C564.296 715.805 564.78 712.913 564.854 709.997C564.854 708.471 564.854 706.879 564.854 705.31L564.723 702.912C564.723 702.105 564.484 701.298 564.353 700.492C563.721 697.122 562.551 693.876 560.887 690.878C557.115 684.207 551.001 679.173 543.73 676.751C539.782 675.491 535.64 674.945 531.5 675.138H518.289L236.219 675.313C229.437 675.318 222.846 677.564 217.471 681.7C214.846 683.75 212.552 686.191 210.67 688.938C208.839 691.694 207.462 694.727 206.593 697.919C206.163 699.508 205.85 701.125 205.656 702.759C205.656 704.394 205.438 706.029 205.481 707.708C205.388 710.975 205.785 714.238 206.658 717.387C207.557 720.48 208.916 723.42 210.691 726.107C212.521 728.744 214.724 731.101 217.231 733.105C219.727 735.085 222.524 736.653 225.516 737.748C226.987 738.297 228.494 738.742 230.028 739.078C231.576 739.367 233.142 739.549 234.715 739.623C241.015 739.776 247.381 739.623 253.616 739.623H290.261L417.072 739.732L502.572 739.928L525.811 740.037H531.871H533.92C533.92 740.037 533.223 740.037 531.871 740.037H525.811L502.572 740.146L417.072 740.321L290.261 740.452H253.594C247.337 740.452 241.059 740.452 234.628 740.452C233.004 740.378 231.388 740.196 229.788 739.907C228.195 739.551 226.629 739.085 225.101 738.511C222.005 737.386 219.112 735.766 216.534 733.715C211.247 729.579 207.427 723.856 205.634 717.387C204.739 714.137 204.328 710.773 204.413 707.403C204.413 705.746 204.413 704.024 204.587 702.345C204.794 700.652 205.122 698.977 205.568 697.331C206.475 694.016 207.903 690.867 209.798 688C211.744 685.146 214.128 682.615 216.861 680.501C222.438 676.241 229.266 673.941 236.285 673.961L518.355 674.114H531.566C535.788 673.947 540.007 674.515 544.035 675.792C551.437 678.31 557.647 683.473 561.475 690.289C563.171 693.355 564.356 696.675 564.985 700.121L565.356 702.585C565.356 703.413 565.356 704.22 565.356 705.026C565.356 706.64 565.356 708.187 565.356 709.757C565.26 712.719 564.754 715.654 563.851 718.477C562.998 721.023 561.833 723.454 560.385 725.715C557.959 729.52 554.73 732.75 550.924 735.176C548.152 736.971 545.103 738.297 541.899 739.1L540.068 739.536L538.454 739.776C537.62 739.927 536.774 740.008 535.926 740.016L533.898 740.321Z" fill="#263238"/>
<path d="M533.898 754.338H236.198C218.92 754.338 204.915 768.344 204.915 785.622V788.608C204.915 805.885 218.92 819.891 236.198 819.891H533.898C551.176 819.891 565.181 805.885 565.181 788.608V785.622C565.181 768.344 551.176 754.338 533.898 754.338Z" fill="#3B8AFF"/>
<path d="M277.247 720.614C277.204 719.967 277.204 719.319 277.247 718.673C277.247 717.322 277.247 715.556 277.138 713.376C277.138 708.711 277.007 702.258 276.898 694.475L277.356 694.911L238.399 695.042L238.966 694.475V701.32C238.966 703.5 238.966 705.811 238.966 707.991C238.966 712.351 238.966 716.581 238.966 720.57L238.443 720.047L266.369 720.308L274.435 720.439H276.615H277.399C276.488 720.543 275.57 720.587 274.653 720.57L266.696 720.701L238.356 720.962H237.68V720.439C237.68 716.45 237.68 712.242 237.68 707.86C237.68 705.68 237.68 703.5 237.68 701.19V694.519C237.178 695.02 238.378 693.821 238.247 693.93L277.203 694.061H277.661V694.519C277.552 702.432 277.465 708.972 277.421 713.703C277.421 715.883 277.421 717.583 277.291 718.913C277.315 719.48 277.3 720.048 277.247 720.614Z" fill="#263238"/>
<path d="M277.247 694.475C275.561 696.35 273.739 698.099 271.797 699.707C268.353 702.846 263.513 707.097 258.15 711.763H257.3L257.169 711.654L256.908 711.436L256.406 711L255.425 710.149L253.507 708.471L249.866 705.266L243.762 699.816C241.82 698.208 239.998 696.459 238.312 694.584C240.396 695.932 242.371 697.441 244.22 699.097L250.477 704.372L254.161 707.512L256.101 709.168L257.104 710.04L257.583 710.476L257.845 710.673L257.976 710.782H257.3C262.685 706.138 267.59 702.062 271.187 698.988C273.084 697.326 275.111 695.817 277.247 694.475Z" fill="#263238"/>
<path d="M252.351 706.64C250.469 709.351 248.274 711.832 245.811 714.03C243.588 716.483 241.094 718.677 238.377 720.57C240.274 717.87 242.468 715.391 244.917 713.18C247.147 710.732 249.64 708.539 252.351 706.64Z" fill="#263238"/>
<path d="M277.247 720.614C274.65 718.553 272.301 716.198 270.249 713.594C267.918 711.243 265.857 708.64 264.102 705.833C266.692 707.901 269.039 710.256 271.099 712.853C273.438 715.197 275.501 717.8 277.247 720.614Z" fill="#263238"/>
<path d="M300.769 712.765V713.637H291.722V700.557H300.442V701.429H292.638V706.596H299.614V707.446H292.638V712.809L300.769 712.765Z" fill="#263238"/>
<path d="M320.018 707.926V713.637H319.081V707.991C319.081 705.811 317.926 704.612 316.029 704.612C315.533 704.59 315.038 704.676 314.578 704.864C314.118 705.051 313.704 705.336 313.365 705.698C313.025 706.06 312.768 706.492 312.611 706.963C312.453 707.434 312.4 707.934 312.454 708.427V713.637H311.517V707.991C311.517 705.811 310.361 704.612 308.465 704.612C307.968 704.59 307.473 704.676 307.014 704.864C306.554 705.051 306.14 705.336 305.8 705.698C305.461 706.06 305.203 706.492 305.046 706.963C304.889 707.434 304.835 707.934 304.889 708.427V713.637H303.952V703.849H304.846V706.029C305.183 705.334 305.719 704.755 306.388 704.366C307.056 703.978 307.824 703.798 308.595 703.849C309.369 703.785 310.142 703.982 310.79 704.409C311.438 704.835 311.924 705.468 312.171 706.204C312.52 705.464 313.082 704.845 313.785 704.425C314.487 704.006 315.299 703.805 316.116 703.849C316.654 703.81 317.193 703.891 317.697 704.084C318.2 704.278 318.654 704.58 319.026 704.97C319.399 705.359 319.681 705.826 319.853 706.337C320.024 706.848 320.081 707.39 320.018 707.926Z" fill="#263238"/>
<path d="M330.919 707.425V713.638H330.025V711.894C329.659 712.49 329.136 712.975 328.513 713.294C327.89 713.613 327.191 713.755 326.493 713.703C324.313 713.703 322.983 712.591 322.983 710.913C322.983 709.234 323.921 708.188 326.624 708.188H329.981V707.403C330.022 707.017 329.973 706.627 329.84 706.262C329.707 705.898 329.493 705.569 329.213 705.3C328.934 705.03 328.596 704.829 328.227 704.71C327.858 704.591 327.466 704.557 327.082 704.613C325.845 704.6 324.646 705.034 323.703 705.833L323.245 705.158C324.341 704.25 325.724 703.762 327.147 703.784C327.648 703.711 328.159 703.754 328.641 703.909C329.122 704.064 329.562 704.328 329.926 704.679C330.29 705.031 330.569 705.461 330.741 705.937C330.913 706.413 330.974 706.922 330.919 707.425ZM329.981 710.738V708.907H326.646C324.618 708.907 323.921 709.757 323.921 710.869C323.921 711.981 324.902 712.94 326.624 712.94C327.346 712.984 328.063 712.793 328.668 712.396C329.273 712 329.734 711.418 329.981 710.738Z" fill="#263238"/>
<path d="M334.472 700.732C334.472 700.632 334.492 700.532 334.53 700.44C334.568 700.347 334.625 700.263 334.695 700.192C334.766 700.121 334.85 700.065 334.943 700.027C335.036 699.988 335.135 699.969 335.235 699.969C335.386 699.969 335.533 700.014 335.659 700.097C335.784 700.181 335.882 700.3 335.94 700.44C335.998 700.579 336.013 700.733 335.983 700.881C335.954 701.029 335.881 701.165 335.774 701.271C335.668 701.378 335.532 701.451 335.384 701.48C335.236 701.51 335.082 701.494 334.943 701.437C334.804 701.379 334.684 701.281 334.601 701.156C334.517 701.03 334.472 700.883 334.472 700.732ZM334.755 703.849H335.78V713.637H334.843L334.755 703.849Z" fill="#263238"/>
<path d="M339.638 699.729H340.576V713.638H339.638V699.729Z" fill="#263238"/>
<path d="M313.261 795.911L309.729 790.962C309.25 790.995 308.769 790.995 308.29 790.962H304.061V795.802H303.08V781.065H308.377C312.083 781.065 314.329 782.918 314.329 786.057C314.379 787.11 314.06 788.148 313.427 788.991C312.794 789.835 311.888 790.432 310.863 790.679L314.569 795.845L313.261 795.911ZM308.29 790.134C311.451 790.134 313.152 788.651 313.152 786.123C313.152 783.594 311.451 782.09 308.29 782.09H304.061V790.134H308.29Z" fill="white"/>
<path d="M327.169 790.657H317.686C317.684 791.256 317.806 791.849 318.044 792.399C318.282 792.949 318.631 793.444 319.069 793.853C319.507 794.263 320.024 794.577 320.589 794.777C321.153 794.978 321.753 795.059 322.351 795.017C323.016 795.04 323.678 794.916 324.289 794.652C324.899 794.388 325.444 793.991 325.883 793.491L326.493 794.189C325.976 794.779 325.334 795.245 324.614 795.555C323.893 795.864 323.113 796.008 322.329 795.977C321.581 796.013 320.833 795.894 320.133 795.626C319.433 795.359 318.796 794.948 318.263 794.422C317.73 793.895 317.313 793.263 317.037 792.566C316.761 791.869 316.633 791.123 316.661 790.374C316.615 789.654 316.717 788.932 316.96 788.253C317.204 787.574 317.584 786.952 318.078 786.426C318.571 785.9 319.167 785.481 319.829 785.194C320.491 784.907 321.205 784.759 321.926 784.759C322.647 784.759 323.361 784.907 324.023 785.194C324.685 785.481 325.281 785.9 325.774 786.426C326.268 786.952 326.648 787.574 326.892 788.253C327.135 788.932 327.237 789.654 327.191 790.374C327.191 790.374 327.169 790.548 327.169 790.657ZM317.708 789.829H326.166C326.166 788.707 325.721 787.632 324.927 786.838C324.134 786.045 323.059 785.6 321.937 785.6C320.815 785.6 319.739 786.045 318.946 786.838C318.153 787.632 317.708 788.707 317.708 789.829Z" fill="white"/>
<path d="M328.848 794.582L329.327 793.731C330.468 794.597 331.862 795.064 333.295 795.061C335.627 795.061 336.565 794.255 336.565 792.99C336.565 789.786 329.24 792.162 329.24 787.824C329.24 786.167 330.635 784.815 333.426 784.815C334.768 784.79 336.087 785.162 337.219 785.883L336.717 786.734C335.745 786.062 334.586 785.711 333.404 785.731C331.224 785.731 330.308 786.625 330.308 787.802C330.308 791.115 337.611 788.783 337.611 792.99C337.611 794.778 336.063 795.999 333.251 795.999C331.664 796.048 330.108 795.547 328.848 794.582Z" fill="white"/>
<path d="M349.885 790.657H340.402C340.4 791.257 340.522 791.85 340.76 792.4C340.998 792.95 341.347 793.445 341.785 793.854C342.222 794.263 342.74 794.577 343.304 794.778C343.869 794.978 344.469 795.059 345.067 795.018C345.732 795.041 346.394 794.916 347.004 794.652C347.615 794.388 348.16 793.992 348.598 793.492L349.209 794.189C348.69 794.776 348.048 795.242 347.328 795.551C346.608 795.86 345.828 796.005 345.045 795.977C344.296 796.013 343.547 795.894 342.846 795.627C342.145 795.359 341.507 794.949 340.972 794.423C340.437 793.896 340.018 793.265 339.739 792.568C339.461 791.871 339.33 791.124 339.355 790.374C339.314 789.654 339.42 788.933 339.668 788.256C339.915 787.579 340.299 786.96 340.796 786.437C341.292 785.914 341.891 785.498 342.554 785.215C343.217 784.933 343.932 784.789 344.653 784.793C345.369 784.786 346.079 784.926 346.739 785.206C347.398 785.485 347.993 785.897 348.486 786.417C348.979 786.937 349.36 787.552 349.604 788.226C349.849 788.899 349.951 789.616 349.906 790.331C349.906 790.331 349.885 790.548 349.885 790.657ZM340.423 789.829H348.86C348.783 788.763 348.306 787.765 347.523 787.037C346.74 786.308 345.711 785.903 344.642 785.903C343.573 785.903 342.543 786.308 341.761 787.037C340.978 787.765 340.5 788.763 340.423 789.829Z" fill="white"/>
<path d="M358.648 795.214C358.037 795.724 357.265 796.002 356.468 795.999C356.064 796.04 355.655 795.99 355.273 795.854C354.89 795.717 354.543 795.496 354.256 795.208C353.97 794.919 353.752 794.57 353.618 794.187C353.484 793.803 353.437 793.394 353.481 792.99V785.796H351.454V784.88H353.481V782.482H354.528V784.88H358.038V785.796H354.528V792.903C354.528 794.32 355.226 795.083 356.577 795.083C357.207 795.101 357.821 794.884 358.299 794.473L358.648 795.214Z" fill="white"/>
<path d="M378.617 786.123C378.617 789.218 376.437 791.071 372.666 791.071H368.48V795.911H367.39V781.065H372.709C376.372 781.065 378.617 782.983 378.617 786.123ZM377.527 786.123C377.527 783.55 375.827 782.09 372.666 782.09H368.48V790.112H372.709C375.827 790.112 377.527 788.651 377.527 786.123Z" fill="white"/>
<path d="M389.779 788.913V795.911H388.754V793.949C388.35 794.627 387.764 795.178 387.063 795.54C386.362 795.902 385.573 796.061 384.786 795.998C382.323 795.998 380.819 794.734 380.819 792.859C380.819 790.984 381.865 789.764 384.939 789.764H388.71V788.892C388.758 788.455 388.705 788.014 388.556 787.601C388.407 787.188 388.165 786.815 387.85 786.51C387.534 786.205 387.153 785.976 386.735 785.841C386.318 785.706 385.875 785.668 385.44 785.731C384.041 785.714 382.684 786.211 381.625 787.126L381.102 786.363C382.331 785.355 383.873 784.807 385.462 784.815C386.031 784.725 386.612 784.767 387.162 784.937C387.711 785.108 388.214 785.403 388.632 785.799C389.049 786.195 389.37 786.682 389.569 787.222C389.767 787.762 389.839 788.341 389.779 788.913ZM388.71 792.663V790.592H384.961C382.672 790.592 381.865 791.551 381.865 792.772C381.865 793.993 382.977 795.083 384.939 795.083C385.744 795.139 386.546 794.934 387.226 794.498C387.905 794.062 388.426 793.419 388.71 792.663Z" fill="white"/>
<path d="M392.46 794.581L392.94 793.731C394.075 794.607 395.473 795.076 396.907 795.061C399.24 795.061 400.155 794.254 400.155 792.99C400.155 789.785 392.852 792.162 392.852 787.823C392.852 786.167 394.248 784.815 397.038 784.815C398.374 784.787 399.687 785.159 400.809 785.883L400.33 786.733C399.356 786.064 398.198 785.714 397.016 785.731C394.836 785.731 393.899 786.624 393.899 787.802C393.899 791.115 401.224 788.783 401.224 792.99C401.224 794.778 399.676 795.998 396.864 795.998C395.276 796.051 393.719 795.551 392.46 794.581Z" fill="white"/>
<path d="M402.597 794.582L403.077 793.731C404.218 794.597 405.612 795.064 407.044 795.061C409.377 795.061 410.314 794.255 410.314 792.99C410.314 789.786 402.989 792.162 402.989 787.824C402.989 786.167 404.385 784.815 407.175 784.815C408.517 784.79 409.836 785.162 410.968 785.883L410.467 786.734C409.494 786.062 408.335 785.711 407.153 785.731C404.973 785.731 404.058 786.625 404.058 787.802C404.058 791.115 411.361 788.783 411.361 792.99C411.361 794.778 409.813 795.999 407.001 795.999C405.413 796.048 403.858 795.547 402.597 794.582Z" fill="white"/>
<path d="M429.869 784.88L425.683 795.911H424.68L420.974 786.341L417.225 795.911H416.266L412.08 784.88H413.083L416.767 794.734L420.538 784.88H421.432L425.182 794.712L428.888 784.88H429.869Z" fill="white"/>
<path d="M430.806 790.396C430.824 789.308 431.162 788.25 431.78 787.354C432.397 786.458 433.265 785.765 434.276 785.361C435.286 784.958 436.394 784.862 437.458 785.087C438.523 785.311 439.497 785.845 440.259 786.622C441.021 787.399 441.536 788.384 441.739 789.452C441.943 790.521 441.825 791.626 441.402 792.629C440.979 793.631 440.269 794.486 439.361 795.086C438.453 795.685 437.388 796.003 436.3 795.999C435.563 796.021 434.83 795.89 434.146 795.615C433.463 795.34 432.843 794.926 432.327 794.4C431.811 793.873 431.41 793.246 431.148 792.557C430.886 791.868 430.77 791.132 430.806 790.396ZM440.747 790.396C440.692 789.548 440.39 788.735 439.879 788.056C439.367 787.377 438.669 786.863 437.869 786.576C437.069 786.289 436.202 786.242 435.376 786.441C434.55 786.64 433.8 787.076 433.218 787.695C432.636 788.315 432.248 789.091 432.102 789.928C431.955 790.765 432.056 791.627 432.393 792.407C432.73 793.187 433.287 793.852 433.997 794.32C434.706 794.788 435.537 795.038 436.387 795.04C436.984 795.041 437.575 794.919 438.124 794.683C438.672 794.446 439.166 794.099 439.575 793.664C439.984 793.229 440.299 792.714 440.5 792.152C440.702 791.59 440.786 790.992 440.747 790.396Z" fill="white"/>
<path d="M450.317 784.815V785.839H450.056C447.614 785.839 446.153 787.475 446.153 790.2V795.933H445.107V784.902H446.11V787.322C446.459 786.515 447.053 785.839 447.809 785.389C448.564 784.939 449.441 784.738 450.317 784.815Z" fill="white"/>
<path d="M462.917 780.237V795.911H461.893V793.317C461.472 794.145 460.824 794.837 460.025 795.312C459.226 795.787 458.309 796.025 457.38 795.998C455.958 795.909 454.622 795.282 453.646 794.243C452.67 793.204 452.127 791.832 452.127 790.407C452.127 788.981 452.67 787.609 453.646 786.57C454.622 785.532 455.958 784.904 457.38 784.815C458.3 784.791 459.209 785.026 460.003 785.492C460.796 785.958 461.444 786.637 461.871 787.453V780.237H462.917ZM461.871 790.396C461.816 789.548 461.514 788.734 461.002 788.055C460.491 787.377 459.792 786.862 458.992 786.575C458.193 786.288 457.326 786.241 456.5 786.44C455.674 786.639 454.924 787.075 454.342 787.695C453.76 788.314 453.372 789.09 453.226 789.927C453.079 790.765 453.18 791.626 453.517 792.407C453.854 793.187 454.411 793.852 455.121 794.32C455.83 794.787 456.661 795.037 457.511 795.039C458.108 795.04 458.699 794.919 459.248 794.682C459.796 794.446 460.29 794.099 460.699 793.664C461.108 793.228 461.422 792.714 461.624 792.151C461.826 791.589 461.91 790.992 461.871 790.396Z" fill="white"/>
<path d="M603.571 227.516C603.571 227.821 502.79 228.082 378.486 228.082C254.183 228.082 153.401 227.821 153.401 227.516C153.401 227.21 254.161 226.949 378.486 226.949C502.811 226.949 603.571 227.21 603.571 227.516Z" fill="#263238"/>
<path d="M178.82 209.639C178.816 210.721 178.491 211.776 177.887 212.673C177.283 213.57 176.427 214.268 175.427 214.679C174.427 215.09 173.327 215.195 172.267 214.982C171.207 214.768 170.234 214.245 169.471 213.479C168.708 212.713 168.189 211.738 167.98 210.677C167.771 209.616 167.88 208.517 168.295 207.519C168.71 206.52 169.411 205.667 170.311 205.066C171.21 204.466 172.267 204.146 173.348 204.146C174.069 204.146 174.782 204.288 175.447 204.564C176.113 204.841 176.717 205.246 177.225 205.756C177.733 206.267 178.136 206.872 178.41 207.539C178.683 208.205 178.823 208.919 178.82 209.639Z" fill="#263238"/>
<path d="M194.647 209.639C194.642 210.721 194.318 211.776 193.714 212.673C193.11 213.57 192.254 214.268 191.254 214.679C190.254 215.09 189.154 215.195 188.094 214.982C187.034 214.768 186.061 214.245 185.298 213.479C184.535 212.713 184.016 211.738 183.807 210.677C183.597 209.616 183.707 208.517 184.122 207.519C184.537 206.52 185.238 205.667 186.137 205.066C187.037 204.466 188.094 204.146 189.175 204.146C189.895 204.146 190.609 204.288 191.274 204.564C191.939 204.841 192.543 205.246 193.052 205.756C193.56 206.267 193.963 206.872 194.236 207.539C194.51 208.205 194.65 208.919 194.647 209.639Z" fill="#263238"/>
<path d="M210.386 209.639C210.382 210.723 210.056 211.782 209.449 212.68C208.842 213.578 207.982 214.276 206.978 214.685C205.974 215.094 204.871 215.195 203.81 214.976C202.748 214.757 201.775 214.228 201.015 213.455C200.254 212.683 199.741 211.701 199.539 210.636C199.337 209.571 199.456 208.47 199.881 207.473C200.305 206.475 201.017 205.627 201.925 205.034C202.833 204.442 203.896 204.133 204.98 204.146C206.424 204.163 207.802 204.75 208.815 205.779C209.827 206.808 210.392 208.196 210.386 209.639Z" fill="#263238"/>
<path d="M604.378 875.896C604.378 871.231 604.16 594.805 603.855 192.722L604.378 193.246H153.576L154.142 192.679C154.142 450.488 154.142 688.175 154.012 875.852L153.576 875.416L604.421 875.852L153.576 876.31H153.118V875.852C153.118 688.175 153.118 450.488 153.009 192.679V192.112H153.619H604.421H604.945V192.635C604.596 594.805 604.378 871.253 604.378 875.896Z" fill="#263238"/>
</g>
</g>
<defs>
<clipPath id="clip0_2020_1138">
<rect width="708" height="1024" fill="white"/>
</clipPath>
<clipPath id="clip1_2020_1138">
<rect width="623" height="845" fill="white" transform="translate(1 90)"/>
</clipPath>
</defs>
</svg>
