<svg width="708" height="1024" viewBox="0 0 708 1024" fill="none" xmlns="http://www.w3.org/2000/svg">
<g clip-path="url(#clip0_2018_76)">
<rect width="708" height="1024" fill="#3B8AFF"/>
<path fill-rule="evenodd" clip-rule="evenodd" d="M644.884 -337.924C730.741 -336.585 828.159 -324.753 878.449 -255.153C925.861 -189.536 878.764 -102.368 873.453 -21.5885C868.768 49.6868 888.602 123.298 849.635 183.162C802.053 256.262 730.835 344.396 644.884 329.563C558.776 314.703 560.694 186.141 500.401 122.894C443.279 62.9729 330.238 58.72 310.136 -21.5885C288.379 -108.508 338.795 -201.014 403.918 -262.555C467.506 -322.645 557.405 -339.288 644.884 -337.924Z" fill="#62A1FF"/>
<path d="M301.401 589.355L184.674 521.963C182.003 520.432 179.718 518.311 177.99 515.762C176.263 513.213 175.14 510.303 174.707 507.253C174.255 504.168 174.513 501.02 175.461 498.048C176.409 495.077 178.022 492.36 180.177 490.106C216.883 451.311 243.953 404.423 259.197 353.237C260.072 350.243 261.619 347.489 263.718 345.182C265.817 342.876 268.415 341.078 271.312 339.927C274.17 338.777 277.252 338.295 280.323 338.516C283.394 338.738 286.374 339.657 289.035 341.204L405.762 408.596C409.959 411.036 413.153 414.889 414.775 419.467C416.397 424.045 416.342 429.052 414.619 433.596C393.436 488.053 364.049 538.952 327.479 584.526C324.406 588.29 320.097 590.841 315.321 591.726C310.546 592.61 305.612 591.77 301.401 589.355Z" fill="#62A1FF"/>
<path d="M276.437 498.563C295.031 509.298 318.816 502.913 329.561 484.302C340.306 465.69 333.944 441.9 315.35 431.164C296.756 420.429 272.971 426.814 262.226 445.426C251.48 464.037 257.843 487.828 276.437 498.563Z" fill="#C2DBFF"/>
<path d="M314.533 469.764L302.823 463.003L309.59 451.282C310.263 450.116 310.446 448.731 310.098 447.431C309.751 446.131 308.901 445.023 307.737 444.351C306.572 443.678 305.187 443.497 303.888 443.846C302.588 444.194 301.48 445.045 300.807 446.211L294.04 457.933L282.329 451.171C281.165 450.499 279.78 450.317 278.481 450.666C277.181 451.015 276.073 451.866 275.4 453.032C274.727 454.197 274.544 455.583 274.892 456.882C275.24 458.182 276.089 459.29 277.254 459.963L288.964 466.724L282.197 478.445C281.524 479.611 281.341 480.996 281.689 482.296C282.036 483.596 282.886 484.704 284.051 485.376C285.215 486.049 286.6 486.23 287.899 485.881C289.199 485.533 290.307 484.682 290.98 483.516L297.747 471.794L309.458 478.555C310.622 479.228 312.007 479.41 313.306 479.061C314.606 478.712 315.714 477.861 316.387 476.695C317.06 475.53 317.243 474.144 316.895 472.845C316.548 471.545 315.698 470.437 314.533 469.764Z" fill="#62A1FF"/>
<g opacity="0.5">
<path d="M736.094 752.268L596.577 786.947C593.525 787.716 590.337 787.777 587.257 787.127C584.177 786.477 581.286 785.133 578.803 783.196C576.28 781.245 574.234 778.744 572.822 775.883C571.411 773.022 570.67 769.876 570.656 766.686C570.114 709.58 556.148 653.398 529.889 602.685C528.408 599.86 527.591 596.734 527.499 593.545C527.407 590.356 528.043 587.188 529.359 584.283C530.646 581.409 532.571 578.867 534.989 576.851C537.406 574.834 540.251 573.396 543.308 572.646L682.826 537.966C687.646 536.783 692.73 537.351 697.173 539.568C701.616 541.786 705.129 545.509 707.086 550.076C731.106 607.486 746.206 668.234 751.862 730.208C752.27 735.16 750.91 740.095 748.022 744.135C745.135 748.174 740.908 751.056 736.094 752.268Z" fill="#A5C9FF"/>
<path d="M545.92 583.154C544.452 583.513 543.085 584.203 541.924 585.171C540.763 586.139 539.838 587.36 539.219 588.74C538.58 590.155 538.273 591.697 538.319 593.249C538.366 594.802 538.766 596.323 539.488 597.698C566.532 649.926 580.915 707.787 581.473 766.599C581.478 768.152 581.836 769.683 582.522 771.076C583.207 772.47 584.201 773.688 585.427 774.639C586.62 775.569 588.01 776.215 589.489 776.527C590.969 776.839 592.499 776.809 593.965 776.439L733.482 741.76C735.796 741.185 737.83 739.808 739.223 737.872C740.616 735.937 741.277 733.569 741.089 731.191C735.533 670.314 720.701 610.644 697.107 554.251C696.16 552.061 694.467 550.279 692.33 549.221C690.193 548.163 687.75 547.898 685.437 548.474L545.92 583.154Z" fill="#3B8AFF"/>
<path d="M674.08 632.836L600.867 651.035C598.083 651.723 595.14 651.279 592.682 649.798C590.224 648.317 588.454 645.922 587.758 643.137L586.737 639.031C586.048 636.244 586.491 633.298 587.97 630.839C589.448 628.38 591.841 626.609 594.623 625.914L667.836 607.716C670.62 607.027 673.564 607.472 676.021 608.952C678.479 610.433 680.25 612.828 680.945 615.613L681.966 619.72C682.655 622.506 682.212 625.452 680.734 627.911C679.255 630.37 676.863 632.141 674.08 632.836Z" fill="#A5C9FF"/>
<path d="M686.977 684.719L613.764 702.917C610.98 703.606 608.036 703.161 605.579 701.68C603.121 700.2 601.35 697.804 600.655 695.019L599.634 690.913C598.945 688.127 599.388 685.181 600.866 682.722C602.344 680.263 604.737 678.492 607.52 677.797L680.733 659.598C683.516 658.909 686.46 659.354 688.918 660.835C691.375 662.315 693.146 664.711 693.842 667.496L694.862 671.602C695.552 674.389 695.109 677.335 693.63 679.794C692.152 682.253 689.759 684.024 686.977 684.719Z" fill="#A5C9FF"/>
<path d="M657.291 567.133L583.807 585.399C581.719 585.915 579.511 585.582 577.668 584.471C575.825 583.361 574.496 581.564 573.975 579.475L570.492 565.465C569.975 563.375 570.307 561.166 571.416 559.321C572.525 557.477 574.32 556.149 576.407 555.627L649.891 537.361C651.979 536.845 654.186 537.179 656.03 538.289C657.873 539.4 659.201 541.196 659.723 543.285L663.205 557.295C663.722 559.385 663.39 561.595 662.281 563.439C661.172 565.283 659.378 566.612 657.291 567.133Z" fill="#62A1FF"/>
</g>
<g opacity="0.6">
<path d="M184.87 335.059L15.6607 377.119C11.9591 378.051 8.09353 378.126 4.35805 377.338C0.622559 376.549 -2.88444 374.918 -5.89601 372.569C-8.95601 370.203 -11.4366 367.17 -13.1489 363.7C-14.8612 360.23 -15.76 356.415 -15.777 352.546C-16.434 283.288 -33.3715 215.149 -65.2192 153.644C-67.0151 150.217 -68.0065 146.425 -68.118 142.558C-68.2295 138.69 -67.4581 134.849 -65.8625 131.325C-64.3013 127.84 -61.9659 124.757 -59.0342 122.311C-56.1026 119.865 -52.6518 118.121 -48.9445 117.212L120.265 75.1516C126.111 73.7162 132.277 74.4046 137.666 77.0942C143.054 79.7838 147.314 84.2998 149.688 89.8381C178.82 159.466 197.133 233.141 203.992 308.306C204.488 314.311 202.838 320.296 199.336 325.195C195.834 330.095 190.708 333.59 184.87 335.059Z" fill="#A5C9FF"/>
<path d="M-45.7768 129.955C-47.5573 130.392 -49.2147 131.229 -50.623 132.403C-52.0313 133.577 -53.1533 135.057 -53.9038 136.73C-54.6783 138.447 -55.0515 140.317 -54.9949 142.2C-54.9383 144.082 -54.4535 145.928 -53.5773 147.595C-20.7779 210.938 -3.3343 281.113 -2.65769 352.441C-2.65179 354.324 -2.21667 356.181 -1.38551 357.871C-0.554352 359.561 0.650883 361.039 2.13861 362.192C3.58509 363.32 5.27079 364.104 7.06486 364.482C8.85892 364.86 10.7153 364.824 12.4929 364.375L181.702 322.315C184.508 321.619 186.975 319.948 188.665 317.601C190.354 315.253 191.156 312.382 190.927 309.497C184.189 235.665 166.2 163.296 137.586 94.9021C136.437 92.2462 134.384 90.0841 131.792 88.801C129.2 87.5178 126.238 87.1968 123.432 87.8951L-45.7768 129.955Z" fill="#3B8AFF"/>
<path d="M109.658 190.211L20.8643 212.282C17.4879 213.118 13.9178 212.578 10.9372 210.783C7.95657 208.987 5.80888 206.081 4.96538 202.704L3.72752 197.724C2.89139 194.344 3.42877 190.771 5.22172 187.789C7.01467 184.807 9.91673 182.659 13.2912 181.816L102.085 159.744C105.461 158.909 109.032 159.448 112.012 161.244C114.993 163.04 117.141 165.945 117.984 169.323L119.222 174.303C120.058 177.683 119.521 181.255 117.728 184.238C115.935 187.22 113.033 189.368 109.658 190.211Z" fill="#A5C9FF"/>
<path d="M125.299 253.135L36.5053 275.206C33.1289 276.042 29.5588 275.502 26.5782 273.707C23.5975 271.911 21.4499 269.005 20.6064 265.628L19.3685 260.648C18.5324 257.268 19.0697 253.695 20.8627 250.713C22.6556 247.731 25.5577 245.583 28.9322 244.74L117.726 222.668C121.102 221.833 124.673 222.372 127.653 224.168C130.634 225.964 132.782 228.869 133.625 232.247L134.863 237.227C135.699 240.607 135.162 244.179 133.369 247.162C131.576 250.144 128.674 252.292 125.299 253.135Z" fill="#A5C9FF"/>
<path d="M89.2956 110.525L0.172864 132.678C-2.35949 133.305 -5.03713 132.9 -7.27266 131.553C-9.5082 130.207 -11.1191 128.027 -11.7518 125.494L-15.9754 108.502C-16.6024 105.968 -16.1993 103.288 -14.8546 101.051C-13.5098 98.8144 -11.3333 97.2032 -8.80233 96.571L80.3204 74.4178C82.8527 73.7914 85.5304 74.196 87.7659 75.5429C90.0015 76.8897 91.6123 79.0688 92.245 81.6021L96.4687 98.5938C97.0957 101.129 96.6926 103.808 95.3478 106.045C94.0031 108.282 91.8265 109.893 89.2956 110.525Z" fill="#62A1FF"/>
</g>
<path d="M145.336 150V123.818H162.364V127.794H150.079V134.902H161.482V138.878H150.079V146.024H162.466V150H145.336ZM171.929 150.396C170.685 150.396 169.564 150.175 168.567 149.732C167.578 149.28 166.794 148.615 166.214 147.737C165.643 146.859 165.358 145.777 165.358 144.49C165.358 143.382 165.562 142.466 165.971 141.741C166.381 141.017 166.939 140.438 167.646 140.003C168.354 139.568 169.15 139.24 170.037 139.018C170.932 138.788 171.856 138.622 172.811 138.52C173.962 138.401 174.895 138.294 175.611 138.2C176.327 138.098 176.846 137.945 177.17 137.74C177.503 137.527 177.669 137.199 177.669 136.756V136.679C177.669 135.716 177.383 134.97 176.812 134.442C176.241 133.913 175.419 133.649 174.345 133.649C173.212 133.649 172.312 133.896 171.648 134.391C170.991 134.885 170.548 135.469 170.318 136.142L165.997 135.528C166.338 134.335 166.9 133.338 167.685 132.537C168.469 131.727 169.427 131.122 170.561 130.722C171.695 130.312 172.947 130.108 174.32 130.108C175.266 130.108 176.207 130.219 177.145 130.44C178.082 130.662 178.939 131.028 179.714 131.54C180.49 132.043 181.112 132.729 181.581 133.598C182.058 134.467 182.297 135.554 182.297 136.858V150H177.848V147.303H177.695C177.413 147.848 177.017 148.359 176.506 148.837C176.003 149.305 175.368 149.685 174.601 149.974C173.842 150.256 172.952 150.396 171.929 150.396ZM173.131 146.996C174.06 146.996 174.865 146.812 175.547 146.446C176.229 146.071 176.753 145.577 177.119 144.963C177.494 144.349 177.682 143.68 177.682 142.956V140.642C177.537 140.761 177.29 140.872 176.94 140.974C176.599 141.077 176.216 141.166 175.79 141.243C175.364 141.32 174.942 141.388 174.524 141.447C174.106 141.507 173.744 141.558 173.437 141.601C172.747 141.695 172.129 141.848 171.584 142.061C171.038 142.274 170.608 142.572 170.293 142.956C169.977 143.331 169.82 143.817 169.82 144.413C169.82 145.266 170.131 145.909 170.753 146.344C171.375 146.778 172.168 146.996 173.131 146.996ZM201.75 135.554L197.531 136.014C197.412 135.588 197.203 135.188 196.905 134.812C196.615 134.438 196.223 134.135 195.729 133.905C195.234 133.675 194.629 133.56 193.913 133.56C192.95 133.56 192.141 133.768 191.484 134.186C190.837 134.604 190.517 135.145 190.526 135.81C190.517 136.381 190.726 136.845 191.152 137.203C191.587 137.561 192.303 137.855 193.3 138.085L196.649 138.801C198.507 139.202 199.888 139.837 200.791 140.706C201.703 141.575 202.163 142.713 202.172 144.119C202.163 145.355 201.801 146.446 201.085 147.392C200.378 148.33 199.394 149.062 198.132 149.591C196.871 150.119 195.422 150.384 193.786 150.384C191.382 150.384 189.448 149.881 187.982 148.875C186.516 147.861 185.642 146.45 185.361 144.643L189.874 144.209C190.078 145.095 190.513 145.764 191.178 146.216C191.842 146.668 192.707 146.893 193.773 146.893C194.872 146.893 195.754 146.668 196.419 146.216C197.092 145.764 197.429 145.206 197.429 144.541C197.429 143.979 197.212 143.514 196.777 143.148C196.351 142.781 195.686 142.5 194.783 142.304L191.433 141.601C189.55 141.209 188.156 140.548 187.253 139.619C186.35 138.682 185.902 137.497 185.911 136.065C185.902 134.855 186.23 133.807 186.895 132.92C187.568 132.026 188.501 131.335 189.695 130.849C190.896 130.355 192.281 130.108 193.85 130.108C196.151 130.108 197.962 130.598 199.283 131.578C200.612 132.558 201.435 133.884 201.75 135.554ZM205.268 150V130.364H209.896V150H205.268ZM207.595 127.577C206.862 127.577 206.231 127.334 205.703 126.848C205.174 126.354 204.91 125.761 204.91 125.071C204.91 124.372 205.174 123.78 205.703 123.294C206.231 122.8 206.862 122.553 207.595 122.553C208.336 122.553 208.967 122.8 209.487 123.294C210.015 123.78 210.279 124.372 210.279 125.071C210.279 125.761 210.015 126.354 209.487 126.848C208.967 127.334 208.336 127.577 207.595 127.577ZM218.563 123.818V150H213.935V123.818H218.563ZM225.478 157.364C224.847 157.364 224.263 157.313 223.726 157.21C223.198 157.116 222.776 157.006 222.461 156.878L223.535 153.273C224.208 153.469 224.809 153.563 225.337 153.554C225.866 153.545 226.33 153.379 226.731 153.055C227.14 152.74 227.485 152.212 227.766 151.47L228.163 150.409L221.042 130.364H225.951L230.476 145.193H230.681L235.219 130.364H240.141L232.279 152.378C231.913 153.418 231.427 154.308 230.822 155.05C230.216 155.8 229.475 156.371 228.597 156.763C227.728 157.163 226.688 157.364 225.478 157.364ZM251.038 123.818H256.842L264.615 142.79H264.921L272.694 123.818H278.498V150H273.947V132.013H273.704L266.468 149.923H263.068L255.832 131.974H255.589V150H251.038V123.818ZM288.389 150.396C287.145 150.396 286.024 150.175 285.027 149.732C284.038 149.28 283.254 148.615 282.674 147.737C282.103 146.859 281.818 145.777 281.818 144.49C281.818 143.382 282.022 142.466 282.431 141.741C282.841 141.017 283.399 140.438 284.106 140.003C284.814 139.568 285.61 139.24 286.497 139.018C287.392 138.788 288.316 138.622 289.271 138.52C290.422 138.401 291.355 138.294 292.071 138.2C292.787 138.098 293.306 137.945 293.63 137.74C293.963 137.527 294.129 137.199 294.129 136.756V136.679C294.129 135.716 293.843 134.97 293.272 134.442C292.701 133.913 291.879 133.649 290.805 133.649C289.672 133.649 288.772 133.896 288.108 134.391C287.451 134.885 287.008 135.469 286.778 136.142L282.457 135.528C282.798 134.335 283.36 133.338 284.145 132.537C284.929 131.727 285.887 131.122 287.021 130.722C288.155 130.312 289.407 130.108 290.78 130.108C291.726 130.108 292.667 130.219 293.605 130.44C294.542 130.662 295.399 131.028 296.174 131.54C296.95 132.043 297.572 132.729 298.041 133.598C298.518 134.467 298.757 135.554 298.757 136.858V150H294.308V147.303H294.155C293.873 147.848 293.477 148.359 292.966 148.837C292.463 149.305 291.828 149.685 291.061 149.974C290.302 150.256 289.412 150.396 288.389 150.396ZM289.591 146.996C290.52 146.996 291.325 146.812 292.007 146.446C292.689 146.071 293.213 145.577 293.579 144.963C293.954 144.349 294.142 143.68 294.142 142.956V140.642C293.997 140.761 293.75 140.872 293.4 140.974C293.059 141.077 292.676 141.166 292.25 141.243C291.824 141.32 291.402 141.388 290.984 141.447C290.566 141.507 290.204 141.558 289.897 141.601C289.207 141.695 288.589 141.848 288.044 142.061C287.498 142.274 287.068 142.572 286.753 142.956C286.437 143.331 286.28 143.817 286.28 144.413C286.28 145.266 286.591 145.909 287.213 146.344C287.835 146.778 288.628 146.996 289.591 146.996ZM307.318 138.494V150H302.69V130.364H307.113V133.7H307.344C307.795 132.601 308.515 131.727 309.504 131.08C310.501 130.432 311.733 130.108 313.199 130.108C314.554 130.108 315.734 130.398 316.74 130.977C317.754 131.557 318.538 132.396 319.092 133.496C319.655 134.595 319.932 135.929 319.923 137.497V150H315.295V138.213C315.295 136.901 314.954 135.874 314.273 135.132C313.599 134.391 312.666 134.02 311.473 134.02C310.663 134.02 309.943 134.199 309.312 134.557C308.69 134.906 308.2 135.413 307.842 136.078C307.493 136.743 307.318 137.548 307.318 138.494ZM329.558 150.396C328.314 150.396 327.193 150.175 326.196 149.732C325.207 149.28 324.423 148.615 323.844 147.737C323.273 146.859 322.987 145.777 322.987 144.49C322.987 143.382 323.192 142.466 323.601 141.741C324.01 141.017 324.568 140.438 325.276 140.003C325.983 139.568 326.78 139.24 327.666 139.018C328.561 138.788 329.486 138.622 330.44 138.52C331.591 138.401 332.524 138.294 333.24 138.2C333.956 138.098 334.476 137.945 334.8 137.74C335.132 137.527 335.298 137.199 335.298 136.756V136.679C335.298 135.716 335.013 134.97 334.442 134.442C333.871 133.913 333.048 133.649 331.974 133.649C330.841 133.649 329.942 133.896 329.277 134.391C328.621 134.885 328.178 135.469 327.947 136.142L323.626 135.528C323.967 134.335 324.53 133.338 325.314 132.537C326.098 131.727 327.057 131.122 328.19 130.722C329.324 130.312 330.577 130.108 331.949 130.108C332.895 130.108 333.837 130.219 334.774 130.44C335.712 130.662 336.568 131.028 337.344 131.54C338.119 132.043 338.741 132.729 339.21 133.598C339.688 134.467 339.926 135.554 339.926 136.858V150H335.477V147.303H335.324C335.043 147.848 334.646 148.359 334.135 148.837C333.632 149.305 332.997 149.685 332.23 149.974C331.472 150.256 330.581 150.396 329.558 150.396ZM330.76 146.996C331.689 146.996 332.494 146.812 333.176 146.446C333.858 146.071 334.382 145.577 334.749 144.963C335.124 144.349 335.311 143.68 335.311 142.956V140.642C335.166 140.761 334.919 140.872 334.57 140.974C334.229 141.077 333.845 141.166 333.419 141.243C332.993 141.32 332.571 141.388 332.153 141.447C331.736 141.507 331.374 141.558 331.067 141.601C330.376 141.695 329.759 141.848 329.213 142.061C328.668 142.274 328.237 142.572 327.922 142.956C327.607 143.331 327.449 143.817 327.449 144.413C327.449 145.266 327.76 145.909 328.382 146.344C329.004 146.778 329.797 146.996 330.76 146.996ZM352.399 157.773C350.737 157.773 349.31 157.547 348.117 157.095C346.923 156.652 345.965 156.055 345.24 155.305C344.516 154.555 344.013 153.724 343.732 152.812L347.899 151.803C348.087 152.186 348.36 152.565 348.718 152.94C349.075 153.324 349.557 153.639 350.162 153.886C350.776 154.142 351.547 154.27 352.476 154.27C353.789 154.27 354.875 153.95 355.736 153.311C356.597 152.68 357.027 151.641 357.027 150.192V146.472H356.797C356.558 146.949 356.209 147.439 355.749 147.942C355.297 148.445 354.696 148.866 353.946 149.207C353.205 149.548 352.271 149.719 351.146 149.719C349.638 149.719 348.27 149.365 347.043 148.658C345.824 147.942 344.852 146.876 344.128 145.462C343.412 144.038 343.054 142.257 343.054 140.118C343.054 137.962 343.412 136.142 344.128 134.659C344.852 133.168 345.828 132.038 347.056 131.271C348.283 130.496 349.651 130.108 351.159 130.108C352.31 130.108 353.256 130.304 353.997 130.696C354.747 131.08 355.344 131.544 355.787 132.089C356.23 132.626 356.567 133.134 356.797 133.611H357.053V130.364H361.617V150.32C361.617 151.999 361.216 153.388 360.415 154.487C359.614 155.587 358.519 156.409 357.129 156.955C355.74 157.5 354.164 157.773 352.399 157.773ZM352.438 146.088C353.418 146.088 354.253 145.849 354.943 145.372C355.634 144.895 356.158 144.209 356.516 143.314C356.874 142.419 357.053 141.345 357.053 140.092C357.053 138.857 356.874 137.774 356.516 136.845C356.166 135.916 355.646 135.196 354.956 134.685C354.274 134.165 353.435 133.905 352.438 133.905C351.406 133.905 350.546 134.173 349.855 134.71C349.165 135.247 348.645 135.984 348.296 136.922C347.946 137.851 347.771 138.908 347.771 140.092C347.771 141.294 347.946 142.347 348.296 143.25C348.654 144.145 349.178 144.844 349.868 145.347C350.567 145.841 351.423 146.088 352.438 146.088ZM374.333 150.384C372.364 150.384 370.664 149.974 369.232 149.156C367.809 148.33 366.713 147.162 365.946 145.653C365.179 144.136 364.796 142.351 364.796 140.297C364.796 138.277 365.179 136.504 365.946 134.979C366.722 133.445 367.804 132.251 369.194 131.399C370.583 130.538 372.215 130.108 374.09 130.108C375.3 130.108 376.442 130.304 377.516 130.696C378.598 131.08 379.553 131.676 380.38 132.486C381.215 133.295 381.871 134.327 382.348 135.58C382.826 136.824 383.064 138.307 383.064 140.028V141.447H366.969V138.328H378.628C378.62 137.442 378.428 136.653 378.053 135.963C377.678 135.264 377.154 134.714 376.48 134.314C375.816 133.913 375.04 133.713 374.154 133.713C373.208 133.713 372.377 133.943 371.661 134.403C370.945 134.855 370.387 135.452 369.986 136.193C369.594 136.926 369.394 137.732 369.385 138.609V141.332C369.385 142.474 369.594 143.455 370.012 144.273C370.429 145.082 371.013 145.705 371.763 146.139C372.513 146.565 373.391 146.778 374.397 146.778C375.07 146.778 375.679 146.685 376.225 146.497C376.77 146.301 377.243 146.016 377.644 145.641C378.044 145.266 378.347 144.801 378.551 144.247L382.873 144.733C382.6 145.875 382.08 146.872 381.313 147.724C380.554 148.568 379.583 149.224 378.398 149.693C377.213 150.153 375.858 150.384 374.333 150.384ZM404.274 130.364V133.943H392.986V130.364H404.274ZM395.773 125.659H400.401V144.094C400.401 144.716 400.495 145.193 400.682 145.526C400.878 145.849 401.134 146.071 401.449 146.19C401.765 146.31 402.114 146.369 402.497 146.369C402.787 146.369 403.051 146.348 403.29 146.305C403.537 146.263 403.725 146.224 403.853 146.19L404.632 149.808C404.385 149.893 404.032 149.987 403.571 150.089C403.12 150.192 402.566 150.251 401.909 150.268C400.75 150.303 399.706 150.128 398.777 149.744C397.848 149.352 397.111 148.747 396.566 147.929C396.029 147.111 395.765 146.088 395.773 144.861V125.659ZM413.075 150.396C411.831 150.396 410.71 150.175 409.713 149.732C408.725 149.28 407.941 148.615 407.361 147.737C406.79 146.859 406.504 145.777 406.504 144.49C406.504 143.382 406.709 142.466 407.118 141.741C407.527 141.017 408.085 140.438 408.793 140.003C409.5 139.568 410.297 139.24 411.183 139.018C412.078 138.788 413.003 138.622 413.958 138.52C415.108 138.401 416.041 138.294 416.757 138.2C417.473 138.098 417.993 137.945 418.317 137.74C418.649 137.527 418.816 137.199 418.816 136.756V136.679C418.816 135.716 418.53 134.97 417.959 134.442C417.388 133.913 416.566 133.649 415.492 133.649C414.358 133.649 413.459 133.896 412.794 134.391C412.138 134.885 411.695 135.469 411.465 136.142L407.144 135.528C407.485 134.335 408.047 133.338 408.831 132.537C409.615 131.727 410.574 131.122 411.708 130.722C412.841 130.312 414.094 130.108 415.466 130.108C416.412 130.108 417.354 130.219 418.291 130.44C419.229 130.662 420.085 131.028 420.861 131.54C421.637 132.043 422.259 132.729 422.727 133.598C423.205 134.467 423.443 135.554 423.443 136.858V150H418.995V147.303H418.841C418.56 147.848 418.164 148.359 417.652 148.837C417.149 149.305 416.514 149.685 415.747 149.974C414.989 150.256 414.098 150.396 413.075 150.396ZM414.277 146.996C415.206 146.996 416.012 146.812 416.693 146.446C417.375 146.071 417.899 145.577 418.266 144.963C418.641 144.349 418.828 143.68 418.828 142.956V140.642C418.683 140.761 418.436 140.872 418.087 140.974C417.746 141.077 417.362 141.166 416.936 141.243C416.51 141.32 416.088 141.388 415.671 141.447C415.253 141.507 414.891 141.558 414.584 141.601C413.894 141.695 413.276 141.848 412.73 142.061C412.185 142.274 411.754 142.572 411.439 142.956C411.124 143.331 410.966 143.817 410.966 144.413C410.966 145.266 411.277 145.909 411.899 146.344C412.521 146.778 413.314 146.996 414.277 146.996ZM442.897 135.554L438.678 136.014C438.559 135.588 438.35 135.188 438.051 134.812C437.762 134.438 437.37 134.135 436.875 133.905C436.381 133.675 435.776 133.56 435.06 133.56C434.097 133.56 433.287 133.768 432.631 134.186C431.983 134.604 431.664 135.145 431.672 135.81C431.664 136.381 431.872 136.845 432.299 137.203C432.733 137.561 433.449 137.855 434.446 138.085L437.796 138.801C439.654 139.202 441.034 139.837 441.938 140.706C442.85 141.575 443.31 142.713 443.319 144.119C443.31 145.355 442.948 146.446 442.232 147.392C441.524 148.33 440.54 149.062 439.279 149.591C438.017 150.119 436.569 150.384 434.932 150.384C432.529 150.384 430.594 149.881 429.128 148.875C427.662 147.861 426.789 146.45 426.507 144.643L431.02 144.209C431.225 145.095 431.659 145.764 432.324 146.216C432.989 146.668 433.854 146.893 434.919 146.893C436.019 146.893 436.901 146.668 437.566 146.216C438.239 145.764 438.576 145.206 438.576 144.541C438.576 143.979 438.358 143.514 437.924 143.148C437.497 142.781 436.833 142.5 435.929 142.304L432.58 141.601C430.696 141.209 429.303 140.548 428.399 139.619C427.496 138.682 427.049 137.497 427.057 136.065C427.049 134.855 427.377 133.807 428.042 132.92C428.715 132.026 429.648 131.335 430.841 130.849C432.043 130.355 433.428 130.108 434.996 130.108C437.297 130.108 439.108 130.598 440.429 131.578C441.759 132.558 442.581 133.884 442.897 135.554ZM450.633 143.838L450.621 138.251H451.362L458.419 130.364H463.827L455.146 140.028H454.187L450.633 143.838ZM446.415 150V123.818H451.042V150H446.415ZM458.738 150L452.346 141.064L455.466 137.804L464.274 150H458.738ZM482.224 150.384C480.434 150.384 478.896 150.06 477.609 149.412C476.322 148.764 475.329 147.891 474.63 146.791C473.94 145.683 473.595 144.435 473.595 143.045C473.595 141.997 473.808 141.068 474.234 140.259C474.669 139.449 475.265 138.699 476.024 138.009C476.791 137.318 477.677 136.632 478.683 135.95L483.324 132.793C484.005 132.349 484.521 131.881 484.871 131.386C485.228 130.892 485.407 130.312 485.407 129.648C485.407 129.085 485.169 128.553 484.692 128.05C484.223 127.547 483.575 127.295 482.748 127.295C482.194 127.295 481.704 127.428 481.278 127.692C480.861 127.947 480.532 128.284 480.294 128.702C480.064 129.119 479.949 129.562 479.949 130.031C479.949 130.602 480.106 131.182 480.422 131.77C480.746 132.358 481.163 132.967 481.675 133.598C482.194 134.229 482.748 134.898 483.336 135.605L495.622 150H490.611L480.409 138.315C479.65 137.429 478.917 136.555 478.21 135.695C477.511 134.834 476.936 133.939 476.484 133.01C476.041 132.072 475.819 131.058 475.819 129.967C475.819 128.732 476.105 127.628 476.676 126.656C477.247 125.676 478.044 124.905 479.067 124.342C480.098 123.78 481.304 123.499 482.684 123.499C484.065 123.499 485.25 123.771 486.238 124.317C487.227 124.862 487.99 125.587 488.527 126.49C489.064 127.393 489.332 128.378 489.332 129.443C489.332 130.679 489.025 131.787 488.412 132.767C487.798 133.739 486.946 134.621 485.855 135.413L480.562 139.287C479.693 139.918 479.071 140.557 478.696 141.205C478.321 141.844 478.133 142.389 478.133 142.841C478.133 143.531 478.308 144.158 478.657 144.72C479.007 145.283 479.497 145.734 480.128 146.075C480.767 146.408 481.513 146.574 482.365 146.574C483.302 146.574 484.227 146.365 485.139 145.947C486.051 145.521 486.882 144.916 487.632 144.132C488.382 143.348 488.978 142.411 489.422 141.32C489.865 140.22 490.086 139.001 490.086 137.663H494.062C494.062 139.317 493.879 140.757 493.513 141.984C493.146 143.203 492.673 144.234 492.094 145.078C491.514 145.913 490.9 146.582 490.253 147.085C490.048 147.23 489.852 147.375 489.665 147.52C489.477 147.665 489.281 147.81 489.076 147.955C488.156 148.79 487.078 149.403 485.842 149.795C484.615 150.188 483.409 150.384 482.224 150.384ZM511.412 150.396C510.167 150.396 509.047 150.175 508.049 149.732C507.061 149.28 506.277 148.615 505.697 147.737C505.126 146.859 504.841 145.777 504.841 144.49C504.841 143.382 505.045 142.466 505.454 141.741C505.863 141.017 506.422 140.438 507.129 140.003C507.836 139.568 508.633 139.24 509.52 139.018C510.415 138.788 511.339 138.622 512.294 138.52C513.444 138.401 514.378 138.294 515.094 138.2C515.809 138.098 516.329 137.945 516.653 137.74C516.986 137.527 517.152 137.199 517.152 136.756V136.679C517.152 135.716 516.866 134.97 516.295 134.442C515.724 133.913 514.902 133.649 513.828 133.649C512.694 133.649 511.795 133.896 511.13 134.391C510.474 134.885 510.031 135.469 509.801 136.142L505.48 135.528C505.821 134.335 506.383 133.338 507.167 132.537C507.951 131.727 508.91 131.122 510.044 130.722C511.177 130.312 512.43 130.108 513.802 130.108C514.748 130.108 515.69 130.219 516.628 130.44C517.565 130.662 518.422 131.028 519.197 131.54C519.973 132.043 520.595 132.729 521.064 133.598C521.541 134.467 521.78 135.554 521.78 136.858V150H517.331V147.303H517.177C516.896 147.848 516.5 148.359 515.988 148.837C515.486 149.305 514.851 149.685 514.084 149.974C513.325 150.256 512.434 150.396 511.412 150.396ZM512.613 146.996C513.542 146.996 514.348 146.812 515.03 146.446C515.711 146.071 516.236 145.577 516.602 144.963C516.977 144.349 517.165 143.68 517.165 142.956V140.642C517.02 140.761 516.773 140.872 516.423 140.974C516.082 141.077 515.699 141.166 515.273 141.243C514.846 141.32 514.424 141.388 514.007 141.447C513.589 141.507 513.227 141.558 512.92 141.601C512.23 141.695 511.612 141.848 511.067 142.061C510.521 142.274 510.091 142.572 509.775 142.956C509.46 143.331 509.302 143.817 509.302 144.413C509.302 145.266 509.613 145.909 510.236 146.344C510.858 146.778 511.65 146.996 512.613 146.996ZM533 150.345C531.457 150.345 530.077 149.949 528.858 149.156C527.639 148.364 526.676 147.213 525.969 145.705C525.261 144.196 524.908 142.364 524.908 140.207C524.908 138.026 525.266 136.185 525.981 134.685C526.706 133.176 527.682 132.038 528.909 131.271C530.136 130.496 531.504 130.108 533.013 130.108C534.163 130.108 535.109 130.304 535.851 130.696C536.592 131.08 537.18 131.544 537.615 132.089C538.05 132.626 538.386 133.134 538.625 133.611H538.817V123.818H543.457V150H538.906V146.906H538.625C538.386 147.384 538.041 147.891 537.589 148.428C537.138 148.956 536.541 149.408 535.8 149.783C535.058 150.158 534.125 150.345 533 150.345ZM534.291 146.548C535.271 146.548 536.106 146.284 536.797 145.756C537.487 145.219 538.011 144.473 538.369 143.518C538.727 142.564 538.906 141.452 538.906 140.182C538.906 138.912 538.727 137.808 538.369 136.871C538.02 135.933 537.5 135.205 536.81 134.685C536.128 134.165 535.288 133.905 534.291 133.905C533.26 133.905 532.399 134.173 531.709 134.71C531.018 135.247 530.498 135.989 530.149 136.935C529.8 137.881 529.625 138.963 529.625 140.182C529.625 141.409 529.8 142.504 530.149 143.467C530.507 144.422 531.031 145.176 531.722 145.73C532.42 146.276 533.277 146.548 534.291 146.548ZM554.956 150.345C553.413 150.345 552.032 149.949 550.814 149.156C549.595 148.364 548.632 147.213 547.924 145.705C547.217 144.196 546.863 142.364 546.863 140.207C546.863 138.026 547.221 136.185 547.937 134.685C548.662 133.176 549.638 132.038 550.865 131.271C552.092 130.496 553.46 130.108 554.969 130.108C556.119 130.108 557.065 130.304 557.807 130.696C558.548 131.08 559.136 131.544 559.571 132.089C560.005 132.626 560.342 133.134 560.581 133.611H560.772V123.818H565.413V150H560.862V146.906H560.581C560.342 147.384 559.997 147.891 559.545 148.428C559.094 148.956 558.497 149.408 557.755 149.783C557.014 150.158 556.081 150.345 554.956 150.345ZM556.247 146.548C557.227 146.548 558.062 146.284 558.753 145.756C559.443 145.219 559.967 144.473 560.325 143.518C560.683 142.564 560.862 141.452 560.862 140.182C560.862 138.912 560.683 137.808 560.325 136.871C559.976 135.933 559.456 135.205 558.765 134.685C558.084 134.165 557.244 133.905 556.247 133.905C555.216 133.905 554.355 134.173 553.665 134.71C552.974 135.247 552.454 135.989 552.105 136.935C551.755 137.881 551.581 138.963 551.581 140.182C551.581 141.409 551.755 142.504 552.105 143.467C552.463 144.422 552.987 145.176 553.677 145.73C554.376 146.276 555.233 146.548 556.247 146.548ZM328.964 167.818V194H324.745L312.408 176.166H312.191V194H307.448V167.818H311.692L324.016 185.665H324.246V167.818H328.964ZM341.773 194.384C339.855 194.384 338.193 193.962 336.787 193.118C335.381 192.274 334.29 191.094 333.514 189.577C332.747 188.06 332.363 186.287 332.363 184.259C332.363 182.23 332.747 180.453 333.514 178.928C334.29 177.402 335.381 176.217 336.787 175.374C338.193 174.53 339.855 174.108 341.773 174.108C343.69 174.108 345.352 174.53 346.758 175.374C348.165 176.217 349.251 177.402 350.018 178.928C350.794 180.453 351.182 182.23 351.182 184.259C351.182 186.287 350.794 188.06 350.018 189.577C349.251 191.094 348.165 192.274 346.758 193.118C345.352 193.962 343.69 194.384 341.773 194.384ZM341.798 190.676C342.838 190.676 343.707 190.391 344.406 189.82C345.105 189.24 345.625 188.464 345.966 187.493C346.315 186.521 346.49 185.439 346.49 184.246C346.49 183.044 346.315 181.957 345.966 180.986C345.625 180.006 345.105 179.226 344.406 178.646C343.707 178.067 342.838 177.777 341.798 177.777C340.733 177.777 339.846 178.067 339.139 178.646C338.44 179.226 337.916 180.006 337.567 180.986C337.226 181.957 337.055 183.044 337.055 184.246C337.055 185.439 337.226 186.521 337.567 187.493C337.916 188.464 338.44 189.24 339.139 189.82C339.846 190.391 340.733 190.676 341.798 190.676ZM364.195 174.364V177.943H352.907V174.364H364.195ZM355.694 169.659H360.321V188.094C360.321 188.716 360.415 189.193 360.603 189.526C360.799 189.849 361.054 190.071 361.37 190.19C361.685 190.31 362.034 190.369 362.418 190.369C362.708 190.369 362.972 190.348 363.211 190.305C363.458 190.263 363.645 190.224 363.773 190.19L364.553 193.808C364.306 193.893 363.952 193.987 363.492 194.089C363.04 194.192 362.486 194.251 361.83 194.268C360.671 194.303 359.627 194.128 358.698 193.744C357.769 193.352 357.032 192.747 356.486 191.929C355.949 191.111 355.685 190.088 355.694 188.861V169.659ZM375.828 194.384C373.859 194.384 372.159 193.974 370.727 193.156C369.303 192.33 368.208 191.162 367.441 189.653C366.674 188.136 366.291 186.351 366.291 184.297C366.291 182.277 366.674 180.504 367.441 178.979C368.217 177.445 369.299 176.251 370.688 175.399C372.078 174.538 373.71 174.108 375.585 174.108C376.795 174.108 377.937 174.304 379.011 174.696C380.093 175.08 381.048 175.676 381.874 176.486C382.71 177.295 383.366 178.327 383.843 179.58C384.32 180.824 384.559 182.307 384.559 184.028V185.447H368.464V182.328H380.123C380.115 181.442 379.923 180.653 379.548 179.963C379.173 179.264 378.649 178.714 377.975 178.314C377.311 177.913 376.535 177.713 375.649 177.713C374.703 177.713 373.872 177.943 373.156 178.403C372.44 178.855 371.882 179.452 371.481 180.193C371.089 180.926 370.889 181.732 370.88 182.609V185.332C370.88 186.474 371.089 187.455 371.507 188.273C371.924 189.082 372.508 189.705 373.258 190.139C374.008 190.565 374.886 190.778 375.892 190.778C376.565 190.778 377.174 190.685 377.72 190.497C378.265 190.301 378.738 190.016 379.139 189.641C379.539 189.266 379.842 188.801 380.046 188.247L384.367 188.733C384.095 189.875 383.575 190.872 382.808 191.724C382.049 192.568 381.078 193.224 379.893 193.693C378.708 194.153 377.353 194.384 375.828 194.384ZM403.274 179.554L399.055 180.014C398.936 179.588 398.727 179.188 398.429 178.812C398.139 178.438 397.747 178.135 397.253 177.905C396.759 177.675 396.153 177.56 395.437 177.56C394.474 177.56 393.665 177.768 393.009 178.186C392.361 178.604 392.041 179.145 392.05 179.81C392.041 180.381 392.25 180.845 392.676 181.203C393.111 181.561 393.827 181.855 394.824 182.085L398.173 182.801C400.031 183.202 401.412 183.837 402.315 184.706C403.227 185.575 403.687 186.713 403.696 188.119C403.687 189.355 403.325 190.446 402.609 191.392C401.902 192.33 400.918 193.062 399.656 193.591C398.395 194.119 396.946 194.384 395.31 194.384C392.906 194.384 390.972 193.881 389.506 192.875C388.04 191.861 387.166 190.45 386.885 188.643L391.398 188.209C391.602 189.095 392.037 189.764 392.702 190.216C393.366 190.668 394.232 190.893 395.297 190.893C396.396 190.893 397.278 190.668 397.943 190.216C398.616 189.764 398.953 189.206 398.953 188.541C398.953 187.979 398.736 187.514 398.301 187.148C397.875 186.781 397.21 186.5 396.307 186.304L392.957 185.601C391.074 185.209 389.68 184.548 388.777 183.619C387.874 182.682 387.426 181.497 387.435 180.065C387.426 178.855 387.754 177.807 388.419 176.92C389.092 176.026 390.026 175.335 391.219 174.849C392.42 174.355 393.805 174.108 395.374 174.108C397.675 174.108 399.486 174.598 400.807 175.578C402.136 176.558 402.959 177.884 403.274 179.554Z" fill="white"/>
<path d="M260.556 248V234.909H268.405V236.315H262.141V240.739H267.817V242.145H262.141V248H260.556ZM270.81 248V238.182H272.268V239.665H272.37C272.549 239.179 272.873 238.785 273.342 238.482C273.81 238.18 274.339 238.028 274.927 238.028C275.038 238.028 275.176 238.031 275.342 238.035C275.509 238.039 275.634 238.045 275.719 238.054V239.588C275.668 239.575 275.551 239.556 275.368 239.531C275.189 239.501 274.999 239.486 274.799 239.486C274.322 239.486 273.896 239.586 273.521 239.786C273.15 239.982 272.856 240.255 272.638 240.604C272.425 240.95 272.319 241.344 272.319 241.787V248H270.81ZM281.325 248.205C280.379 248.205 279.563 247.996 278.877 247.578C278.195 247.156 277.669 246.568 277.298 245.814C276.932 245.055 276.749 244.173 276.749 243.168C276.749 242.162 276.932 241.276 277.298 240.509C277.669 239.737 278.185 239.136 278.845 238.706C279.51 238.271 280.286 238.054 281.172 238.054C281.683 238.054 282.188 238.139 282.687 238.31C283.185 238.48 283.639 238.757 284.048 239.141C284.457 239.52 284.783 240.023 285.026 240.649C285.269 241.276 285.391 242.047 285.391 242.963V243.602H277.822V242.298H283.857C283.857 241.744 283.746 241.25 283.524 240.815C283.307 240.381 282.996 240.038 282.591 239.786C282.19 239.535 281.717 239.409 281.172 239.409C280.571 239.409 280.051 239.558 279.612 239.857C279.178 240.151 278.843 240.534 278.609 241.007C278.374 241.48 278.257 241.987 278.257 242.528V243.398C278.257 244.139 278.385 244.768 278.641 245.283C278.901 245.795 279.261 246.185 279.721 246.453C280.181 246.717 280.716 246.849 281.325 246.849C281.722 246.849 282.08 246.794 282.399 246.683C282.723 246.568 283.002 246.398 283.237 246.172C283.471 245.942 283.652 245.656 283.78 245.315L285.237 245.724C285.084 246.219 284.826 246.653 284.464 247.028C284.102 247.399 283.654 247.689 283.121 247.898C282.589 248.102 281.99 248.205 281.325 248.205ZM291.802 248.205C290.856 248.205 290.04 247.996 289.354 247.578C288.672 247.156 288.146 246.568 287.775 245.814C287.408 245.055 287.225 244.173 287.225 243.168C287.225 242.162 287.408 241.276 287.775 240.509C288.146 239.737 288.661 239.136 289.322 238.706C289.987 238.271 290.762 238.054 291.648 238.054C292.16 238.054 292.665 238.139 293.163 238.31C293.662 238.48 294.116 238.757 294.525 239.141C294.934 239.52 295.26 240.023 295.503 240.649C295.746 241.276 295.867 242.047 295.867 242.963V243.602H288.299V242.298H294.333C294.333 241.744 294.222 241.25 294.001 240.815C293.783 240.381 293.472 240.038 293.067 239.786C292.667 239.535 292.194 239.409 291.648 239.409C291.048 239.409 290.528 239.558 290.089 239.857C289.654 240.151 289.32 240.534 289.085 241.007C288.851 241.48 288.734 241.987 288.734 242.528V243.398C288.734 244.139 288.862 244.768 289.117 245.283C289.377 245.795 289.737 246.185 290.197 246.453C290.658 246.717 291.192 246.849 291.802 246.849C292.198 246.849 292.556 246.794 292.876 246.683C293.2 246.568 293.479 246.398 293.713 246.172C293.947 245.942 294.129 245.656 294.256 245.315L295.714 245.724C295.56 246.219 295.303 246.653 294.94 247.028C294.578 247.399 294.131 247.689 293.598 247.898C293.065 248.102 292.467 248.205 291.802 248.205ZM299.261 248.102C298.946 248.102 298.675 247.989 298.45 247.763C298.224 247.538 298.111 247.267 298.111 246.952C298.111 246.636 298.224 246.366 298.45 246.14C298.675 245.914 298.946 245.801 299.261 245.801C299.577 245.801 299.847 245.914 300.073 246.14C300.299 246.366 300.412 246.636 300.412 246.952C300.412 247.161 300.359 247.352 300.252 247.527C300.15 247.702 300.011 247.842 299.837 247.949C299.666 248.051 299.474 248.102 299.261 248.102ZM316.977 234.909H318.562V243.577C318.562 244.472 318.351 245.271 317.929 245.974C317.512 246.673 316.922 247.224 316.159 247.629C315.396 248.03 314.501 248.23 313.474 248.23C312.447 248.23 311.552 248.03 310.789 247.629C310.027 247.224 309.434 246.673 309.012 245.974C308.595 245.271 308.386 244.472 308.386 243.577V234.909H309.971V243.449C309.971 244.088 310.112 244.657 310.393 245.156C310.674 245.65 311.075 246.04 311.595 246.325C312.119 246.607 312.745 246.747 313.474 246.747C314.203 246.747 314.829 246.607 315.353 246.325C315.877 246.04 316.278 245.65 316.555 245.156C316.836 244.657 316.977 244.088 316.977 243.449V234.909ZM323.032 242.094V248H321.523V238.182H322.981V239.716H323.108C323.339 239.217 323.688 238.817 324.157 238.514C324.626 238.207 325.231 238.054 325.972 238.054C326.637 238.054 327.219 238.19 327.717 238.463C328.216 238.732 328.604 239.141 328.881 239.69C329.157 240.236 329.296 240.926 329.296 241.761V248H327.787V241.864C327.787 241.092 327.587 240.491 327.187 240.061C326.786 239.626 326.236 239.409 325.537 239.409C325.056 239.409 324.626 239.513 324.246 239.722C323.871 239.931 323.575 240.236 323.358 240.636C323.14 241.037 323.032 241.523 323.032 242.094ZM333.561 234.909V248H332.053V234.909H333.561ZM336.324 248V238.182H337.833V248H336.324ZM337.091 236.545C336.797 236.545 336.544 236.445 336.33 236.245C336.122 236.045 336.017 235.804 336.017 235.523C336.017 235.241 336.122 235.001 336.33 234.8C336.544 234.6 336.797 234.5 337.091 234.5C337.385 234.5 337.637 234.6 337.845 234.8C338.058 235.001 338.165 235.241 338.165 235.523C338.165 235.804 338.058 236.045 337.845 236.245C337.637 236.445 337.385 236.545 337.091 236.545ZM340.596 248V238.182H342.053V239.716H342.181C342.385 239.192 342.716 238.785 343.172 238.495C343.627 238.201 344.175 238.054 344.814 238.054C345.462 238.054 346.001 238.201 346.431 238.495C346.866 238.785 347.205 239.192 347.448 239.716H347.55C347.801 239.209 348.179 238.806 348.681 238.508C349.184 238.205 349.787 238.054 350.49 238.054C351.368 238.054 352.086 238.329 352.645 238.879C353.203 239.424 353.482 240.274 353.482 241.429V248H351.973V241.429C351.973 240.705 351.775 240.187 351.379 239.876C350.983 239.565 350.516 239.409 349.979 239.409C349.289 239.409 348.754 239.618 348.375 240.036C347.995 240.449 347.806 240.973 347.806 241.608V248H346.272V241.276C346.272 240.717 346.091 240.268 345.728 239.927C345.366 239.582 344.9 239.409 344.328 239.409C343.936 239.409 343.57 239.513 343.229 239.722C342.892 239.931 342.62 240.221 342.411 240.592C342.206 240.958 342.104 241.382 342.104 241.864V248H340.596ZM356.24 248V238.182H357.749V248H356.24ZM357.007 236.545C356.713 236.545 356.46 236.445 356.246 236.245C356.038 236.045 355.933 235.804 355.933 235.523C355.933 235.241 356.038 235.001 356.246 234.8C356.46 234.6 356.713 234.5 357.007 234.5C357.301 234.5 357.553 234.6 357.761 234.8C357.974 235.001 358.081 235.241 358.081 235.523C358.081 235.804 357.974 236.045 357.761 236.245C357.553 236.445 357.301 236.545 357.007 236.545ZM364.781 238.182V239.46H359.693V238.182H364.781ZM361.176 235.83H362.685V245.188C362.685 245.614 362.747 245.933 362.87 246.146C362.998 246.355 363.16 246.496 363.356 246.568C363.556 246.636 363.767 246.67 363.989 246.67C364.155 246.67 364.291 246.662 364.398 246.645C364.504 246.624 364.59 246.607 364.654 246.594L364.96 247.949C364.858 247.987 364.715 248.026 364.532 248.064C364.349 248.107 364.117 248.128 363.835 248.128C363.409 248.128 362.992 248.036 362.583 247.853C362.178 247.67 361.841 247.391 361.573 247.016C361.308 246.641 361.176 246.168 361.176 245.597V235.83ZM371.062 248.205C370.116 248.205 369.3 247.996 368.613 247.578C367.932 247.156 367.405 246.568 367.035 245.814C366.668 245.055 366.485 244.173 366.485 243.168C366.485 242.162 366.668 241.276 367.035 240.509C367.405 239.737 367.921 239.136 368.581 238.706C369.246 238.271 370.022 238.054 370.908 238.054C371.42 238.054 371.925 238.139 372.423 238.31C372.922 238.48 373.376 238.757 373.785 239.141C374.194 239.52 374.52 240.023 374.763 240.649C375.006 241.276 375.127 242.047 375.127 242.963V243.602H367.559V242.298H373.593C373.593 241.744 373.482 241.25 373.26 240.815C373.043 240.381 372.732 240.038 372.327 239.786C371.927 239.535 371.454 239.409 370.908 239.409C370.307 239.409 369.787 239.558 369.349 239.857C368.914 240.151 368.579 240.534 368.345 241.007C368.111 241.48 367.993 241.987 367.993 242.528V243.398C367.993 244.139 368.121 244.768 368.377 245.283C368.637 245.795 368.997 246.185 369.457 246.453C369.917 246.717 370.452 246.849 371.062 246.849C371.458 246.849 371.816 246.794 372.135 246.683C372.459 246.568 372.738 246.398 372.973 246.172C373.207 245.942 373.388 245.656 373.516 245.315L374.974 245.724C374.82 246.219 374.562 246.653 374.2 247.028C373.838 247.399 373.39 247.689 372.858 247.898C372.325 248.102 371.726 248.205 371.062 248.205ZM381.129 248.205C380.311 248.205 379.589 247.998 378.962 247.585C378.336 247.167 377.846 246.579 377.492 245.82C377.138 245.058 376.961 244.156 376.961 243.116C376.961 242.085 377.138 241.19 377.492 240.432C377.846 239.673 378.338 239.087 378.969 238.674C379.599 238.261 380.328 238.054 381.155 238.054C381.794 238.054 382.299 238.161 382.67 238.374C383.045 238.582 383.33 238.821 383.526 239.089C383.726 239.354 383.882 239.571 383.993 239.741H384.121V234.909H385.629V248H384.172V246.491H383.993C383.882 246.67 383.724 246.896 383.52 247.169C383.315 247.437 383.023 247.678 382.644 247.891C382.265 248.1 381.76 248.205 381.129 248.205ZM381.334 246.849C381.939 246.849 382.45 246.692 382.868 246.376C383.285 246.057 383.603 245.616 383.82 245.053C384.037 244.487 384.146 243.832 384.146 243.091C384.146 242.358 384.04 241.717 383.827 241.167C383.613 240.613 383.298 240.183 382.881 239.876C382.463 239.565 381.947 239.409 381.334 239.409C380.694 239.409 380.162 239.573 379.736 239.901C379.314 240.225 378.996 240.666 378.783 241.224C378.574 241.778 378.47 242.401 378.47 243.091C378.47 243.79 378.577 244.425 378.79 244.996C379.007 245.562 379.327 246.014 379.748 246.351C380.175 246.683 380.703 246.849 381.334 246.849ZM389.701 248.102C389.385 248.102 389.115 247.989 388.889 247.763C388.663 247.538 388.55 247.267 388.55 246.952C388.55 246.636 388.663 246.366 388.889 246.14C389.115 245.914 389.385 245.801 389.701 245.801C390.016 245.801 390.287 245.914 390.513 246.14C390.738 246.366 390.851 246.636 390.851 246.952C390.851 247.161 390.798 247.352 390.692 247.527C390.589 247.702 390.451 247.842 390.276 247.949C390.106 248.051 389.914 248.102 389.701 248.102ZM409.871 241.455C409.871 242.835 409.622 244.028 409.123 245.034C408.624 246.04 407.941 246.815 407.071 247.361C406.202 247.906 405.209 248.179 404.093 248.179C402.976 248.179 401.983 247.906 401.114 247.361C400.244 246.815 399.561 246.04 399.062 245.034C398.563 244.028 398.314 242.835 398.314 241.455C398.314 240.074 398.563 238.881 399.062 237.875C399.561 236.869 400.244 236.094 401.114 235.548C401.983 235.003 402.976 234.73 404.093 234.73C405.209 234.73 406.202 235.003 407.071 235.548C407.941 236.094 408.624 236.869 409.123 237.875C409.622 238.881 409.871 240.074 409.871 241.455ZM408.337 241.455C408.337 240.321 408.147 239.364 407.768 238.585C407.393 237.805 406.884 237.214 406.24 236.814C405.601 236.413 404.885 236.213 404.093 236.213C403.3 236.213 402.582 236.413 401.938 236.814C401.299 237.214 400.79 237.805 400.411 238.585C400.036 239.364 399.848 240.321 399.848 241.455C399.848 242.588 400.036 243.545 400.411 244.325C400.79 245.104 401.299 245.695 401.938 246.095C402.582 246.496 403.3 246.696 404.093 246.696C404.885 246.696 405.601 246.496 406.24 246.095C406.884 245.695 407.393 245.104 407.768 244.325C408.147 243.545 408.337 242.588 408.337 241.455ZM413.84 242.094V248H412.332V238.182H413.789V239.716H413.917C414.147 239.217 414.497 238.817 414.965 238.514C415.434 238.207 416.039 238.054 416.781 238.054C417.445 238.054 418.027 238.19 418.526 238.463C419.024 238.732 419.412 239.141 419.689 239.69C419.966 240.236 420.105 240.926 420.105 241.761V248H418.596V241.864C418.596 241.092 418.396 240.491 417.995 240.061C417.595 239.626 417.045 239.409 416.346 239.409C415.865 239.409 415.434 239.513 415.055 239.722C414.68 239.931 414.384 240.236 414.166 240.636C413.949 241.037 413.84 241.523 413.84 242.094ZM424.37 234.909V248H422.861V234.909H424.37ZM427.133 248V238.182H428.641V248H427.133ZM427.9 236.545C427.606 236.545 427.352 236.445 427.139 236.245C426.93 236.045 426.826 235.804 426.826 235.523C426.826 235.241 426.93 235.001 427.139 234.8C427.352 234.6 427.606 234.5 427.9 234.5C428.194 234.5 428.445 234.6 428.654 234.8C428.867 235.001 428.974 235.241 428.974 235.523C428.974 235.804 428.867 236.045 428.654 236.245C428.445 236.445 428.194 236.545 427.9 236.545ZM432.913 242.094V248H431.404V238.182H432.862V239.716H432.989C433.219 239.217 433.569 238.817 434.038 238.514C434.506 238.207 435.112 238.054 435.853 238.054C436.518 238.054 437.099 238.19 437.598 238.463C438.097 238.732 438.484 239.141 438.761 239.69C439.038 240.236 439.177 240.926 439.177 241.761V248H437.668V241.864C437.668 241.092 437.468 240.491 437.067 240.061C436.667 239.626 436.117 239.409 435.418 239.409C434.937 239.409 434.506 239.513 434.127 239.722C433.752 239.931 433.456 240.236 433.239 240.636C433.021 241.037 432.913 241.523 432.913 242.094ZM446.05 248.205C445.104 248.205 444.288 247.996 443.602 247.578C442.92 247.156 442.394 246.568 442.023 245.814C441.656 245.055 441.473 244.173 441.473 243.168C441.473 242.162 441.656 241.276 442.023 240.509C442.394 239.737 442.909 239.136 443.57 238.706C444.235 238.271 445.01 238.054 445.896 238.054C446.408 238.054 446.913 238.139 447.411 238.31C447.91 238.48 448.364 238.757 448.773 239.141C449.182 239.52 449.508 240.023 449.751 240.649C449.994 241.276 450.115 242.047 450.115 242.963V243.602H442.547V242.298H448.581C448.581 241.744 448.47 241.25 448.249 240.815C448.031 240.381 447.72 240.038 447.316 239.786C446.915 239.535 446.442 239.409 445.896 239.409C445.296 239.409 444.776 239.558 444.337 239.857C443.902 240.151 443.568 240.534 443.333 241.007C443.099 241.48 442.982 241.987 442.982 242.528V243.398C442.982 244.139 443.11 244.768 443.365 245.283C443.625 245.795 443.985 246.185 444.445 246.453C444.906 246.717 445.441 246.849 446.05 246.849C446.446 246.849 446.804 246.794 447.124 246.683C447.448 246.568 447.727 246.398 447.961 246.172C448.195 245.942 448.377 245.656 448.504 245.315L449.962 245.724C449.808 246.219 449.551 246.653 449.188 247.028C448.826 247.399 448.379 247.689 447.846 247.898C447.313 248.102 446.715 248.205 446.05 248.205Z" fill="#F9FAFB"/>
<g clip-path="url(#clip1_2018_76)">
<path d="M375.563 1014.95L363.269 1009.87L354.389 948.343L242.443 949.203L233.803 1010.61L222.881 1016.19C222.359 1016.46 221.942 1016.9 221.697 1017.43C221.453 1017.97 221.395 1018.57 221.534 1019.14C221.674 1019.71 222.001 1020.22 222.464 1020.58C222.927 1020.94 223.497 1021.13 224.084 1021.13L374.592 1019.97C375.193 1019.97 375.774 1019.75 376.236 1019.37C376.698 1018.98 377.013 1018.45 377.128 1017.86C377.242 1017.27 377.149 1016.65 376.864 1016.12C376.578 1015.59 376.119 1015.18 375.563 1014.95Z" fill="#E6E6E6"/>
<path d="M574.049 954.85L24.138 959.075C21.2527 959.091 18.479 957.959 16.4254 955.926C14.3718 953.894 13.206 951.128 13.1837 948.236L12.5863 870.488L584.238 866.096L584.836 943.843C584.858 946.736 583.735 949.519 581.712 951.583C579.69 953.646 576.934 954.821 574.049 954.85Z" fill="#CCCCCC"/>
<path d="M585.095 902.836L12.3668 907.237L9.81053 574.573C9.78773 571.082 11.147 567.724 13.5903 565.236C16.0335 562.749 19.3612 561.335 22.8432 561.304L569.304 557.105C572.786 557.082 576.135 558.445 578.616 560.895C581.097 563.344 582.508 566.681 582.539 570.172L585.095 902.836Z" fill="#3F3D56"/>
<path d="M548.42 581.411L44.0999 585.286C41.4157 585.31 38.8507 586.401 36.9681 588.319C35.0855 590.238 34.0391 592.827 34.0587 595.518L36.1891 872.754C36.2108 875.446 37.2968 878.018 39.2087 879.908C41.1206 881.797 43.702 882.848 46.3862 882.831L550.707 878.956C553.39 878.93 555.955 877.839 557.837 875.921C559.719 874.003 560.766 871.415 560.748 868.724L558.618 591.487C558.595 588.796 557.508 586.225 555.596 584.336C553.685 582.447 551.104 581.395 548.42 581.411Z" fill="white"/>
<path d="M133.494 584.599L135.781 882.144L46.3862 882.831C43.702 882.848 41.1206 881.797 39.2087 879.908C37.2968 878.018 36.2108 875.446 36.1891 872.754L34.0587 595.518C34.0391 592.827 35.0855 590.238 36.9681 588.319C38.8507 586.401 41.4157 585.31 44.0998 585.286L133.494 584.599Z" fill="#F0F0F0"/>
<path d="M85.0833 760.125C99.6095 760.013 111.294 748.116 111.183 733.552C111.071 718.988 99.2042 707.272 84.6781 707.383C70.152 707.495 58.4669 719.392 58.5789 733.956C58.6908 748.52 70.5572 760.236 85.0833 760.125Z" fill="#3B8AFF"/>
<path d="M100.662 733.634L86.4592 733.743L86.3498 719.503L83.193 719.527L83.3025 733.767L69.0993 733.876L69.1236 737.04L83.3268 736.931L83.4362 751.172L86.5929 751.147L86.4835 736.907L100.686 736.798L100.662 733.634Z" fill="white"/>
<path d="M307.981 618.062C307.169 618.069 306.394 618.398 305.825 618.978C305.256 619.557 304.939 620.34 304.945 621.153L305.339 672.511C305.347 673.325 305.675 674.102 306.253 674.673C306.831 675.243 307.611 675.561 308.422 675.556L514.926 673.969C515.737 673.962 516.512 673.632 517.081 673.053C517.65 672.473 517.967 671.691 517.962 670.878L517.567 619.519C517.56 618.706 517.231 617.929 516.653 617.358C516.075 616.787 515.295 616.47 514.484 616.475L307.981 618.062Z" fill="white"/>
<path d="M307.981 618.062C307.169 618.069 306.394 618.398 305.825 618.978C305.256 619.557 304.939 620.34 304.945 621.153L305.339 672.511C305.347 673.325 305.675 674.102 306.253 674.673C306.831 675.243 307.611 675.561 308.422 675.556L514.926 673.969C515.737 673.962 516.512 673.632 517.081 673.053C517.65 672.473 517.967 671.691 517.962 670.878L517.567 619.519C517.56 618.706 517.231 617.929 516.653 617.358C516.075 616.787 515.295 616.47 514.484 616.475L307.981 618.062Z" fill="#E6E6E6"/>
<path d="M308.778 672.102L514.517 670.521L514.128 619.929L308.389 621.51L308.778 672.102Z" fill="white"/>
<path d="M331.893 635.89C331.183 635.896 330.504 636.184 330.006 636.691C329.508 637.198 329.231 637.883 329.237 638.595C329.242 639.306 329.53 639.987 330.035 640.486C330.541 640.986 331.224 641.263 331.934 641.258L490.882 640.036C491.234 640.034 491.581 639.962 491.905 639.825C492.229 639.688 492.523 639.488 492.769 639.237C493.016 638.986 493.211 638.688 493.343 638.362C493.476 638.035 493.542 637.686 493.54 637.333C493.537 636.981 493.465 636.632 493.329 636.308C493.192 635.983 492.992 635.688 492.742 635.441C492.492 635.194 492.195 634.998 491.869 634.866C491.543 634.733 491.195 634.666 490.843 634.669L331.893 635.89Z" fill="#E4E4E4"/>
<path d="M332.017 651.994C331.308 652 330.63 652.289 330.133 652.796C329.636 653.303 329.36 653.987 329.365 654.698C329.371 655.409 329.657 656.089 330.162 656.588C330.667 657.087 331.349 657.366 332.058 657.361L491.006 656.14C491.716 656.136 492.395 655.85 492.895 655.344C493.394 654.838 493.672 654.153 493.668 653.442C493.665 652.73 493.379 652.049 492.874 651.548C492.369 651.047 491.687 650.768 490.977 650.772L332.017 651.994Z" fill="#E4E4E4"/>
<path d="M165.048 706.31C164.237 706.317 163.462 706.646 162.893 707.226C162.324 707.805 162.007 708.587 162.012 709.401L162.407 760.759C162.414 761.572 162.743 762.35 163.321 762.92C163.899 763.491 164.679 763.809 165.49 763.803L371.993 762.217C372.805 762.209 373.58 761.88 374.149 761.3C374.718 760.721 375.035 759.939 375.029 759.125L374.635 707.767C374.627 706.954 374.299 706.176 373.721 705.606C373.143 705.035 372.363 704.718 371.552 704.723L165.048 706.31Z" fill="white"/>
<path d="M165.048 706.31C164.237 706.317 163.462 706.646 162.893 707.226C162.324 707.805 162.007 708.587 162.012 709.401L162.407 760.759C162.414 761.572 162.743 762.35 163.321 762.92C163.899 763.491 164.679 763.809 165.49 763.803L371.993 762.217C372.805 762.209 373.58 761.88 374.149 761.3C374.718 760.721 375.035 759.939 375.029 759.125L374.635 707.767C374.627 706.954 374.299 706.176 373.721 705.606C373.143 705.035 372.363 704.718 371.552 704.723L165.048 706.31Z" fill="#E6E6E6"/>
<path d="M165.846 760.349L371.584 758.768L371.196 708.176L165.457 709.757L165.846 760.349Z" fill="white"/>
<path d="M188.961 724.138C188.251 724.144 187.572 724.432 187.074 724.939C186.576 725.446 186.299 726.131 186.304 726.843C186.31 727.554 186.597 728.235 187.103 728.734C187.609 729.234 188.292 729.511 189.002 729.506L347.95 728.285C348.301 728.282 348.649 728.21 348.973 728.073C349.297 727.936 349.59 727.736 349.837 727.485C350.084 727.234 350.279 726.936 350.411 726.61C350.543 726.283 350.61 725.934 350.607 725.581C350.605 725.229 350.533 724.88 350.396 724.556C350.259 724.231 350.06 723.937 349.81 723.689C349.559 723.442 349.263 723.246 348.937 723.114C348.611 722.981 348.263 722.914 347.911 722.917L188.961 724.138Z" fill="#E4E4E4"/>
<path d="M189.085 740.241C188.375 740.248 187.698 740.537 187.201 741.044C186.704 741.551 186.428 742.235 186.433 742.946C186.438 743.657 186.725 744.337 187.23 744.836C187.735 745.335 188.417 745.613 189.126 745.609L348.074 744.388C348.784 744.384 349.463 744.097 349.962 743.591C350.462 743.085 350.74 742.401 350.736 741.689C350.732 740.977 350.446 740.296 349.942 739.796C349.437 739.295 348.754 739.016 348.044 739.02L189.085 740.241Z" fill="#E4E4E4"/>
<path d="M417.82 842.217C418.739 842.109 419.623 841.799 420.409 841.311C421.196 840.823 421.866 840.168 422.373 839.392C422.88 838.615 423.211 837.737 423.343 836.819C423.475 835.901 423.404 834.965 423.136 834.077L441.336 820.83L430.397 816.703L414.791 829.915C413.333 830.466 412.127 831.533 411.402 832.915C410.677 834.298 410.482 835.899 410.856 837.415C411.229 838.931 412.144 840.258 413.428 841.143C414.711 842.028 416.274 842.41 417.82 842.217Z" fill="#FFB7B7"/>
<path d="M427.914 833.507L421.763 823.157L421.891 823.008L446.172 794.859L464.941 762.194L481.473 764.177L481.755 769.181L481.706 769.256L455.771 809.005L455.743 809.029L427.914 833.507Z" fill="#3F3D56"/>
<path d="M510.2 1008.81L500.861 1008.88L496.139 972.796L509.924 972.691L510.2 1008.81Z" fill="#FFB7B7"/>
<path d="M512.652 1017.87L482.536 1018.1L482.533 1017.72C482.509 1014.6 483.721 1011.6 485.903 1009.38C488.084 1007.16 491.056 1005.9 494.165 1005.88L512.559 1005.74L512.652 1017.87Z" fill="#2F2E41"/>
<path d="M429.815 1009.12L420.713 1007.02L424.48 970.82L437.912 973.926L429.815 1009.12Z" fill="#FFB7B7"/>
<path d="M430.101 1018.5L400.755 1011.72L400.84 1011.34C401.539 1008.31 403.413 1005.67 406.049 1004.02C408.685 1002.37 411.868 1001.83 414.897 1002.53L432.822 1006.68L430.101 1018.5Z" fill="#2F2E41"/>
<path d="M464.092 745.686L463.971 729.923C463.928 724.321 466.106 718.932 470.026 714.94C473.947 710.949 479.288 708.682 484.875 708.639C490.463 708.596 495.838 710.781 499.819 714.711C503.801 718.642 506.061 723.998 506.105 729.599L506.226 745.362C506.231 746.114 505.938 746.838 505.411 747.374C504.885 747.91 504.168 748.215 503.418 748.221L466.943 748.501C466.193 748.506 465.472 748.213 464.937 747.685C464.402 747.157 464.098 746.438 464.092 745.686Z" fill="#2F2E41"/>
<path d="M479.979 748.162C488.51 748.096 495.371 741.11 495.306 732.557C495.24 724.005 488.272 717.125 479.741 717.19C471.211 717.256 464.349 724.242 464.415 732.795C464.48 741.347 471.449 748.228 479.979 748.162Z" fill="#FFB7B7"/>
<path d="M458.996 731.223C458.967 726.793 460.692 722.533 463.792 719.376C466.892 716.22 471.115 714.425 475.533 714.386L478.677 714.362C483.096 714.333 487.345 716.063 490.493 719.171C493.641 722.279 495.431 726.513 495.47 730.943L495.473 731.258L488.828 731.309L486.513 724.963L486.108 731.33L482.674 731.356L481.506 728.155L481.302 731.367L458.999 731.538L458.996 731.223Z" fill="#2F2E41"/>
<path d="M489.498 814.34L450.159 813.141L447.763 787.362C446.031 782.654 445.972 778.6 447.589 775.314C448.98 772.615 451.336 770.541 454.186 769.508L462.711 759.022C463.808 757.673 465.19 756.587 466.757 755.839C468.324 755.092 470.037 754.704 471.773 754.702L494.131 754.683C494.668 754.354 497.924 752.663 504.393 755.416C511.409 758.401 509.866 768.97 509.85 769.076L509.834 769.175L509.758 769.241L494.982 781.912L489.498 814.34Z" fill="#3F3D56"/>
<path d="M450.452 810.368L432.111 844.515L419.196 999.325L435.169 1004.08L462.444 882.848L496.082 1000.18L515.187 1000.51L501.139 864.92L489.369 812.472L450.452 810.368Z" fill="#2F2E41"/>
<path d="M329.864 786.088C329.091 785.844 328.252 785.917 327.532 786.293C326.813 786.668 326.271 787.314 326.026 788.089L310.605 837.066C310.362 837.842 310.435 838.683 310.81 839.405C311.184 840.126 311.828 840.669 312.602 840.915L509.532 903.252C510.306 903.496 511.145 903.422 511.864 903.047C512.584 902.671 513.126 902.025 513.371 901.25L528.792 852.273C529.035 851.497 528.961 850.656 528.587 849.934C528.213 849.213 527.568 848.67 526.795 848.424L329.864 786.088Z" fill="white"/>
<path d="M329.864 786.088C329.091 785.844 328.252 785.917 327.532 786.293C326.813 786.668 326.271 787.314 326.026 788.089L310.605 837.066C310.362 837.842 310.435 838.683 310.81 839.405C311.184 840.126 311.828 840.669 312.602 840.915L509.532 903.252C510.306 903.496 511.145 903.422 511.864 903.047C512.584 902.671 513.126 902.025 513.371 901.25L528.792 852.273C529.035 851.497 528.961 850.656 528.587 849.934C528.213 849.213 527.568 848.67 526.795 848.424L329.864 786.088Z" fill="#E6E6E6"/>
<path d="M314.002 837.739L510.204 899.845L525.394 851.599L329.193 789.493L314.002 837.739Z" fill="white"/>
<path d="M347.129 810.44C346.452 810.226 345.718 810.291 345.088 810.619C344.459 810.948 343.985 811.513 343.771 812.192C343.558 812.871 343.621 813.606 343.949 814.238C344.276 814.869 344.84 815.344 345.517 815.559L497.096 863.54C497.432 863.647 497.785 863.686 498.135 863.656C498.486 863.626 498.827 863.527 499.139 863.364C499.451 863.202 499.729 862.979 499.955 862.709C500.181 862.439 500.353 862.127 500.459 861.791C500.565 861.455 500.604 861.101 500.573 860.749C500.543 860.398 500.443 860.056 500.281 859.743C500.119 859.43 499.896 859.152 499.627 858.926C499.357 858.699 499.046 858.528 498.71 858.422L498.708 858.421L347.129 810.44Z" fill="#3B8AFF"/>
<path d="M342.293 825.797C341.617 825.584 340.884 825.649 340.255 825.978C339.626 826.307 339.153 826.872 338.94 827.55C338.727 828.228 338.79 828.963 339.117 829.594C339.443 830.225 340.006 830.7 340.682 830.916L492.261 878.897C492.938 879.112 493.672 879.05 494.303 878.723C494.933 878.396 495.409 877.831 495.624 877.153C495.839 876.474 495.777 875.738 495.45 875.106C495.124 874.474 494.561 873.997 493.884 873.781L493.873 873.778L342.293 825.797Z" fill="#3B8AFF"/>
<path d="M500.573 865.035C501.257 864.41 501.796 863.643 502.152 862.786C502.508 861.93 502.672 861.006 502.633 860.079C502.594 859.152 502.353 858.245 501.927 857.422C501.5 856.599 500.899 855.879 500.165 855.314L507.264 833.916L495.974 836.95L490.965 856.804C490.099 858.103 489.739 859.675 489.953 861.222C490.166 862.769 490.938 864.184 492.123 865.199C493.307 866.213 494.821 866.757 496.379 866.727C497.936 866.697 499.429 866.095 500.573 865.035Z" fill="#FFB7B7"/>
<path d="M503.718 852.06L492.705 847.239L496.107 809.982L492.386 772.469L506.977 764.426L510.112 768.328L510.116 768.418L512.127 815.875L512.118 815.911L503.718 852.06Z" fill="#3F3D56"/>
</g>
</g>
<defs>
<clipPath id="clip0_2018_76">
<rect width="708" height="1024" fill="white"/>
</clipPath>
<clipPath id="clip1_2018_76">
<rect width="583" height="462" fill="white" transform="translate(0 561.48) rotate(-0.44026)"/>
</clipPath>
</defs>
</svg>
