<svg width="64" height="64" viewBox="0 0 64 64" fill="none" xmlns="http://www.w3.org/2000/svg">
<rect width="64" height="64" rx="12" fill="#3B8AFF"/>
<path d="M30.2826 24.4326C35.7569 26.3647 41.6607 26.2574 47.0814 24.1642C47.135 21.9637 46.5447 19.7632 45.5249 17.7774L44.9882 16.704C44.8272 16.7577 44.6125 16.8651 44.5052 16.9724C39.5675 19.3339 33.9858 19.6559 28.7798 17.7775C25.1302 16.4894 21.1586 16.8114 17.7237 18.5288L16.6503 19.0655C16.704 19.2265 16.8113 19.4412 16.9186 19.5486C17.5627 20.944 18.0994 22.4468 18.4751 24.0032C22.232 22.9298 26.4183 23.0371 30.2826 24.4326Z" fill="white"/>
<path d="M16.9186 40.5873L18.0993 39.9432C20.4918 38.747 23.1312 38.1679 25.7499 38.2443C27.3609 38.2913 28.9641 38.5862 30.4972 39.1382C30.9966 39.3154 31.4976 39.4781 31.9999 39.6264V45.3472C29.9219 44.9608 27.8183 44.9056 25.7499 45.1719C23.6043 45.4481 21.4966 46.0703 19.4948 47.0277C19.3874 47.135 19.1727 47.2424 19.0117 47.2961L18.475 46.2227C17.5626 44.4515 17.0259 42.5194 16.9186 40.5873Z" fill="white"/>
<path d="M17.5626 35.6497C22.1246 33.7712 27.2233 33.6102 31.8926 35.274C36.1862 36.7767 40.7482 37.0451 45.0418 36.079C44.9881 33.6639 45.3102 31.3023 46.1689 28.9409C40.5335 30.6046 34.4687 30.4436 28.8334 28.4578C25.6131 27.2771 22.0709 27.2771 18.8507 28.3505C18.9043 30.6583 18.475 33.0198 17.6699 35.3276C17.6699 35.3276 17.6163 35.4887 17.5626 35.6497Z" fill="white"/>
</svg>
