<svg width="25" height="24" viewBox="0 0 25 24" fill="none" xmlns="http://www.w3.org/2000/svg">
<path d="M22.3227 8.2C22.375 9.25014 22.375 10.4994 22.375 12C22.375 16.4783 22.375 18.7175 20.9838 20.1088C19.5925 21.5 17.3533 21.5 12.875 21.5C8.39666 21.5 6.15749 21.5 4.76624 20.1088C3.375 18.7175 3.375 16.4783 3.375 12C3.375 7.52166 3.375 5.28249 4.76624 3.89124C6.15749 2.5 8.39666 2.5 12.875 2.5C13.9469 2.5 14.8906 2.5 15.725 2.51908" stroke="#22F44A" stroke-width="1.5" stroke-linecap="round"/>
<path d="M8.875 11.5C8.875 11.5 10.375 11.5 12.375 15C12.375 15 17.4338 5.83333 22.375 4" stroke="#22F44A" stroke-width="1.5" stroke-linecap="round" stroke-linejoin="round"/>
</svg>
