<svg width="30" height="30" viewBox="0 0 30 30" fill="none" xmlns="http://www.w3.org/2000/svg">
<rect x="1" y="1" width="28" height="28" rx="14" stroke="#D1D5DB"/>
<path d="M18.7187 15.4311L14.2312 19.9187C13.206 20.9438 11.544 20.9438 10.5188 19.9187C9.49372 18.8935 9.49372 17.2315 10.5188 16.2063L16.9001 9.82506C17.5835 9.14165 18.6915 9.14165 19.375 9.82506C20.0584 10.5085 20.0584 11.6165 19.375 12.2999L12.9884 18.6865M12.9937 18.6812C12.992 18.683 12.9902 18.6847 12.9884 18.6865M16.3124 12.8875L11.7563 17.4438C11.4146 17.7855 11.4146 18.3395 11.7563 18.6812C12.0962 19.0212 12.6463 19.0229 12.9884 18.6865" stroke="#9CA3AF" stroke-linecap="round" stroke-linejoin="round"/>
</svg>
