<svg width="18" height="18" viewBox="0 0 18 18" fill="none" xmlns="http://www.w3.org/2000/svg">
<path d="M1 17.0001L5.44444 12.5557L1 17.0001Z" fill="#3B8AFF"/>
<path d="M1 17.0001L5.44444 12.5557" stroke="#3B8AFF" stroke-linecap="round" stroke-linejoin="round"/>
<path d="M10.1187 15.1079C6.79125 14.3524 3.64749 11.2087 2.89202 7.88133C2.77243 7.35458 2.71263 7.09125 2.88587 6.66397C3.0591 6.2367 3.27072 6.10449 3.69396 5.84008C4.6507 5.24236 5.6867 5.05234 6.76185 5.14743C8.27048 5.28087 9.02479 5.34759 9.40106 5.15154C9.77741 4.95548 10.0331 4.49704 10.5445 3.58017L11.1923 2.4187C11.6191 1.65358 11.8325 1.27102 12.3345 1.09068C12.8364 0.910338 13.1385 1.01955 13.7427 1.23796C15.1555 1.74876 16.2512 2.84449 16.762 4.25733C16.9804 4.86149 17.0897 5.16357 16.9093 5.66551C16.729 6.16747 16.3464 6.38085 15.5812 6.80763L14.3931 7.4704C13.4779 7.9808 13.0203 8.23609 12.8243 8.616C12.6283 8.996 12.6995 9.73387 12.8419 11.2097C12.9466 12.2949 12.7661 13.3378 12.1604 14.3064C11.8957 14.7296 11.7634 14.9412 11.3363 15.1143C10.9091 15.2874 10.6456 15.2276 10.1187 15.1079Z" fill="#3B8AFF" stroke="#3B8AFF" stroke-linecap="round" stroke-linejoin="round"/>
</svg>
