<svg width="18" height="22" viewBox="0 0 18 22" fill="none" xmlns="http://www.w3.org/2000/svg">
<path d="M11.7404 8L11.3942 17M6.60577 17L6.25962 8M16.2276 4.79057C16.5696 4.84221 16.9104 4.89747 17.25 4.95629M16.2276 4.79057L15.1598 18.6726C15.0696 19.8448 14.0921 20.75 12.9164 20.75H5.08357C3.90786 20.75 2.93037 19.8448 2.8402 18.6726L1.77235 4.79057M16.2276 4.79057C15.0812 4.61744 13.9215 4.48485 12.75 4.39432M0.75 4.95629C1.08957 4.89747 1.43037 4.84221 1.77235 4.79057M1.77235 4.79057C2.91878 4.61744 4.07849 4.48485 5.25 4.39432M12.75 4.39432V3.47819C12.75 2.29882 11.8393 1.31423 10.6606 1.27652C10.1092 1.25889 9.55565 1.25 9 1.25C8.44435 1.25 7.89078 1.25889 7.33942 1.27652C6.16065 1.31423 5.25 2.29882 5.25 3.47819V4.39432M12.75 4.39432C11.5126 4.2987 10.262 4.25 9 4.25C7.73803 4.25 6.48744 4.2987 5.25 4.39432" stroke="#EF4444" stroke-width="1.5" stroke-linecap="round" stroke-linejoin="round"/>
</svg>
