<svg width="708" height="1024" viewBox="0 0 708 1024" fill="none" xmlns="http://www.w3.org/2000/svg">
<g clip-path="url(#clip0_2022_1536)">
<rect width="708" height="1024" fill="#3B8AFF"/>
<path fill-rule="evenodd" clip-rule="evenodd" d="M644.884 -337.924C730.741 -336.585 828.159 -324.753 878.449 -255.153C925.861 -189.536 878.764 -102.368 873.453 -21.5885C868.768 49.6868 888.602 123.298 849.635 183.162C802.053 256.262 730.835 344.396 644.884 329.563C558.776 314.703 560.694 186.141 500.401 122.894C443.279 62.9729 330.238 58.72 310.136 -21.5885C288.379 -108.508 338.795 -201.014 403.918 -262.555C467.506 -322.645 557.405 -339.288 644.884 -337.924Z" fill="#62A1FF"/>
<g clip-path="url(#clip1_2022_1536)">
<g opacity="0.5">
<path d="M749 734.368H-36V734.761H749V734.368Z" fill="#EBEBEB"/>
<path d="M670.343 759.629H618.345V760.022H670.343V759.629Z" fill="#EBEBEB"/>
<path d="M484.015 763.9H470.372V764.292H484.015V763.9Z" fill="#EBEBEB"/>
<path d="M616.775 745.06H586.646V745.452H616.775V745.06Z" fill="#EBEBEB"/>
<path d="M114.171 747.698H46.3623V748.09H114.171V747.698Z" fill="#EBEBEB"/>
<path d="M138.097 747.698H128.159V748.09H138.097V747.698Z" fill="#EBEBEB"/>
<path d="M317.485 754.323H170.408V754.715H317.485V754.323Z" fill="#EBEBEB"/>
<path d="M336.09 664.346H32.9387C30.5639 664.342 28.2877 663.396 26.6099 661.715C24.9321 660.034 23.9897 657.756 23.9897 655.381V229.236C24.0104 226.875 24.9619 224.617 26.6375 222.954C28.313 221.29 30.5774 220.354 32.9387 220.35H336.09C338.468 220.35 340.748 221.295 342.429 222.976C344.11 224.657 345.055 226.937 345.055 229.315V655.381C345.055 657.759 344.11 660.039 342.429 661.72C340.748 663.402 338.468 664.346 336.09 664.346ZM32.9387 220.664C30.668 220.668 28.4916 221.573 26.8874 223.18C25.2832 224.788 24.3822 226.966 24.3822 229.236V655.381C24.3822 657.652 25.2832 659.83 26.8874 661.437C28.4916 663.044 30.668 663.949 32.9387 663.954H336.09C338.362 663.949 340.54 663.045 342.147 661.438C343.754 659.832 344.658 657.654 344.662 655.381V229.236C344.658 226.964 343.754 224.786 342.147 223.179C340.54 221.573 338.362 220.668 336.09 220.664H32.9387Z" fill="#EBEBEB"/>
<path d="M675.697 664.346H372.53C370.153 664.342 367.876 663.396 366.195 661.716C364.515 660.035 363.569 657.758 363.565 655.381V229.236C363.59 226.874 364.545 224.616 366.223 222.953C367.901 221.289 370.167 220.354 372.53 220.35H675.697C678.055 220.358 680.316 221.296 681.988 222.959C683.66 224.622 684.609 226.878 684.63 229.236V655.381C684.63 657.754 683.69 660.029 682.015 661.709C680.341 663.39 678.069 664.338 675.697 664.346ZM372.53 220.664C370.257 220.668 368.079 221.573 366.473 223.179C364.866 224.786 363.962 226.964 363.957 229.236V655.381C363.962 657.654 364.866 659.832 366.473 661.438C368.079 663.045 370.257 663.949 372.53 663.954H675.697C677.969 663.949 680.147 663.045 681.754 661.438C683.36 659.832 684.265 657.654 684.269 655.381V229.236C684.265 226.964 683.36 224.786 681.754 223.179C680.147 221.573 677.969 220.668 675.697 220.664H372.53Z" fill="#EBEBEB"/>
<path d="M361.54 381.777C359.093 370.051 354.453 358.891 347.865 348.886L359.64 334.662L334.52 309.542L320.296 321.317C310.299 314.711 299.145 310.05 287.42 307.579L285.693 289.257H250.023L248.296 307.579C236.574 310.027 225.42 314.666 215.42 321.254L201.196 309.479L176.076 334.599L187.851 348.823C181.263 358.828 176.623 369.988 174.176 381.715L155.838 383.442V419.034L174.176 420.761C176.626 432.486 181.265 443.645 187.851 453.652L175.95 467.939L201.07 493.059L215.294 481.284C225.291 487.878 236.446 492.518 248.17 494.959L249.897 513.296H285.505L287.232 494.959C298.96 492.515 310.12 487.876 320.123 481.284L334.347 493.059L359.467 467.939L347.692 453.715C354.278 443.708 358.917 432.549 361.367 420.823L379.705 419.096V383.504L361.54 381.777ZM316.01 401.293C316.01 410.825 313.183 420.144 307.887 428.07C302.591 435.997 295.063 442.175 286.256 445.823C277.449 449.471 267.757 450.425 258.408 448.565C249.058 446.706 240.47 442.115 233.729 435.374C226.988 428.634 222.398 420.045 220.538 410.696C218.678 401.346 219.633 391.655 223.281 382.848C226.929 374.04 233.107 366.513 241.033 361.217C248.959 355.92 258.278 353.094 267.811 353.094C274.142 353.089 280.412 354.333 286.263 356.754C292.113 359.174 297.43 362.724 301.907 367.201C306.385 371.677 309.937 376.992 312.359 382.842C314.782 388.691 316.028 394.961 316.025 401.293H316.01Z" fill="#E0E0E0"/>
<path d="M463.652 552.641L464.83 565.75H490.405L491.645 552.578C500.068 550.822 508.085 547.493 515.274 542.765L525.495 551.228L543.597 533.125L535.134 522.905C539.866 515.718 543.195 507.701 544.947 499.276L558.119 498.036V472.523L544.947 471.283C543.195 462.859 539.866 454.842 535.134 447.655L543.597 437.434L525.495 419.348L515.274 427.81C508.089 423.071 500.071 419.736 491.645 417.982L490.405 404.809H464.83L463.59 417.982C455.164 419.739 447.147 423.074 439.961 427.81L429.74 419.348L411.654 437.434L420.116 447.655C415.38 454.841 412.046 462.858 410.288 471.283L397.116 472.523V498.099L410.288 499.339C412.046 507.764 415.38 515.781 420.116 522.968L411.654 533.188L429.74 551.29L439.961 542.828C447.171 547.56 455.208 550.889 463.652 552.641ZM477.688 519.937C470.833 519.941 464.132 517.909 458.432 514.102C452.733 510.294 448.291 504.88 445.67 498.546C443.049 492.212 442.367 485.243 443.709 478.521C445.051 471.799 448.358 465.627 453.21 460.785C458.063 455.944 464.243 452.651 470.968 451.324C477.693 449.997 484.66 450.696 490.988 453.331C497.316 455.966 502.719 460.42 506.514 466.128C510.309 471.837 512.325 478.543 512.307 485.397C512.282 494.564 508.624 503.347 502.135 509.821C495.646 516.295 486.855 519.933 477.688 519.937Z" fill="#E0E0E0"/>
<path d="M137.501 678.665L138.129 685.384H151.175L151.819 678.68C156.113 677.776 160.198 676.072 163.861 673.656L169.073 677.974L178.305 668.758L173.988 663.546C176.401 659.877 178.1 655.786 178.996 651.488L185.715 650.86V637.813L178.996 637.185C178.1 632.887 176.401 628.796 173.988 625.128L178.305 619.915L169.073 610.684L163.861 615.001C160.197 612.591 156.112 610.891 151.819 609.993L151.175 603.273H138.129L137.501 609.993C133.208 610.891 129.123 612.591 125.459 615.001L120.246 610.684L111.015 619.915L115.332 625.128C112.912 628.792 111.212 632.884 110.324 637.185L103.604 637.813V650.86L110.324 651.488C111.212 655.789 112.912 659.881 115.332 663.546L111.015 668.758L120.246 677.974L125.459 673.656C129.119 676.073 133.206 677.773 137.501 678.665ZM144.66 661.991C141.167 661.991 137.752 660.955 134.847 659.015C131.943 657.074 129.679 654.315 128.342 651.088C127.005 647.86 126.655 644.309 127.337 640.883C128.018 637.457 129.701 634.31 132.171 631.839C134.641 629.369 137.788 627.687 141.214 627.006C144.64 626.324 148.192 626.674 151.419 628.011C154.647 629.347 157.405 631.611 159.346 634.516C161.287 637.421 162.322 640.835 162.322 644.329C162.322 646.648 161.866 648.945 160.978 651.088C160.09 653.231 158.789 655.178 157.149 656.818C155.509 658.458 153.562 659.759 151.419 660.647C149.276 661.534 146.979 661.991 144.66 661.991Z" fill="#F0F0F0"/>
<path d="M606.522 646.071L607.04 651.598H617.779L618.297 646.071C621.835 645.331 625.201 643.93 628.22 641.942L632.506 645.506L640.105 637.907L636.541 633.621C638.531 630.604 639.932 627.237 640.67 623.699L646.196 623.181V612.442L640.67 611.924C639.93 608.386 638.529 605.02 636.541 602.001L640.105 597.715L632.506 590.116L628.22 593.68C625.201 591.693 621.835 590.292 618.297 589.551L617.779 584.025H607.04L606.522 589.551C602.985 590.292 599.618 591.693 596.6 593.68L592.314 590.116L584.715 597.715L588.279 602.001C586.291 605.02 584.89 608.386 584.15 611.924L578.624 612.442V623.181L584.15 623.699C584.887 627.237 586.288 630.604 588.279 633.621L584.715 637.97L592.314 645.569L596.6 642.005C599.623 643.971 602.989 645.35 606.522 646.071ZM612.41 632.35C609.535 632.35 606.724 631.497 604.333 629.899C601.942 628.302 600.079 626.031 598.978 623.375C597.878 620.718 597.59 617.795 598.151 614.975C598.712 612.155 600.097 609.564 602.13 607.531C604.163 605.498 606.754 604.113 609.574 603.552C612.394 602.991 615.317 603.279 617.973 604.38C620.63 605.48 622.901 607.343 624.498 609.734C626.095 612.125 626.948 614.936 626.948 617.811C626.944 621.666 625.411 625.361 622.685 628.087C619.96 630.812 616.264 632.345 612.41 632.35Z" fill="#F0F0F0"/>
<path d="M327.816 731.778H358.274L359.75 716.078C369.788 714.003 379.341 710.039 387.9 704.397L400.067 714.476L421.576 692.92L411.45 680.768C417.085 672.212 421.049 662.666 423.131 652.634L438.831 651.158V620.7L423.131 619.224C421.046 609.199 417.082 599.658 411.45 591.106L421.513 578.938L399.973 557.398L387.9 567.461C379.345 561.83 369.806 557.862 359.781 555.765L358.305 540.065H327.847L326.371 555.765C316.341 557.859 306.796 561.828 298.237 567.461L286.07 557.398L264.498 578.938L274.577 591.106C268.933 599.653 264.964 609.195 262.881 619.224L247.181 620.7V651.158L262.881 652.634C264.961 662.669 268.931 672.216 274.577 680.768L264.498 692.92L286.038 714.461L298.206 704.381C306.758 710.028 316.305 713.997 326.34 716.078L327.816 731.778ZM343.045 677.157C334.891 677.157 326.92 674.739 320.14 670.209C313.36 665.679 308.075 659.24 304.955 651.706C301.835 644.173 301.018 635.883 302.609 627.886C304.2 619.888 308.126 612.542 313.892 606.776C319.658 601.011 327.004 597.084 335.002 595.493C342.999 593.902 351.289 594.719 358.822 597.839C366.356 600.96 372.795 606.244 377.325 613.024C381.855 619.804 384.273 627.775 384.273 635.929C384.281 641.349 383.221 646.716 381.153 651.726C379.085 656.735 376.049 661.287 372.22 665.122C368.391 668.958 363.843 672 358.837 674.076C353.831 676.152 348.464 677.22 343.045 677.22V677.157Z" fill="#E0E0E0"/>
<path d="M498.051 676.058L496.481 672.918C493.953 668.11 489.619 664.502 484.433 662.886C479.246 661.269 473.63 661.778 468.818 664.299L461.47 668.145C456.664 670.68 453.058 675.016 451.442 680.204C449.827 685.392 450.333 691.009 452.851 695.825L454.421 698.886L449.303 701.586L467.75 736.723L521.617 708.463L503.169 673.311L498.051 676.058ZM486.81 702.937L490.029 709.075L486.135 711.132L482.916 704.993C482.174 704.964 481.451 704.742 480.821 704.348C480.19 703.955 479.673 703.403 479.321 702.748C479.022 702.241 478.828 701.677 478.753 701.093C478.678 700.508 478.723 699.914 478.884 699.348C479.045 698.781 479.32 698.252 479.692 697.795C480.064 697.338 480.525 696.961 481.047 696.687C481.569 696.413 482.141 696.248 482.728 696.203C483.316 696.157 483.907 696.231 484.465 696.42C485.023 696.61 485.537 696.911 485.975 697.305C486.413 697.699 486.767 698.178 487.014 698.713C487.354 699.373 487.515 700.111 487.479 700.852C487.443 701.594 487.212 702.313 486.81 702.937ZM489.95 680.36L462.491 694.773L460.921 691.633C459.527 688.963 459.249 685.849 460.146 682.974C461.044 680.099 463.044 677.697 465.709 676.294L473.041 672.447C475.702 671.048 478.808 670.757 481.682 671.64C484.555 672.522 486.963 674.506 488.38 677.157L489.95 680.36Z" fill="#F0F0F0"/>
<path d="M121.487 489.37L122.633 486.104C124.408 480.97 124.077 475.341 121.711 470.45C119.345 465.56 115.138 461.806 110.01 460.011L102.16 457.295C97.0198 455.523 91.3861 455.863 86.4967 458.242C81.6072 460.62 77.8616 464.842 76.0825 469.98L74.9364 473.261L69.4885 471.362L56.4575 508.869L113.935 528.777L126.951 491.269L121.487 489.37ZM94.2003 499.59L91.9238 506.09L87.7633 504.646L90.0398 498.099C89.552 497.54 89.2185 496.864 89.0726 496.137C88.9266 495.41 88.9732 494.658 89.2077 493.954C89.5887 492.861 90.3883 491.964 91.4306 491.461C92.4729 490.957 93.6725 490.888 94.7655 491.269C95.8585 491.65 96.7555 492.45 97.2589 493.492C97.7624 494.535 97.8312 495.734 97.4502 496.827C97.1969 497.531 96.7636 498.157 96.1935 498.642C95.6233 499.127 94.9361 499.454 94.2003 499.59ZM112.868 486.387L83.5714 476.26L84.7018 472.979C85.6957 470.136 87.7754 467.804 90.4855 466.491C93.1956 465.179 96.3153 464.994 99.1615 465.977L107.012 468.693C109.856 469.683 112.192 471.762 113.505 474.474C114.818 477.185 115.001 480.306 114.014 483.152L112.868 486.387Z" fill="#F0F0F0"/>
<path d="M635.85 471.032L632.49 469.964C637.091 469.149 641.285 466.816 644.404 463.337C647.522 459.858 649.385 455.434 649.694 450.772C650.004 446.11 648.742 441.479 646.11 437.619C643.479 433.758 639.63 430.891 635.177 429.475C630.725 428.059 625.927 428.175 621.548 429.806C617.17 431.437 613.465 434.489 611.025 438.473C608.584 442.456 607.549 447.143 608.085 451.785C608.62 456.426 610.696 460.754 613.98 464.077L610.636 463.009C605.735 461.444 600.413 461.888 595.839 464.243C591.265 466.598 587.812 470.671 586.238 475.569L582.878 486.151L645.113 505.917L648.52 495.414C649.292 492.981 649.577 490.42 649.358 487.877C649.139 485.334 648.421 482.859 647.244 480.594C646.067 478.329 644.455 476.319 642.5 474.678C640.545 473.037 638.285 471.798 635.85 471.032Z" fill="#F0F0F0"/>
<path d="M410.178 281.423L408.09 282.302C410.003 279.98 411.083 277.084 411.156 274.077C411.23 271.069 410.294 268.124 408.497 265.711C406.7 263.298 404.147 261.557 401.244 260.766C398.342 259.974 395.258 260.179 392.485 261.346C389.712 262.513 387.411 264.576 385.948 267.205C384.485 269.834 383.946 272.877 384.416 275.849C384.886 278.82 386.338 281.548 388.54 283.598C390.743 285.647 393.569 286.899 396.566 287.153L394.478 288.033C391.433 289.328 389.022 291.774 387.77 294.837C386.517 297.9 386.525 301.334 387.79 304.392L390.553 310.986L429.316 294.689L426.538 288.111C425.242 285.066 422.797 282.655 419.733 281.403C416.67 280.15 413.236 280.158 410.178 281.423Z" fill="#F0F0F0"/>
<path d="M129.635 325.54L127.421 325.085C130.323 324.262 132.866 322.49 134.642 320.052C136.418 317.614 137.326 314.651 137.22 311.636C137.114 308.622 136.001 305.73 134.057 303.422C132.114 301.115 129.454 299.526 126.501 298.909C123.548 298.292 120.474 298.683 117.769 300.019C115.065 301.355 112.886 303.559 111.582 306.278C110.277 308.998 109.923 312.077 110.574 315.022C111.225 317.968 112.845 320.61 115.175 322.526L112.961 322.07C109.708 321.412 106.327 322.067 103.555 323.894C100.784 325.721 98.8486 328.571 98.172 331.82L96.7119 338.807L137.862 347.379L139.322 340.392C140.001 337.139 139.362 333.749 137.547 330.965C135.731 328.181 132.886 326.23 129.635 325.54Z" fill="#F0F0F0"/>
</g>
<path opacity="0.1" d="M356.5 805.269C524.62 805.269 660.907 797.312 660.907 787.497C660.907 777.682 524.62 769.725 356.5 769.725C188.381 769.725 52.0928 777.682 52.0928 787.497C52.0928 797.312 188.381 805.269 356.5 805.269Z" fill="#6B7280"/>
<path d="M495.503 357.469H214.497C208.147 357.469 203 361.819 203 367.185V658.753C203 664.119 208.147 668.469 214.497 668.469H495.503C501.853 668.469 507 664.119 507 658.753V367.185C507 361.819 501.853 357.469 495.503 357.469Z" fill="#3B8AFF"/>
<path opacity="0.6" d="M495.503 357H214.497C208.147 357 203 361.35 203 366.716V658.284C203 663.65 208.147 668 214.497 668H495.503C501.853 668 507 663.65 507 658.284V366.716C507 361.35 501.853 357 495.503 357Z" fill="white"/>
<path d="M457.87 527.099H252.451V562.267H457.87V527.099Z" fill="white"/>
<g opacity="0.4">
<path d="M262.813 543.992C262.804 543.303 262.935 542.62 263.199 541.984C263.462 541.347 263.853 540.771 264.347 540.291C264.84 539.811 265.427 539.436 266.07 539.189C266.713 538.943 267.4 538.83 268.088 538.858C268.772 538.834 269.453 538.952 270.088 539.206C270.724 539.461 271.299 539.845 271.777 540.334L271.102 541.009C270.714 540.616 270.248 540.307 269.735 540.101C269.222 539.896 268.672 539.799 268.119 539.816C267.012 539.816 265.949 540.256 265.166 541.039C264.383 541.822 263.943 542.884 263.943 543.992C263.943 545.1 264.383 546.162 265.166 546.945C265.949 547.728 267.012 548.168 268.119 548.168C268.673 548.186 269.225 548.088 269.739 547.879C270.253 547.671 270.717 547.358 271.102 546.959L271.777 547.634C271.297 548.126 270.719 548.511 270.081 548.765C269.443 549.019 268.759 549.137 268.072 549.11C267.385 549.14 266.7 549.03 266.057 548.785C265.415 548.54 264.83 548.167 264.337 547.687C263.844 547.208 263.455 546.633 263.193 545.997C262.931 545.362 262.801 544.679 262.813 543.992Z" fill="#263238"/>
<path d="M272.735 545.248C272.732 544.483 272.956 543.735 273.378 543.098C273.801 542.461 274.403 541.963 275.108 541.669C275.814 541.374 276.591 541.295 277.341 541.442C278.091 541.59 278.781 541.956 279.323 542.496C279.864 543.035 280.234 543.723 280.384 544.473C280.534 545.223 280.459 546 280.167 546.707C279.875 547.413 279.38 548.017 278.745 548.443C278.109 548.868 277.362 549.094 276.597 549.095C276.087 549.112 275.578 549.024 275.103 548.838C274.627 548.651 274.195 548.368 273.833 548.008C273.471 547.647 273.187 547.216 272.998 546.742C272.809 546.267 272.72 545.759 272.735 545.248ZM279.408 545.248C279.383 544.694 279.196 544.16 278.87 543.712C278.545 543.264 278.094 542.921 277.575 542.727C277.056 542.533 276.492 542.495 275.952 542.619C275.411 542.743 274.92 543.024 274.538 543.425C274.156 543.826 273.9 544.331 273.802 544.877C273.705 545.422 273.77 545.984 273.989 546.493C274.209 547.002 274.573 547.435 275.037 547.738C275.501 548.042 276.043 548.202 276.597 548.2C276.98 548.207 277.361 548.135 277.715 547.987C278.069 547.839 278.388 547.62 278.652 547.342C278.916 547.065 279.12 546.735 279.25 546.375C279.38 546.014 279.434 545.63 279.408 545.248Z" fill="#263238"/>
<path d="M289.503 544.636V549.032H288.482V544.73C288.528 544.414 288.502 544.092 288.406 543.787C288.31 543.483 288.147 543.204 287.928 542.971C287.709 542.739 287.44 542.559 287.142 542.444C286.844 542.33 286.524 542.285 286.206 542.312C285.843 542.287 285.478 542.342 285.139 542.473C284.799 542.603 284.492 542.807 284.24 543.069C283.987 543.33 283.794 543.644 283.676 543.988C283.557 544.332 283.515 544.698 283.552 545.06V549.032H282.532V541.449H283.505V542.846C283.811 542.366 284.241 541.978 284.75 541.724C285.258 541.469 285.827 541.358 286.394 541.402C286.822 541.368 287.251 541.431 287.652 541.583C288.053 541.736 288.415 541.975 288.712 542.285C289.009 542.594 289.234 542.965 289.371 543.372C289.507 543.778 289.552 544.21 289.503 544.636Z" fill="#263238"/>
<path d="M294.747 538.277C295.309 538.248 295.863 538.414 296.317 538.748L295.971 539.517C295.652 539.259 295.251 539.125 294.841 539.141C293.977 539.141 293.506 539.627 293.506 540.569V541.449H295.846V542.312H293.538V549.032H292.517V542.312H291.167V541.449H292.517V540.522C292.494 540.223 292.535 539.922 292.639 539.64C292.743 539.358 292.906 539.102 293.117 538.889C293.329 538.676 293.584 538.511 293.865 538.405C294.146 538.3 294.447 538.256 294.747 538.277ZM299.582 539.046C299.584 539.146 299.566 539.245 299.529 539.337C299.492 539.43 299.437 539.514 299.366 539.584C299.296 539.655 299.212 539.71 299.119 539.747C299.027 539.784 298.928 539.802 298.829 539.8C298.724 539.815 298.617 539.808 298.515 539.779C298.413 539.749 298.319 539.698 298.239 539.628C298.159 539.559 298.094 539.473 298.05 539.377C298.006 539.281 297.983 539.176 297.983 539.07C297.983 538.964 298.006 538.859 298.05 538.763C298.094 538.667 298.159 538.581 298.239 538.512C298.319 538.442 298.413 538.391 298.515 538.362C298.617 538.332 298.724 538.325 298.829 538.34C298.925 538.336 299.021 538.351 299.111 538.384C299.201 538.418 299.284 538.469 299.354 538.535C299.424 538.6 299.481 538.68 299.52 538.768C299.559 538.855 299.58 538.95 299.582 539.046ZM298.31 541.449H299.331V549.032H298.31V541.449Z" fill="#263238"/>
<path d="M306.003 541.401V542.39H305.752C305.392 542.373 305.031 542.435 304.698 542.573C304.364 542.711 304.065 542.921 303.822 543.188C303.579 543.455 303.398 543.773 303.292 544.118C303.186 544.463 303.157 544.828 303.209 545.185V549.047H302.22V541.464H303.193V542.956C303.452 542.445 303.858 542.023 304.359 541.746C304.86 541.469 305.433 541.349 306.003 541.401Z" fill="#263238"/>
<path d="M320.338 544.636V549.032H319.317V544.73C319.317 543.16 318.516 542.312 317.15 542.312C316.794 542.296 316.439 542.357 316.109 542.493C315.779 542.628 315.483 542.833 315.24 543.095C314.998 543.357 314.816 543.668 314.707 544.007C314.597 544.347 314.563 544.706 314.607 545.06V549.032H313.587V544.73C313.587 543.16 312.786 542.312 311.404 542.312C311.049 542.298 310.695 542.362 310.366 542.498C310.037 542.634 309.742 542.84 309.5 543.101C309.259 543.362 309.077 543.672 308.966 544.01C308.856 544.348 308.82 544.706 308.861 545.06V549.032H307.84V541.449H308.829V542.83C309.128 542.37 309.541 541.996 310.029 541.746C310.516 541.495 311.061 541.376 311.608 541.402C312.163 541.357 312.717 541.484 313.198 541.764C313.678 542.045 314.06 542.467 314.293 542.972C314.604 542.463 315.047 542.049 315.576 541.772C316.104 541.496 316.697 541.368 317.292 541.402C317.716 541.37 318.143 541.433 318.54 541.587C318.937 541.741 319.294 541.982 319.586 542.292C319.878 542.602 320.097 542.973 320.227 543.379C320.357 543.784 320.395 544.214 320.338 544.636Z" fill="#263238"/>
<path d="M335.535 538.952V549.032H334.656L328.172 540.852V549.032H327.104V538.952H327.983L334.483 547.132V538.952H335.535Z" fill="#263238"/>
<path d="M345.191 545.562H338.911C338.93 545.932 339.024 546.294 339.185 546.628C339.346 546.962 339.572 547.26 339.85 547.505C340.128 547.751 340.451 547.939 340.802 548.058C341.153 548.177 341.524 548.225 341.894 548.2C342.329 548.214 342.761 548.131 343.161 547.957C343.56 547.783 343.915 547.523 344.201 547.195L344.782 547.87C344.238 548.438 343.539 548.833 342.771 549.006C342.004 549.179 341.203 549.123 340.467 548.843C339.732 548.563 339.096 548.073 338.637 547.434C338.179 546.794 337.919 546.034 337.89 545.248C337.862 544.749 337.937 544.249 338.11 543.78C338.284 543.311 338.552 542.883 338.898 542.522C339.244 542.161 339.661 541.876 340.122 541.683C340.584 541.49 341.08 541.394 341.58 541.402C342.079 541.392 342.576 541.486 343.038 541.678C343.499 541.87 343.916 542.156 344.261 542.518C344.607 542.879 344.873 543.309 345.044 543.779C345.215 544.249 345.286 544.749 345.253 545.248C345.206 545.327 345.191 545.436 345.191 545.562ZM338.911 544.793H344.28C344.28 544.081 343.997 543.398 343.494 542.894C342.99 542.391 342.307 542.108 341.595 542.108C340.883 542.108 340.2 542.391 339.697 542.894C339.193 543.398 338.911 544.081 338.911 544.793Z" fill="#263238"/>
<path d="M358.269 541.448L355.396 549.032H354.438L352.052 542.83L349.665 549.032H348.692L345.85 541.448H346.823L349.194 547.885L351.628 541.448H352.46L354.878 547.885L357.28 541.448H358.269Z" fill="#263238"/>
<path d="M371.692 542.406C371.692 544.557 370.122 545.845 367.563 545.845H364.863V548.985H363.795V538.905H367.563C370.138 538.952 371.692 540.24 371.692 542.406ZM370.624 542.406C370.624 540.836 369.557 539.879 367.484 539.879H364.863V544.918H367.547C369.557 544.918 370.624 543.992 370.624 542.406Z" fill="#263238"/>
<path d="M379.417 544.337V549.047H378.443V547.87C378.158 548.289 377.766 548.625 377.308 548.843C376.85 549.061 376.342 549.153 375.837 549.11C374.126 549.11 373.074 548.215 373.074 546.912C373.074 545.609 373.812 544.73 376.01 544.73H378.412V544.275C378.412 542.987 377.674 542.281 376.261 542.281C375.346 542.27 374.457 542.581 373.749 543.16L373.294 542.406C374.187 541.706 375.299 541.344 376.434 541.386C376.834 541.339 377.24 541.382 377.621 541.514C378.002 541.645 378.349 541.86 378.635 542.144C378.922 542.427 379.141 542.772 379.276 543.151C379.411 543.531 379.459 543.937 379.417 544.337ZM378.396 546.755V545.515H376.01C374.534 545.515 374.063 546.096 374.063 546.865C374.063 547.634 374.769 548.294 375.978 548.294C376.492 548.326 377.003 548.195 377.438 547.918C377.872 547.642 378.208 547.235 378.396 546.755Z" fill="#263238"/>
<path d="M381.144 548.168L381.615 547.352C382.394 547.918 383.336 548.216 384.299 548.2C385.744 548.2 386.325 547.713 386.325 546.975C386.325 544.997 381.426 546.551 381.426 543.552C381.426 542.312 382.494 541.402 384.409 541.402C385.353 541.381 386.283 541.626 387.094 542.108L386.654 542.924C385.987 542.49 385.205 542.266 384.409 542.281C383.043 542.281 382.447 542.815 382.447 543.521C382.447 545.578 387.361 544.039 387.361 546.944C387.361 548.247 386.199 549.095 384.221 549.095C383.122 549.125 382.043 548.8 381.144 548.168Z" fill="#263238"/>
<path d="M388.193 548.168L388.648 547.352C389.435 547.915 390.381 548.212 391.349 548.2C392.777 548.2 393.374 547.713 393.374 546.975C393.374 544.997 388.46 546.551 388.46 543.552C388.46 542.312 389.527 541.402 391.458 541.402C392.397 541.383 393.321 541.628 394.127 542.108L393.688 542.925C393.027 542.49 392.249 542.266 391.458 542.281C390.093 542.281 389.48 542.815 389.48 543.521C389.48 545.578 394.394 544.039 394.394 546.944C394.394 548.247 393.248 549.095 391.254 549.095C390.16 549.128 389.085 548.802 388.193 548.168Z" fill="#263238"/>
<path d="M407.253 541.448L404.38 549.032H403.422L401.035 542.83L398.649 549.032H397.676L394.85 541.448H395.823L398.194 547.885L400.627 541.448H401.506L403.924 547.885L406.326 541.448H407.253Z" fill="#263238"/>
<path d="M407.818 545.248C407.818 544.488 408.043 543.745 408.465 543.113C408.887 542.48 409.487 541.987 410.189 541.696C410.891 541.404 411.664 541.327 412.409 541.474C413.155 541.621 413.84 541.986 414.379 542.522C414.918 543.059 415.285 543.743 415.435 544.488C415.585 545.233 415.512 546.006 415.223 546.709C414.934 547.412 414.443 548.014 413.813 548.438C413.183 548.863 412.44 549.091 411.68 549.094C411.169 549.114 410.659 549.028 410.183 548.842C409.706 548.656 409.274 548.374 408.911 548.013C408.549 547.652 408.265 547.22 408.076 546.744C407.888 546.268 407.8 545.759 407.818 545.248ZM414.475 545.248C414.447 544.698 414.259 544.169 413.933 543.725C413.607 543.282 413.158 542.944 412.642 542.753C412.126 542.562 411.565 542.527 411.029 542.652C410.493 542.778 410.006 543.057 409.627 543.457C409.249 543.857 408.996 544.359 408.901 544.9C408.805 545.442 408.87 546.001 409.089 546.506C409.308 547.011 409.67 547.44 410.13 547.741C410.591 548.043 411.13 548.202 411.68 548.199C412.062 548.205 412.441 548.131 412.793 547.982C413.145 547.834 413.462 547.614 413.725 547.336C413.987 547.059 414.19 546.73 414.319 546.371C414.448 546.011 414.501 545.629 414.475 545.248Z" fill="#263238"/>
<path d="M421.414 541.402V542.391H421.179C420.818 542.373 420.458 542.436 420.124 542.573C419.79 542.711 419.491 542.921 419.248 543.188C419.005 543.455 418.824 543.773 418.718 544.118C418.612 544.463 418.584 544.828 418.635 545.185V549.047H417.599V541.464H418.588V542.956C418.848 542.442 419.257 542.019 419.761 541.742C420.265 541.465 420.841 541.346 421.414 541.402Z" fill="#263238"/>
<path d="M430.096 538.34V549.032H429.123V547.462C428.82 547.96 428.39 548.369 427.877 548.645C427.363 548.921 426.785 549.054 426.202 549.032C425.182 549.032 424.204 548.626 423.483 547.905C422.761 547.184 422.356 546.205 422.356 545.185C422.356 544.165 422.761 543.187 423.483 542.465C424.204 541.744 425.182 541.339 426.202 541.339C426.769 541.319 427.331 541.446 427.835 541.707C428.338 541.969 428.765 542.355 429.076 542.83V538.277L430.096 538.34ZM429.091 545.248C429.064 544.699 428.876 544.17 428.551 543.727C428.225 543.284 427.777 542.946 427.262 542.754C426.747 542.563 426.187 542.527 425.651 542.651C425.116 542.775 424.628 543.053 424.249 543.451C423.87 543.849 423.616 544.35 423.519 544.891C423.421 545.432 423.485 545.989 423.701 546.495C423.917 547 424.277 547.431 424.735 547.734C425.194 548.037 425.731 548.199 426.281 548.199C426.664 548.207 427.045 548.135 427.399 547.987C427.752 547.839 428.071 547.62 428.336 547.342C428.6 547.065 428.804 546.735 428.934 546.374C429.064 546.014 429.117 545.63 429.091 545.248Z" fill="#263238"/>
</g>
<path opacity="0.2" d="M457.87 595.927H252.451V631.096H457.87V595.927Z" fill="black"/>
<path d="M457.87 593.761H252.451V628.929H457.87V593.761Z" fill="#3B8AFF"/>
<path d="M297.243 615.38L297.887 614.03C299.005 614.949 300.412 615.444 301.859 615.427C303.931 615.427 304.826 614.626 304.826 613.574C304.826 610.638 297.541 612.491 297.541 608.016C297.541 606.164 298.986 604.578 302.142 604.578C303.51 604.553 304.857 604.923 306.019 605.646L305.454 607.012C304.463 606.384 303.315 606.047 302.142 606.038C300.101 606.038 299.221 606.902 299.221 607.954C299.221 610.89 306.522 609.053 306.522 613.464C306.522 615.317 304.952 616.887 301.812 616.887C300.16 616.929 298.545 616.396 297.243 615.38Z" fill="white"/>
<path d="M316.994 612.805H309.599C309.716 613.585 310.121 614.292 310.735 614.786C311.348 615.281 312.125 615.526 312.912 615.474C313.402 615.49 313.89 615.399 314.342 615.21C314.795 615.02 315.201 614.735 315.534 614.375L316.444 615.443C315.774 616.126 314.921 616.602 313.987 616.811C313.053 617.021 312.078 616.956 311.18 616.624C310.283 616.292 309.5 615.707 308.927 614.941C308.354 614.174 308.015 613.258 307.951 612.303C307.918 611.688 308.013 611.072 308.229 610.496C308.445 609.919 308.778 609.393 309.207 608.951C309.636 608.509 310.152 608.16 310.721 607.926C311.291 607.692 311.903 607.579 312.519 607.593C313.133 607.576 313.744 607.688 314.312 607.921C314.88 608.155 315.393 608.504 315.817 608.948C316.242 609.392 316.568 609.92 316.777 610.497C316.985 611.075 317.069 611.69 317.025 612.303C317.025 612.444 317.01 612.648 316.994 612.805ZM309.599 611.628H315.455C315.365 610.915 315.017 610.26 314.478 609.785C313.939 609.31 313.246 609.048 312.527 609.048C311.809 609.048 311.115 609.31 310.576 609.785C310.037 610.26 309.69 610.915 309.599 611.628Z" fill="white"/>
<path d="M324.451 616.291C323.878 616.721 323.174 616.943 322.457 616.919C322.07 616.963 321.678 616.92 321.309 616.792C320.941 616.665 320.605 616.456 320.328 616.182C320.051 615.908 319.839 615.575 319.707 615.208C319.576 614.841 319.528 614.449 319.569 614.061V609.1H317.999V607.75H319.569V605.756H321.217V607.75H323.839V609.1H321.217V614.045C321.18 614.248 321.19 614.455 321.247 614.653C321.303 614.85 321.404 615.032 321.543 615.184C321.681 615.336 321.852 615.454 322.044 615.529C322.235 615.604 322.441 615.633 322.646 615.615C323.111 615.628 323.566 615.478 323.933 615.192L324.451 616.291Z" fill="white"/>
<path d="M341.046 608.974C341.046 611.596 339.146 613.166 336.022 613.166H333.039V616.824H331.328V604.782H336.038C339.146 604.782 341.046 606.352 341.046 608.974ZM339.319 608.974C339.319 607.247 338.173 606.274 335.975 606.274H333.039V611.675H335.975C338.173 611.675 339.319 610.67 339.319 608.974Z" fill="white"/>
<path d="M350.482 611.313V616.824H348.912V615.615C348.561 616.066 348.103 616.422 347.579 616.65C347.055 616.878 346.482 616.97 345.913 616.918C343.856 616.918 342.553 615.819 342.553 614.234C342.553 612.648 343.495 611.565 346.211 611.565H348.833V611.251C348.833 609.853 348.017 609.037 346.384 609.037C345.338 609.037 344.322 609.385 343.495 610.026L342.804 608.786C343.895 607.986 345.221 607.572 346.572 607.608C349.069 607.608 350.482 608.817 350.482 611.313ZM348.833 614.03V612.758H346.274C344.704 612.758 344.186 613.402 344.186 614.171C344.186 614.94 344.94 615.647 346.196 615.647C346.749 615.687 347.301 615.552 347.774 615.262C348.248 614.972 348.618 614.541 348.833 614.03Z" fill="white"/>
<path d="M352.46 615.851L353.151 614.548C354.086 615.155 355.176 615.482 356.291 615.49C357.861 615.49 358.457 615.035 358.457 614.25C358.457 612.209 352.695 613.983 352.695 610.356C352.695 608.786 354.156 607.608 356.495 607.608C357.658 607.588 358.806 607.875 359.823 608.441L359.117 609.744C358.328 609.247 357.41 608.996 356.479 609.021C355.035 609.021 354.328 609.555 354.328 610.277C354.328 612.428 360.122 610.67 360.122 614.218C360.122 615.867 358.552 616.919 356.181 616.919C354.861 616.95 353.563 616.577 352.46 615.851Z" fill="white"/>
<path d="M361.017 615.851L361.707 614.548C362.643 615.155 363.732 615.482 364.847 615.49C366.417 615.49 367.014 615.034 367.014 614.249C367.014 612.208 361.252 613.982 361.252 610.356C361.252 608.786 362.712 607.608 365.051 607.608C366.21 607.59 367.352 607.877 368.364 608.44L367.658 609.743C366.874 609.25 365.962 608.999 365.036 609.021C363.591 609.021 362.885 609.555 362.885 610.277C362.885 612.428 368.662 610.67 368.662 614.218C368.662 615.866 367.092 616.918 364.722 616.918C363.407 616.945 362.116 616.572 361.017 615.851Z" fill="white"/>
<path d="M384.41 607.703L381.003 616.824H379.433L376.795 609.901L374.126 616.824H372.556L369.181 607.703H370.751L373.404 614.956L376.151 607.703H377.58L380.281 614.987L382.997 607.703H384.41Z" fill="white"/>
<path d="M384.99 612.24C384.99 611.308 385.266 610.398 385.784 609.623C386.302 608.848 387.037 608.245 387.898 607.888C388.758 607.532 389.705 607.439 390.619 607.62C391.533 607.802 392.372 608.251 393.031 608.909C393.689 609.568 394.138 610.407 394.32 611.321C394.501 612.235 394.408 613.182 394.052 614.042C393.695 614.903 393.092 615.638 392.317 616.156C391.542 616.674 390.632 616.95 389.7 616.95C389.075 616.974 388.452 616.869 387.869 616.641C387.287 616.413 386.758 616.067 386.316 615.624C385.873 615.182 385.527 614.653 385.299 614.071C385.071 613.488 384.966 612.865 384.99 612.24ZM392.84 612.24C392.825 611.619 392.625 611.017 392.267 610.509C391.909 610.002 391.409 609.612 390.83 609.389C390.25 609.166 389.617 609.12 389.012 609.256C388.406 609.392 387.854 609.705 387.426 610.155C386.998 610.605 386.713 611.172 386.607 611.784C386.501 612.395 386.579 613.025 386.831 613.593C387.083 614.16 387.497 614.64 388.022 614.972C388.547 615.305 389.158 615.474 389.779 615.458C390.194 615.464 390.607 615.383 390.989 615.22C391.372 615.058 391.717 614.818 392.002 614.515C392.286 614.213 392.505 613.854 392.644 613.462C392.783 613.071 392.839 612.654 392.809 612.24H392.84Z" fill="white"/>
<path d="M401.664 607.608V609.178H401.287C400.879 609.149 400.469 609.213 400.089 609.365C399.709 609.516 399.368 609.752 399.092 610.054C398.815 610.356 398.611 610.716 398.494 611.109C398.376 611.501 398.349 611.914 398.414 612.318V616.871H396.844V607.75H398.414V609.32C398.742 608.76 399.221 608.303 399.795 608.001C400.369 607.699 401.016 607.563 401.664 607.608Z" fill="white"/>
<path d="M412.214 604.06V616.824H410.644V615.38C410.271 615.886 409.78 616.294 409.214 616.568C408.648 616.841 408.023 616.972 407.394 616.95C406.283 616.778 405.269 616.215 404.537 615.361C403.804 614.507 403.402 613.42 403.402 612.295C403.402 611.17 403.804 610.082 404.537 609.228C405.269 608.375 406.283 607.811 407.394 607.64C407.996 607.625 408.594 607.751 409.139 608.007C409.684 608.263 410.162 608.643 410.534 609.115V604.091L412.214 604.06ZM410.55 612.24C410.534 611.619 410.335 611.017 409.977 610.509C409.619 610.002 409.119 609.612 408.539 609.389C407.96 609.166 407.327 609.119 406.722 609.256C406.116 609.392 405.564 609.705 405.136 610.155C404.708 610.605 404.423 611.172 404.317 611.784C404.211 612.395 404.289 613.025 404.541 613.593C404.793 614.16 405.207 614.64 405.732 614.972C406.257 615.304 406.868 615.474 407.489 615.458C407.907 615.468 408.323 615.39 408.709 615.23C409.095 615.07 409.444 614.83 409.732 614.527C410.021 614.224 410.242 613.864 410.383 613.47C410.524 613.076 410.581 612.657 410.55 612.24Z" fill="white"/>
<g opacity="0.6">
<path d="M290.304 423.989L287.462 419.938C287.195 419.938 286.913 419.938 286.63 419.938H283.38V423.942H281.496V410.754H286.63C290.053 410.754 292.125 412.496 292.125 415.354C292.168 416.268 291.909 417.172 291.387 417.924C290.864 418.676 290.108 419.235 289.236 419.514L292.376 423.942L290.304 423.989ZM290.304 415.401C290.304 413.517 289.048 412.449 286.63 412.449H283.49V418.384H286.63C288.985 418.384 290.241 417.285 290.241 415.401H290.304Z" fill="#263238"/>
<path d="M303.9 419.608H295.815C295.929 420.463 296.367 421.242 297.039 421.783C297.712 422.323 298.566 422.585 299.426 422.513C299.962 422.533 300.497 422.437 300.993 422.231C301.489 422.025 301.934 421.714 302.299 421.32L303.304 422.481C302.567 423.23 301.629 423.749 300.603 423.976C299.577 424.202 298.508 424.126 297.524 423.758C296.541 423.389 295.685 422.743 295.061 421.898C294.437 421.052 294.072 420.045 294.009 418.996C293.981 418.327 294.091 417.66 294.331 417.035C294.572 416.41 294.939 415.842 295.408 415.365C295.878 414.887 296.441 414.512 297.062 414.262C297.683 414.011 298.348 413.891 299.018 413.909C299.684 413.893 300.347 414.015 300.964 414.268C301.581 414.521 302.139 414.899 302.602 415.379C303.065 415.858 303.424 416.429 303.656 417.054C303.887 417.679 303.987 418.346 303.947 419.012C303.948 419.212 303.933 419.411 303.9 419.608ZM295.815 418.305H302.22C302.22 417.458 301.884 416.645 301.285 416.046C300.685 415.447 299.873 415.11 299.025 415.11C298.178 415.11 297.365 415.447 296.766 416.046C296.167 416.645 295.83 417.458 295.83 418.305H295.815Z" fill="#263238"/>
<path d="M305.188 422.937L305.941 421.508C306.985 422.182 308.2 422.541 309.442 422.544C311.122 422.544 311.813 422.026 311.813 421.178C311.813 418.949 305.533 420.88 305.533 416.908C305.533 415.118 307.103 413.909 309.693 413.909C310.961 413.891 312.212 414.205 313.32 414.82L312.551 416.249C311.689 415.714 310.691 415.441 309.678 415.464C308.108 415.464 307.323 416.044 307.323 416.829C307.323 419.184 313.603 417.269 313.603 421.147C313.603 422.952 311.939 424.099 309.285 424.099C307.833 424.133 306.405 423.728 305.188 422.937Z" fill="#263238"/>
<path d="M324.875 419.608H316.774C316.895 420.46 317.336 421.234 318.006 421.774C318.677 422.313 319.527 422.577 320.385 422.513C320.924 422.533 321.461 422.437 321.96 422.231C322.458 422.025 322.906 421.714 323.274 421.32L324.279 422.481C323.775 423.013 323.161 423.429 322.481 423.7C321.801 423.971 321.069 424.091 320.338 424.051C319.642 424.104 318.943 424.011 318.285 423.777C317.628 423.542 317.026 423.173 316.52 422.692C316.014 422.211 315.615 421.63 315.348 420.985C315.08 420.34 314.951 419.647 314.969 418.949C314.943 418.281 315.054 417.614 315.295 416.99C315.537 416.367 315.904 415.799 316.373 415.323C316.842 414.846 317.404 414.471 318.024 414.219C318.644 413.968 319.308 413.847 319.977 413.862C320.648 413.843 321.316 413.965 321.938 414.219C322.56 414.474 323.121 414.857 323.585 415.342C324.05 415.827 324.408 416.405 324.635 417.037C324.863 417.669 324.955 418.342 324.907 419.012C324.907 419.2 324.891 419.436 324.875 419.608ZM316.774 418.305H323.18C323.101 417.51 322.729 416.773 322.137 416.237C321.546 415.701 320.775 415.404 319.977 415.404C319.178 415.404 318.408 415.701 317.816 416.237C317.224 416.773 316.853 417.51 316.774 418.305Z" fill="#263238"/>
<path d="M333.039 423.408C332.413 423.882 331.642 424.126 330.857 424.099C330.434 424.143 330.006 424.092 329.605 423.95C329.204 423.808 328.839 423.578 328.538 423.277C328.237 422.976 328.008 422.612 327.865 422.211C327.723 421.81 327.673 421.382 327.717 420.959V415.479H326.021V413.988H327.717V411.805H329.523V413.988H332.38V415.479H329.523V420.88C329.491 421.098 329.51 421.321 329.576 421.531C329.642 421.742 329.755 421.935 329.905 422.096C330.056 422.257 330.241 422.382 330.446 422.463C330.652 422.543 330.873 422.576 331.093 422.56C331.603 422.562 332.099 422.397 332.506 422.089L333.039 423.408Z" fill="#263238"/>
<path d="M351.188 415.401C351.188 418.258 349.116 420.001 345.693 420.001H342.444V423.989H340.56V410.801H345.693C349.116 410.801 351.188 412.543 351.188 415.401ZM349.304 415.401C349.304 413.517 348.048 412.449 345.631 412.449H342.491V418.352H345.631C348.048 418.352 349.32 417.285 349.32 415.401H349.304Z" fill="#263238"/>
<path d="M361.519 417.96V423.989H359.808V422.67C359.426 423.166 358.925 423.557 358.351 423.807C357.777 424.057 357.15 424.157 356.526 424.099C354.266 424.099 352.837 422.89 352.837 421.163C352.837 419.436 353.873 418.243 356.84 418.243H359.714V417.881C359.714 416.311 358.819 415.479 357.029 415.479C355.891 415.47 354.784 415.846 353.889 416.547L353.135 415.197C354.329 414.319 355.783 413.866 357.264 413.909C359.98 413.909 361.519 415.228 361.519 417.96ZM359.714 420.943V419.546H356.919C355.129 419.546 354.627 420.236 354.627 421.116C354.627 421.995 355.459 422.686 356.825 422.686C357.428 422.735 358.032 422.593 358.55 422.28C359.068 421.967 359.475 421.5 359.714 420.943Z" fill="#263238"/>
<path d="M363.607 422.937L364.361 421.508C365.404 422.182 366.619 422.541 367.862 422.544C369.542 422.544 370.248 422.026 370.248 421.178C370.248 418.949 363.968 420.88 363.968 416.908C363.968 415.118 365.538 413.909 368.129 413.909C369.397 413.888 370.648 414.202 371.755 414.82L370.986 416.248C370.125 415.712 369.127 415.439 368.113 415.463C366.543 415.463 365.758 416.044 365.758 416.829C365.758 419.184 372.038 417.269 372.038 421.147C372.038 422.952 370.374 424.098 367.72 424.098C366.264 424.133 364.83 423.728 363.607 422.937Z" fill="#263238"/>
<path d="M373.059 422.937L373.812 421.508C374.855 422.183 376.071 422.543 377.313 422.544C378.977 422.544 379.684 422.026 379.684 421.178C379.684 418.949 373.404 420.88 373.404 416.908C373.404 415.118 374.974 413.909 377.564 413.909C378.837 413.891 380.093 414.205 381.207 414.82L380.422 416.249C379.561 415.712 378.563 415.439 377.549 415.464C375.979 415.464 375.194 416.044 375.194 416.829C375.194 419.184 381.474 417.269 381.474 421.147C381.474 422.952 379.81 424.099 377.156 424.099C375.704 424.136 374.275 423.731 373.059 422.937Z" fill="#263238"/>
<path d="M398.665 414.003L394.944 423.989H393.28L390.407 416.421L387.487 423.989H385.744L382.039 414.003H383.75L386.655 421.963L389.669 414.003H391.239L394.191 421.995L397.174 414.003H398.665Z" fill="#263238"/>
<path d="M399.293 419.012C399.275 417.98 399.563 416.966 400.123 416.099C400.682 415.233 401.487 414.552 402.435 414.144C403.383 413.736 404.431 413.62 405.445 413.81C406.459 413.999 407.394 414.487 408.13 415.21C408.866 415.932 409.371 416.858 409.579 417.869C409.787 418.879 409.69 419.929 409.299 420.884C408.909 421.839 408.243 422.656 407.387 423.232C406.53 423.807 405.522 424.114 404.49 424.114C403.807 424.145 403.126 424.034 402.488 423.79C401.85 423.545 401.269 423.172 400.782 422.694C400.294 422.215 399.91 421.641 399.654 421.008C399.398 420.374 399.275 419.695 399.293 419.012ZM407.85 419.012C407.819 418.355 407.596 417.721 407.209 417.19C406.821 416.658 406.287 416.252 405.671 416.022C405.055 415.792 404.385 415.747 403.743 415.894C403.102 416.041 402.519 416.372 402.064 416.848C401.61 417.323 401.305 417.922 401.188 418.569C401.07 419.216 401.145 419.883 401.404 420.488C401.662 421.093 402.092 421.609 402.641 421.971C403.189 422.334 403.832 422.528 404.49 422.529C404.948 422.541 405.403 422.457 405.827 422.282C406.251 422.108 406.633 421.846 406.95 421.515C407.266 421.184 407.51 420.79 407.665 420.359C407.82 419.928 407.883 419.469 407.85 419.012Z" fill="#263238"/>
<path d="M417.552 413.909V415.668H417.128C416.689 415.638 416.249 415.706 415.839 415.868C415.43 416.03 415.061 416.28 414.761 416.602C414.46 416.924 414.235 417.308 414.101 417.728C413.968 418.147 413.929 418.591 413.988 419.027V424.004H412.12V414.019H413.847V415.699C414.23 415.079 414.783 414.581 415.439 414.264C416.095 413.947 416.828 413.824 417.552 413.909Z" fill="#263238"/>
<path d="M429.092 410.016V423.989H427.365V422.419C426.954 422.97 426.414 423.413 425.793 423.708C425.172 424.004 424.488 424.143 423.801 424.114C422.499 424.042 421.274 423.474 420.377 422.526C419.481 421.579 418.981 420.324 418.981 419.02C418.981 417.715 419.481 416.461 420.377 415.513C421.274 414.566 422.499 413.997 423.801 413.925C424.464 413.898 425.124 414.026 425.729 414.298C426.334 414.571 426.867 414.981 427.286 415.495V410L429.092 410.016ZM427.302 419.012C427.271 418.354 427.048 417.72 426.66 417.188C426.272 416.657 425.736 416.25 425.119 416.021C424.502 415.791 423.832 415.747 423.19 415.895C422.549 416.043 421.965 416.377 421.511 416.854C421.058 417.331 420.754 417.931 420.638 418.579C420.523 419.227 420.6 419.895 420.861 420.499C421.121 421.104 421.554 421.618 422.105 421.979C422.655 422.34 423.3 422.531 423.958 422.529C424.415 422.539 424.868 422.453 425.29 422.277C425.712 422.102 426.092 421.84 426.407 421.509C426.722 421.178 426.964 420.785 427.118 420.355C427.272 419.925 427.335 419.467 427.302 419.012Z" fill="#263238"/>
</g>
<path d="M457.87 474.331H252.451V509.499H457.87V474.331Z" fill="white"/>
<g opacity="0.4">
<path d="M272.123 486.185V496.264H271.244L264.76 488.084V496.264H263.692V486.185H264.54L271.04 494.364V486.185H272.123Z" fill="#263238"/>
<path d="M281.81 492.794H275.53C275.55 493.164 275.643 493.527 275.805 493.86C275.966 494.194 276.192 494.492 276.47 494.737C276.747 494.983 277.071 495.171 277.422 495.29C277.772 495.409 278.143 495.457 278.513 495.432C278.947 495.446 279.378 495.364 279.777 495.193C280.176 495.023 280.532 494.766 280.821 494.443L281.402 495.102C280.858 495.67 280.158 496.066 279.391 496.239C278.624 496.412 277.822 496.355 277.087 496.075C276.352 495.795 275.715 495.305 275.257 494.666C274.798 494.027 274.539 493.266 274.51 492.48C274.482 491.981 274.557 491.481 274.73 491.012C274.903 490.543 275.172 490.115 275.518 489.754C275.864 489.394 276.28 489.108 276.742 488.915C277.203 488.722 277.699 488.626 278.199 488.634C278.699 488.624 279.196 488.718 279.657 488.91C280.119 489.102 280.536 489.388 280.881 489.75C281.226 490.112 281.493 490.541 281.664 491.011C281.834 491.481 281.906 491.981 281.873 492.48C281.81 492.574 281.81 492.684 281.81 492.794ZM275.53 492.041H280.9C280.9 491.329 280.617 490.646 280.113 490.142C279.61 489.639 278.927 489.356 278.215 489.356C277.503 489.356 276.82 489.639 276.316 490.142C275.813 490.646 275.53 491.329 275.53 492.041Z" fill="#263238"/>
<path d="M294.857 488.697L291.999 496.264H291.026L288.64 490.062L286.253 496.264H285.28L282.438 488.697H283.38L285.751 495.134L288.184 488.697H289.063L291.481 495.134L293.883 488.697H294.857Z" fill="#263238"/>
<path d="M308.28 489.638C308.28 491.789 306.71 493.092 304.167 493.092H301.451V496.232H300.383V486.153H304.167C306.726 486.184 308.28 487.488 308.28 489.638ZM307.213 489.638C307.213 488.068 306.145 487.111 304.073 487.111H301.388V492.15H304.073C306.145 492.15 307.213 491.224 307.213 489.638Z" fill="#263238"/>
<path d="M316.005 491.569V496.28H315.032V495.102C314.751 495.527 314.36 495.868 313.901 496.089C313.443 496.31 312.933 496.403 312.425 496.358C310.714 496.358 309.662 495.463 309.662 494.16C309.662 492.857 310.416 492.009 312.582 492.009H314.984V491.554C315.012 491.272 314.974 490.988 314.875 490.723C314.775 490.457 314.616 490.219 314.41 490.025C314.204 489.831 313.956 489.686 313.686 489.603C313.415 489.52 313.129 489.5 312.849 489.544C311.926 489.528 311.029 489.846 310.322 490.439L309.866 489.67C310.759 488.969 311.872 488.608 313.006 488.649C313.405 488.6 313.809 488.642 314.19 488.77C314.571 488.898 314.918 489.111 315.205 489.391C315.493 489.671 315.714 490.012 315.853 490.389C315.991 490.766 316.043 491.17 316.005 491.569ZM314.984 493.987V492.747H312.614C311.138 492.747 310.667 493.328 310.667 494.113C310.667 494.898 311.373 495.542 312.582 495.542C313.096 495.572 313.606 495.437 314.038 495.158C314.47 494.878 314.802 494.468 314.984 493.987Z" fill="#263238"/>
<path d="M317.732 495.4L318.203 494.6C318.986 495.159 319.926 495.456 320.888 495.447C322.332 495.447 322.929 494.961 322.929 494.207C322.929 492.229 318.015 493.799 318.015 490.8C318.015 489.56 319.082 488.634 321.013 488.634C321.95 488.623 322.873 488.868 323.682 489.34L323.243 490.157C322.581 489.724 321.804 489.5 321.013 489.513C319.632 489.513 319.035 490.047 319.035 490.769C319.035 492.81 323.949 491.271 323.949 494.176C323.949 495.494 322.787 496.342 320.809 496.342C319.709 496.368 318.629 496.038 317.732 495.4Z" fill="#263238"/>
<path d="M324.781 495.4L325.237 494.6C326.028 495.153 326.971 495.448 327.937 495.448C329.366 495.448 329.962 494.961 329.962 494.207C329.962 492.229 325.048 493.799 325.048 490.8C325.048 489.56 326.116 488.634 328.047 488.634C328.989 488.625 329.916 488.869 330.732 489.34L330.276 490.157C329.616 489.72 328.838 489.496 328.047 489.513C326.681 489.513 326.069 490.047 326.069 490.769C326.069 492.81 330.983 491.271 330.983 494.176C330.983 495.495 329.837 496.342 327.843 496.342C326.747 496.371 325.672 496.04 324.781 495.4Z" fill="#263238"/>
<path d="M343.841 488.697L340.983 496.264H340.01L337.624 490.062L335.19 496.264H334.217L331.375 488.697H332.348L334.719 495.134L337.153 488.697H338.032L340.45 495.134L342.852 488.697H343.841Z" fill="#263238"/>
<path d="M344.406 492.48C344.409 491.721 344.637 490.979 345.061 490.349C345.485 489.719 346.086 489.228 346.788 488.939C347.49 488.65 348.262 488.575 349.007 488.724C349.752 488.873 350.435 489.239 350.972 489.776C351.509 490.313 351.875 490.997 352.024 491.742C352.173 492.486 352.098 493.258 351.809 493.961C351.52 494.663 351.03 495.264 350.399 495.688C349.769 496.111 349.028 496.339 348.268 496.342C347.756 496.362 347.245 496.276 346.767 496.089C346.29 495.902 345.856 495.618 345.493 495.255C345.13 494.893 344.847 494.459 344.66 493.981C344.473 493.504 344.386 492.993 344.406 492.48ZM351.063 492.48C351.035 491.931 350.847 491.401 350.521 490.958C350.195 490.514 349.746 490.176 349.23 489.985C348.714 489.795 348.153 489.76 347.617 489.885C347.081 490.01 346.594 490.29 346.215 490.689C345.837 491.089 345.584 491.591 345.489 492.133C345.393 492.675 345.459 493.233 345.677 493.738C345.896 494.243 346.258 494.673 346.718 494.974C347.179 495.275 347.718 495.434 348.268 495.432C348.65 495.437 349.029 495.363 349.381 495.214C349.733 495.066 350.05 494.846 350.313 494.569C350.575 494.291 350.778 493.962 350.907 493.603C351.036 493.244 351.089 492.861 351.063 492.48Z" fill="#263238"/>
<path d="M358.018 488.634V489.639H357.767C357.407 489.619 357.047 489.679 356.713 489.815C356.379 489.951 356.08 490.159 355.836 490.425C355.593 490.691 355.412 491.008 355.306 491.352C355.2 491.697 355.171 492.061 355.223 492.417V496.28H354.187V488.712H355.176V490.188C355.437 489.672 355.848 489.247 356.355 488.969C356.863 488.692 357.443 488.575 358.018 488.634Z" fill="#263238"/>
<path d="M366.684 485.588V496.264H365.711V494.772C365.409 495.271 364.979 495.679 364.465 495.956C363.952 496.232 363.373 496.365 362.791 496.342C361.811 496.28 360.892 495.847 360.22 495.131C359.549 494.415 359.175 493.47 359.175 492.488C359.175 491.506 359.549 490.561 360.22 489.845C360.892 489.13 361.811 488.696 362.791 488.634C363.365 488.621 363.933 488.759 364.437 489.035C364.941 489.31 365.364 489.713 365.664 490.204V485.651L366.684 485.588ZM365.68 492.48C365.652 491.931 365.464 491.402 365.139 490.959C364.814 490.516 364.366 490.178 363.851 489.987C363.335 489.795 362.775 489.76 362.24 489.883C361.704 490.007 361.217 490.286 360.838 490.684C360.459 491.082 360.205 491.582 360.107 492.123C360.01 492.664 360.073 493.222 360.289 493.727C360.505 494.232 360.865 494.663 361.324 494.966C361.782 495.269 362.32 495.431 362.869 495.432C363.253 495.439 363.633 495.367 363.987 495.219C364.341 495.072 364.66 494.852 364.924 494.574C365.188 494.297 365.392 493.967 365.522 493.607C365.652 493.246 365.706 492.863 365.68 492.48Z" fill="#263238"/>
</g>
<path d="M493.287 377.972C498.183 369.44 506.265 363.2 515.758 360.621C525.251 358.043 535.379 359.336 543.919 364.219L542.349 366.872L552.868 364.015L550.011 353.496L548.441 356.133C538.91 350.671 527.749 348.766 516.946 350.759C506.142 352.752 496.396 358.513 489.441 367.017C482.486 375.52 478.773 386.215 478.962 397.2C479.152 408.184 483.232 418.744 490.477 427.003L497.479 420.864C492.399 415.043 489.264 407.779 488.512 400.09C487.761 392.4 489.43 384.667 493.287 377.972Z" fill="#263238"/>
<path d="M560.797 366.385L553.732 372.367C559.382 379.023 562.503 387.459 562.546 396.189C562.589 404.92 559.552 413.386 553.969 420.098C548.386 426.81 540.615 431.338 532.022 432.885C523.43 434.433 514.567 432.9 506.993 428.557L508.563 425.904L497.997 428.887L500.854 439.406L502.424 436.753C511.906 442.147 522.985 444.029 533.716 442.071C544.447 440.112 554.146 434.437 561.111 426.041C568.076 417.645 571.862 407.064 571.804 396.156C571.747 385.247 567.85 374.707 560.797 366.385Z" fill="#263238"/>
<g opacity="0.6">
<path d="M493.287 377.972C498.183 369.44 506.265 363.2 515.758 360.621C525.251 358.043 535.379 359.336 543.919 364.219L542.349 366.872L552.868 364.015L550.011 353.496L548.441 356.133C538.91 350.671 527.749 348.766 516.946 350.759C506.142 352.752 496.396 358.513 489.441 367.017C482.486 375.52 478.773 386.215 478.962 397.2C479.152 408.184 483.232 418.744 490.477 427.003L497.479 420.864C492.399 415.043 489.264 407.779 488.512 400.09C487.761 392.4 489.43 384.667 493.287 377.972Z" fill="white"/>
<path d="M560.797 366.385L553.732 372.367C559.382 379.023 562.503 387.459 562.546 396.189C562.589 404.92 559.552 413.386 553.969 420.098C548.386 426.81 540.615 431.338 532.022 432.885C523.43 434.433 514.567 432.9 506.993 428.557L508.563 425.904L497.997 428.887L500.854 439.406L502.424 436.753C511.906 442.147 522.985 444.029 533.716 442.071C544.447 440.112 554.146 434.437 561.111 426.041C568.076 417.645 571.862 407.064 571.804 396.156C571.747 385.247 567.85 374.707 560.797 366.385Z" fill="white"/>
</g>
<path d="M518.753 352.412H508.516V321.012C508.516 315.237 506.222 309.698 502.138 305.614C498.054 301.531 492.516 299.236 486.74 299.236C480.965 299.236 475.426 301.531 471.342 305.614C467.259 309.698 464.964 315.237 464.964 321.012V352.412H454.728V321.012C454.728 312.522 458.101 304.38 464.104 298.376C470.108 292.373 478.25 289 486.74 289C495.23 289 503.373 292.373 509.376 298.376C515.38 304.38 518.753 312.522 518.753 321.012V352.412Z" fill="#263238"/>
<g opacity="0.3">
<path d="M518.753 352.412H508.516V321.012C508.516 315.237 506.222 309.698 502.138 305.614C498.054 301.531 492.516 299.236 486.74 299.236C480.965 299.236 475.426 301.531 471.342 305.614C467.259 309.698 464.964 315.237 464.964 321.012V352.412H454.728V321.012C454.728 312.522 458.101 304.38 464.104 298.376C470.108 292.373 478.25 289 486.74 289C495.23 289 503.373 292.373 509.376 298.376C515.38 304.38 518.753 312.522 518.753 321.012V352.412Z" fill="white"/>
</g>
<path d="M530.48 344.421V395.807C530.48 396.591 530.326 397.366 530.026 398.09C529.726 398.814 529.287 399.472 528.733 400.026C528.179 400.58 527.521 401.019 526.798 401.319C526.074 401.619 525.298 401.773 524.514 401.773H448.935C448.153 401.771 447.38 401.615 446.659 401.314C445.938 401.013 445.283 400.573 444.732 400.019C444.181 399.465 443.744 398.808 443.447 398.085C443.15 397.363 442.998 396.588 443 395.807V344.421C442.998 343.64 443.15 342.865 443.447 342.143C443.744 341.42 444.181 340.763 444.732 340.209C445.283 339.655 445.938 339.215 446.659 338.914C447.38 338.613 448.153 338.457 448.935 338.455H524.514C525.503 338.448 526.476 338.697 527.34 339.177C528.291 339.683 529.086 340.438 529.64 341.362C530.193 342.286 530.484 343.344 530.48 344.421Z" fill="#3B8AFF"/>
<path opacity="0.2" d="M527.34 339.177V389.527C527.34 390.31 527.186 391.085 526.886 391.808C526.586 392.531 526.146 393.187 525.592 393.74C525.038 394.293 524.38 394.731 523.656 395.029C522.933 395.327 522.157 395.479 521.374 395.477H445.795C444.819 395.48 443.857 395.237 443 394.771V344.421C442.998 343.64 443.15 342.865 443.447 342.143C443.744 341.42 444.181 340.763 444.732 340.209C445.283 339.655 445.938 339.215 446.659 338.914C447.38 338.613 448.153 338.457 448.935 338.455H524.514C525.503 338.448 526.476 338.697 527.34 339.177Z" fill="white"/>
<path opacity="0.5" d="M497.997 363.669C497.968 361.62 497.381 359.618 496.298 357.878C495.215 356.138 493.678 354.727 491.852 353.797C490.026 352.866 487.981 352.452 485.937 352.598C483.893 352.745 481.928 353.446 480.253 354.627C478.579 355.808 477.258 357.424 476.434 359.3C475.61 361.177 475.314 363.242 475.578 365.275C475.842 367.307 476.655 369.228 477.93 370.832C479.206 372.436 480.895 373.662 482.815 374.377L482.297 388.067H491.293L489.959 374.643C492.299 373.919 494.344 372.461 495.791 370.485C497.239 368.508 498.012 366.119 497.997 363.669Z" fill="black"/>
</g>
</g>
<defs>
<clipPath id="clip0_2022_1536">
<rect width="708" height="1024" fill="white"/>
</clipPath>
<clipPath id="clip1_2022_1536">
<rect width="661" height="585" fill="white" transform="translate(24 220)"/>
</clipPath>
</defs>
</svg>
