<svg width="16" height="20" viewBox="0 0 16 20" fill="none" xmlns="http://www.w3.org/2000/svg">
<path d="M10.3252 7.23077L10.0315 15.5385M5.96853 15.5385L5.67483 7.23077M14.1326 4.26822C14.4227 4.31589 14.7119 4.36689 15 4.42119M14.1326 4.26822L13.2265 17.0824C13.15 18.1644 12.3206 19 11.323 19H4.67697C3.6794 19 2.85001 18.1644 2.7735 17.0824L1.86745 4.26822M14.1326 4.26822C13.1598 4.1084 12.1758 3.98602 11.1818 3.90245M1 4.42119C1.28812 4.36689 1.57728 4.31589 1.86745 4.26822M1.86745 4.26822C2.84017 4.1084 3.82418 3.98602 4.81818 3.90245M11.1818 3.90245V3.05679C11.1818 1.96815 10.4091 1.05929 9.40898 1.02448C8.94116 1.0082 8.47146 1 8 1C7.52854 1 7.05884 1.0082 6.59102 1.02448C5.59086 1.05929 4.81818 1.96815 4.81818 3.05679V3.90245M11.1818 3.90245C10.1319 3.81418 9.07076 3.76923 8 3.76923C6.92924 3.76923 5.86813 3.81418 4.81818 3.90245" stroke="#6B7280" stroke-linecap="round" stroke-linejoin="round"/>
</svg>
